<?xml version="1.0" encoding="UTF-8" standalone="no"?>
<svg
   xmlns:dc="http://purl.org/dc/elements/1.1/"
   xmlns:cc="http://creativecommons.org/ns#"
   xmlns:rdf="http://www.w3.org/1999/02/22-rdf-syntax-ns#"
   xmlns:svg="http://www.w3.org/2000/svg"
   xmlns="http://www.w3.org/2000/svg"
   xmlns:sodipodi="http://sodipodi.sourceforge.net/DTD/sodipodi-0.dtd"
   xmlns:inkscape="http://www.inkscape.org/namespaces/inkscape"
   id="Layer_1"
   data-name="Layer 1"
   viewBox="0 0 507 573.6"
   version="1.1"
   sodipodi:docname="confidence-interval-best-est-uncertanty.svg"
   width="507"
   height="573.6"
   inkscape:version="0.92.5 (2060ec1f9f, 2020-04-08)"
   inkscape:export-filename="/home/susan/Projects/Work/2021-Extension-APL/image/confidence-interval-best-est-uncertainty.png"
   inkscape:export-xdpi="300"
   inkscape:export-ydpi="300">
  <metadata
     id="metadata20999">
    <rdf:RDF>
      <cc:Work
         rdf:about="">
        <dc:format>image/svg+xml</dc:format>
        <dc:type
           rdf:resource="http://purl.org/dc/dcmitype/StillImage" />
        <dc:title></dc:title>
      </cc:Work>
    </rdf:RDF>
  </metadata>
  <sodipodi:namedview
     pagecolor="#ffffff"
     bordercolor="#666666"
     borderopacity="1"
     objecttolerance="10"
     gridtolerance="10"
     guidetolerance="10"
     inkscape:pageopacity="0"
     inkscape:pageshadow="2"
     inkscape:window-width="640"
     inkscape:window-height="480"
     id="namedview20997"
     showgrid="false"
     inkscape:zoom="1.186"
     inkscape:cx="203.8"
     inkscape:cy="196.2"
     inkscape:current-layer="Layer_1"
     fit-margin-top="10"
     fit-margin-left="10"
     fit-margin-right="10"
     fit-margin-bottom="10" />
  <defs
     id="defs19184">
    <style
       id="style19182">.cls-1{fill:#c7ecee;}.cls-2{fill:#157778;}.cls-3{fill:#07a29b;}.cls-4{fill:#14adc2;}.cls-5{fill:#05968f;}.cls-6{fill:#4bdccb;}.cls-7{fill:#32d7c3;}.cls-8{fill:#1fd3bd;}.cls-9{fill:#5edfd0;}.cls-10{fill:#02675b;}.cls-11{fill:#6be2d4;}.cls-12{fill:#3ed9c7;}.cls-13{fill:#7fe6d9;}.cls-14{fill:#54babb;}.cls-15{fill:#84eced;}.cls-16{fill:#118473;}.cls-17{fill:#067e6c;}.cls-18{fill:#dcdcdc;}.cls-19{fill:#95fdda;}.cls-20{fill:#3ea4a6;}.cls-21{fill:#2eaaab;}.cls-22{fill:#50daa2;}.cls-23{fill:#05ceb6;}.cls-24{fill:#0aceb7;}.cls-25{fill:#42dac8;}.cls-26{fill:#0ccfb8;}.cls-27{fill:#54d5d7;}.cls-28{fill:#c6ffe8;}</style>
  </defs>
  <path
     class="cls-18"
     d="M 4843,-2042 C 4846,-2035 4855,-2031 4855,-2022 Q 4855,-2016 4855,-2010 L 4843,-1998 C 4837,-1994 4830,-1994 4823,-1994 C 4820,-1996 4817,-1998 4814,-2001 C 4804,-2012 4804,-2023 4813,-2034 C 4815,-2037 4817,-2039 4819,-2042 Z"
     id="path19478"
     inkscape:connector-curvature="0"
     style="fill:#dcdcdc" />
  <path
     class="cls-18"
     d="M 4855,-2078 C 4852,-2072 4850,-2065 4843,-2062 C 4836,-2057 4827,-2058 4819,-2058 C 4818,-2060 4816,-2062 4815,-2064 C 4803,-2078 4804,-2089 4817,-2101 C 4819,-2103 4821,-2104 4823,-2106 C 4830,-2106 4837,-2106 4843,-2102 L 4855,-2090 Q 4855,-2084 4855,-2078 Z"
     id="path19682"
     inkscape:connector-curvature="0"
     style="fill:#dcdcdc" />
  <path
     class="cls-18"
     d="M 4839,-2166 A 35.86,35.86 0 0 1 4844,-2163 C 4859,-2148 4859,-2138 4843,-2122 H 4823 C 4818,-2122 4814,-2124 4812,-2128 C 4810,-2134 4807,-2140 4808,-2145 C 4808,-2154 4810,-2165 4823,-2166 Z"
     id="path19770"
     inkscape:connector-curvature="0"
     style="fill:#dcdcdc" />
  <path
     class="cls-18"
     d="M 4847,-2222 C 4848,-2220 4850,-2218 4851,-2215 C 4857,-2205 4857,-2198 4849,-2191 C 4846,-2187 4843,-2185 4839,-2182 H 4823 C 4817,-2182 4814,-2185 4811,-2190 C 4808,-2196 4806,-2202 4808,-2209 C 4810,-2216 4812,-2223 4819,-2226 C 4828,-2226 4838,-2228 4847,-2222 Z"
     id="path20008"
     inkscape:connector-curvature="0"
     style="fill:#dcdcdc" />
  <path
     class="cls-1"
     d="M 146,443.2 H 100 C 99,443.2 99,443.2 99,443.2 C 93,445.2 88,444.2 83,444.2 H 72 C 68,444.2 64,444.2 60,444.2 C 59,444.2 58,444.2 57,444.2 C 55,445.2 53,445.2 51,445.2 H 46 C 43,445.2 40,444.2 36,445.2 C 35,446.2 34,445.2 33,445.2 H 30 H 29 C 29,445.2 29,445.2 29,445.2 A 110.8,110.8 0 0 0 45,437.2 C 46,436.2 48,435.2 50,434.2 C 55,431.2 60,428.2 66,424.2 C 70,420.2 74,417.2 78,413.2 C 79,411.2 80,410.2 81,409.2 C 85,404.2 88,398.2 91,393.2 C 93,390.2 95,387.2 95,384.2 C 97,381.2 98,377.2 100,374.2 C 101,372.2 101,370.2 102,368.2 C 102,366.2 103,365.2 103,364.2 C 104,363.2 104,363.2 104,363.2 C 104,360.2 106,357.2 106,354.2 C 107,350.2 110,346.2 110,342.2 A 3.009,3.009 0 0 1 110,341.2 C 112,335.2 114,329.2 116,323.2 C 117,319.2 118,315.2 119,311.2 Q 122,304.2 125,297.2 C 125,295.2 126,293.2 127,291.2 C 128,290.2 128,288.2 129,286.2 C 131,280.2 135,274.2 138,268.2 A 155.7,155.7 0 0 1 152,245.2 C 154,242.2 157,240.2 159,237.2 A 74.3,74.3 0 0 1 167,228.2 C 172,224.2 176,221.2 181,217.2 C 187,214.2 192,211.2 197,209.2 C 199,208.2 201,207.2 203,206.2 C 203,206.2 203,206.2 204,206.2 C 207,204.2 211,204.2 215,203.2 C 216,203.2 218,203.2 219,203.2 C 220,202.2 222,202.2 223,202.2 C 226,202.2 228,202.2 231,202.2 C 231,202.2 232,203.2 233,203.2 C 239,203.2 245,204.2 250,206.2 C 254,207.2 257,209.2 260,211.2 C 266,214.2 271,218.2 275,222.2 C 277,225.2 279,227.2 282,228.2 A 4.622,4.622 0 0 1 283,230.2 C 286,233.2 289,236.2 292,240.2 C 295,245.2 299,249.2 302,254.2 C 308,262.2 314,270.2 319,278.2 C 321,281.2 323,284.2 324,287.2 C 331,297.2 336,306.2 342,316.2 C 349,326.2 355,336.2 361,347.2 C 367,357.2 374,367.2 381,377.2 C 384,382.2 388,387.2 391,391.2 C 396,396.2 400,401.2 405,406.2 C 408,410.2 412,413.2 416,416.2 C 419,417.2 421,419.2 423,420.2 C 428,424.2 433,426.2 439,429.2 A 146.7,146.7 0 0 0 456,435.2 C 461,437.2 466,439.2 471,440.2 C 476,441.2 481,442.2 485,444.2 A 106.8,106.8 0 0 0 497,446.2 C 496,447.2 495,447.2 494,447.2 Q 490,447.2 485,447.2 C 480,447.2 476,447.2 471,447.2 C 469,447.2 467,447.2 465,446.2 C 464,446.2 463,446.2 462,446.2 Q 444,446.2 426,446.2 H 414 C 410,446.2 406,446.2 401,446.2 C 398,446.2 396,447.2 393,446.2 C 392,445.2 391,445.2 391,445.2 H 370 H 360 C 357,445.2 354,445.2 351,445.2 C 350,445.2 348,446.2 346,445.2 C 345,445.2 344,445.2 344,445.2 Q 328,445.2 312,445.2 H 299 C 294,445.2 290,445.2 285,445.2 C 283,445.2 280,445.2 277,444.2 C 276,444.2 276,444.2 275,444.2 H 240 H 228 C 224,444.2 221,444.2 217,444.2 C 215,444.2 212,444.2 210,443.2 C 209,443.2 209,443.2 208,443.2 Q 183,443.2 159,443.2 Z"
     id="path19186"
     inkscape:connector-curvature="0"
     style="fill:#c7ecee;stroke-width:0.1845" />
  <path
     class="cls-2"
     d="M 426,190.2 C 429,189.2 432,189.2 435,188.2 C 436,188.2 437,188.2 438,188.2 A 3.69,3.69 0 0 1 440,189.2 C 441,189.2 442,190.2 442,191.2 C 441,192.2 441,192.2 440,193.2 C 439,193.2 438,193.2 438,194.2 C 433,195.2 429,197.2 426,200.2 C 424,201.2 423,202.2 422,203.2 C 419,206.2 416,209.2 413,212.2 A 60.9,60.9 0 0 1 409,217.2 A 10.21,10.21 0 0 1 406,218.2 C 405,219.2 404,219.2 403,219.2 C 402,220.2 402,220.2 402,220.2 C 396,241.2 388,262.2 380,283.2 Q 373,301.2 366,319.2 C 365,322.2 364,324.2 363,326.2 A 16.32,16.32 0 0 1 362,328.2 C 360,331.2 358,333.2 354,332.2 C 353,332.2 353,332.2 352,332.2 C 352,332.2 352,331.2 351,331.2 C 348,329.2 348,326.2 349,323.2 C 349,321.2 350,320.2 350,319.2 C 353,312.2 356,305.2 359,298.2 Q 372,267.2 385,236.2 C 388,230.2 391,225.2 393,219.2 C 394,217.2 395,216.2 396,214.2 C 392,207.2 391,199.2 390,191.2 C 390,187.2 390,183.2 389,179.2 A 37.36,37.36 0 0 1 389,174.2 C 389,173.2 390,171.2 391,171.2 C 393,171.2 395,170.2 396,171.2 C 397,172.2 398,173.2 399,174.2 L 400,175.2 C 400,174.2 400,174.2 400,174.2 C 400,173.2 400,173.2 400,173.2 C 402,169.2 403,166.2 404,162.2 C 405,161.2 406,160.2 408,160.2 C 410,160.2 412,162.2 412,164.2 C 412,165.2 411,166.2 411,167.2 C 410,169.2 409,171.2 409,174.2 C 408,176.2 407,178.2 408,180.2 H 407 C 407,180.2 407,181.2 408,181.2 V 180.2 C 410,178.2 410,176.2 412,174.2 C 412,173.2 413,172.2 413,172.2 C 415,170.2 416,167.2 418,166.2 C 419,164.2 420,164.2 422,164.2 C 423,163.2 425,164.2 426,165.2 C 426,166.2 426,168.2 426,169.2 C 425,171.2 424,172.2 423,174.2 C 421,176.2 420,177.2 420,180.2 C 422,179.2 423,177.2 424,175.2 C 425,175.2 426,175.2 426,174.2 C 427,173.2 429,173.2 430,173.2 C 433,173.2 434,176.2 433,178.2 C 433,179.2 432,180.2 432,180.2 C 430,182.2 428,183.2 427,185.2 C 426,186.2 425,187.2 424,188.2 C 423,189.2 423,190.2 422,191.2 V 192.2 H 423 Z M 419,180.2 C 419,180.2 419,180.2 419,180.2 C 419,180.2 419,181.2 419,181.2 C 419,181.2 419,181.2 419,180.2 C 419,180.2 419,180.2 419,180.2 Z"
     id="path19202"
     inkscape:connector-curvature="0"
     style="fill:#157778;stroke-width:0.1845" />
  <path
     class="cls-2"
     d="M 27,193.2 C 28,191.2 28,189.2 28,188.2 C 29,187.2 29,187.2 29,187.2 C 32,186.2 33,187.2 34,190.2 C 34,191.2 35,193.2 35,195.2 C 36,197.2 36,198.2 36,200.2 C 37,201.2 37,203.2 39,205.2 C 38,201.2 38,198.2 38,195.2 C 38,192.2 38,189.2 39,186.2 C 40,186.2 40,185.2 40,185.2 C 43,185.2 43,185.2 44,187.2 C 44,191.2 45,195.2 45,199.2 C 46,200.2 45,202.2 47,203.2 C 47,202.2 48,200.2 48,199.2 C 49,198.2 49,197.2 50,195.2 C 51,195.2 52,195.2 53,195.2 A 3.321,3.321 0 0 1 54,198.2 C 54,202.2 55,207.2 54,211.2 C 54,214.2 54,218.2 54,222.2 C 54,223.2 54,225.2 54,226.2 C 54,229.2 53,232.2 51,234.2 C 50,234.2 50,234.2 50,235.2 C 52,238.2 55,241.2 57,245.2 C 63,255.2 69,265.2 75,276.2 C 81,287.2 87,298.2 94,309.2 C 98,318.2 103,327.2 108,336.2 C 109,339.2 110,341.2 111,343.2 A 21,21 0 0 1 112,347.2 C 113,350.2 112,352.2 110,354.2 C 107,356.2 105,356.2 102,355.2 C 101,354.2 100,354.2 99,352.2 C 97,349.2 95,345.2 93,341.2 C 90,335.2 86,329.2 83,323.2 C 79,315.2 76,307.2 72,300.2 C 69,293.2 65,287.2 62,280.2 C 56,267.2 51,254.2 45,241.2 C 44,239.2 43,237.2 43,235.2 C 42,235.2 41,235.2 40,235.2 C 38,234.2 35,233.2 33,232.2 C 31,230.2 28,230.2 26,228.2 C 24,228.2 24,226.2 22,226.2 C 21,225.2 20,224.2 19,223.2 A 33.08,33.08 0 0 1 16,219.2 C 14,216.2 12,213.2 11,209.2 C 11,207.2 11,206.2 10,204.2 C 10,204.2 11,203.2 11,203.2 C 11,202.2 13,202.2 13,202.2 C 14,203.2 15,204.2 16,205.2 C 18,208.2 19,209.2 21,211.2 C 21,212.2 22,212.2 22,212.2 L 23,213.2 V 212.2 H 22 C 22,212.2 22,211.2 22,211.2 C 21,209.2 21,207.2 20,205.2 C 19,203.2 18,200.2 18,198.2 A 7.946,7.946 0 0 1 17,196.2 A 3.474,3.474 0 0 1 20,192.2 C 21,192.2 22,192.2 23,194.2 C 24,195.2 25,197.2 26,198.2 C 26,200.2 27,202.2 29,204.2 C 29,202.2 28,200.2 28,198.2 Q 28,197.2 28,195.2 Q 27,194.2 27,193.2 Z"
     id="path19208"
     inkscape:connector-curvature="0"
     style="fill:#157778;stroke-width:0.1845" />
  <path
     class="cls-16"
     d="M 131,90.18 C 131,78.18 131,67.18 131,55.18 C 134,54.18 136,54.18 139,55.18 C 140,56.18 140,57.18 140,57.18 Q 140,72.18 140,87.18 A 7.304,7.304 0 0 1 140,88.18 C 140,89.18 139,90.18 138,90.18 C 136,90.18 134,90.18 131,90.18 Z"
     id="path19338"
     inkscape:connector-curvature="0"
     style="fill:#118473;stroke-width:0.1845" />
  <path
     class="cls-16"
     d="M 140,131.2 C 137,132.2 134,131.2 131,132.2 C 131,128.2 131,124.2 131,120.2 C 131,116.2 131,112.2 131,109.2 C 131,105.2 131,101.2 131,97.18 C 134,97.18 137,97.18 140,97.18 Z"
     id="path19340"
     inkscape:connector-curvature="0"
     style="fill:#118473;stroke-width:0.1845" />
  <path
     class="cls-17"
     d="M 140,278.2 L 131,279.2 C 131,278.2 131,278.2 131,277.2 Q 131,261.2 131,246.2 C 131,245.2 131,245.2 131,245.2 C 133,244.2 134,244.2 135,244.2 C 137,244.2 138,244.2 140,244.2 C 140,245.2 140,245.2 140,246.2 Q 140,261.2 140,276.2 C 140,276.2 140,277.2 140,278.2 Z"
     id="path19346"
     inkscape:connector-curvature="0"
     style="fill:#067e6c;stroke-width:0.1845" />
  <path
     class="cls-16"
     d="M 140,201.2 C 140,202.2 140,202.2 139,203.2 C 136,203.2 134,203.2 131,203.2 C 131,203.2 131,202.2 131,202.2 Q 131,188.2 131,174.2 C 131,173.2 131,173.2 131,172.2 C 134,172.2 136,172.2 139,172.2 C 141,173.2 140,175.2 140,176.2 C 140,179.2 140,182.2 140,185.2 C 140,190.2 140,195.2 140,201.2 Z"
     id="path19350"
     inkscape:connector-curvature="0"
     style="fill:#118473;stroke-width:0.1845" />
  <path
     class="cls-17"
     d="M 131,209.2 C 133,209.2 134,209.2 135,209.2 C 137,209.2 138,209.2 140,209.2 C 140,209.2 140,210.2 140,210.2 Q 140,224.2 140,238.2 C 140,238.2 140,238.2 140,239.2 C 137,240.2 134,239.2 131,240.2 C 131,239.2 131,238.2 131,238.2 Q 131,224.2 131,211.2 C 131,210.2 131,210.2 131,209.2 Z"
     id="path19354"
     inkscape:connector-curvature="0"
     style="fill:#067e6c;stroke-width:0.1845" />
  <path
     class="cls-17"
     d="M 298,122.2 C 301,121.2 304,121.2 306,122.2 A 4.243,4.243 0 0 1 307,122.2 Q 307,136.2 307,149.2 C 307,150.2 307,150.2 307,151.2 L 298,152.2 C 298,152.2 298,151.2 298,151.2 Q 298,137.2 298,123.2 C 298,123.2 298,122.2 298,122.2 Z"
     id="path19356"
     inkscape:connector-curvature="0"
     style="fill:#067e6c;stroke-width:0.1845" />
  <path
     class="cls-16"
     d="M 140,166.2 C 137,166.2 134,167.2 131,167.2 C 131,166.2 131,166.2 131,166.2 Q 131,152.2 131,139.2 C 131,138.2 131,138.2 131,138.2 C 133,138.2 135,137.2 137,137.2 C 138,137.2 139,137.2 140,138.2 C 140,141.2 140,144.2 140,147.2 C 140,150.2 140,153.2 140,156.2 Z"
     id="path19360"
     inkscape:connector-curvature="0"
     style="fill:#118473;stroke-width:0.1845" />
  <path
     class="cls-17"
     d="M 131,35.18 Q 131,30.18 131,25.18 C 131,23.18 131,22.18 131,20.18 C 132,20.18 134,20.18 135,20.18 C 136,20.18 138,20.18 139,20.18 C 139,21.18 140,21.18 140,22.18 Q 140,34.18 140,47.18 C 140,47.18 140,47.18 140,48.18 C 137,49.18 134,49.18 131,49.18 C 131,49.18 131,48.18 131,48.18 Z"
     id="path19364"
     inkscape:connector-curvature="0"
     style="fill:#067e6c;stroke-width:0.1845" />
  <path
     class="cls-17"
     d="M 298,346.2 C 300,345.2 303,345.2 305,345.2 A 13.24,13.24 0 0 1 307,345.2 C 307,348.2 307,371.2 307,375.2 C 305,376.2 304,375.2 302,376.2 C 301,376.2 300,376.2 299,376.2 C 298,376.2 298,376.2 298,376.2 C 298,376.2 298,375.2 298,375.2 Q 298,361.2 298,347.2 C 298,347.2 298,346.2 298,346.2 Z"
     id="path19366"
     inkscape:connector-curvature="0"
     style="fill:#067e6c;stroke-width:0.1845" />
  <path
     class="cls-17"
     d="M 298,311.2 H 306 A 2.048,2.048 0 0 1 307,311.2 C 307,312.2 307,313.2 307,314.2 C 307,323.2 307,331.2 307,339.2 A 34.3,34.3 0 0 1 298,341.2 C 298,338.2 298,315.2 298,311.2 Z"
     id="path19368"
     inkscape:connector-curvature="0"
     style="fill:#067e6c;stroke-width:0.1845" />
  <path
     class="cls-17"
     d="M 131,351.2 H 140 C 140,352.2 140,352.2 140,353.2 Q 140,365.2 140,378.2 C 140,378.2 140,379.2 140,379.2 C 139,379.2 137,380.2 136,380.2 C 134,380.2 133,380.2 132,380.2 C 131,380.2 131,379.2 131,379.2 Q 131,366.2 131,352.2 C 131,352.2 131,352.2 131,351.2 Z"
     id="path19370"
     inkscape:connector-curvature="0"
     style="fill:#067e6c;stroke-width:0.1845" />
  <path
     class="cls-17"
     d="M 298,217.2 H 307 C 307,217.2 307,218.2 307,218.2 Q 307,230.2 307,242.2 C 307,242.2 307,243.2 307,244.2 C 304,244.2 302,245.2 299,245.2 C 299,245.2 299,245.2 298,245.2 C 298,243.2 297,223.2 298,217.2 Z"
     id="path19376"
     inkscape:connector-curvature="0"
     style="fill:#067e6c;stroke-width:0.1845" />
  <path
     class="cls-17"
     d="M 140,311.2 L 132,312.2 C 131,311.2 131,311.2 131,310.2 Q 131,298.2 131,286.2 C 131,286.2 131,285.2 131,285.2 C 133,284.2 134,284.2 136,284.2 C 137,284.2 138,284.2 140,285.2 C 140,288.2 140,304.2 140,311.2 Z"
     id="path19378"
     inkscape:connector-curvature="0"
     style="fill:#067e6c;stroke-width:0.1845" />
  <path
     class="cls-17"
     d="M 298,184.2 L 306,185.2 C 307,188.2 307,207.2 306,210.2 C 304,210.2 301,211.2 298,211.2 C 298,208.2 298,187.2 298,184.2 Z"
     id="path19380"
     inkscape:connector-curvature="0"
     style="fill:#067e6c;stroke-width:0.1845" />
  <path
     class="cls-17"
     d="M 131,317.2 H 140 C 140,318.2 140,318.2 140,319.2 Q 140,331.2 140,343.2 C 140,343.2 140,344.2 140,344.2 C 139,345.2 139,345.2 138,345.2 C 136,345.2 134,345.2 132,345.2 C 131,345.2 131,345.2 131,344.2 C 131,343.2 131,342.2 131,341.2 C 131,334.2 131,326.2 131,317.2 Z"
     id="path19382"
     inkscape:connector-curvature="0"
     style="fill:#067e6c;stroke-width:0.1845" />
  <path
     class="cls-17"
     d="M 140,387.2 V 413.2 C 137,413.2 134,413.2 132,413.2 A 4.718,4.718 0 0 1 131,413.2 Q 131,400.2 131,388.2 C 131,387.2 131,387.2 131,387.2 C 135,386.2 138,386.2 140,387.2 Z"
     id="path19384"
     inkscape:connector-curvature="0"
     style="fill:#067e6c;stroke-width:0.1845" />
  <g
     id="g30258"
     transform="matrix(0.0554,-0.051,0.0544,0.0519,-144,172.2)">
    <path
       id="path19188"
       transform="translate(3221,3148)"
       d="M -417,3948 H -489 C -498.3,3945 -507.7,3946 -517,3948 C -521.5,3949 -526.4,3949 -530.3,3950 C -542.9,3956 -555.1,3963 -567.4,3970 C -592.7,3983 -617.6,3997 -643.1,4010 C -659.1,4018 -675.6,4025 -691.9,4032 A 474,474 0 0 1 -849.4,4073 C -854.6,4073 -859.8,4074 -865,4075 L -881,4076 H -905 L -921,4075 C -932.8,4074 -944.7,4072 -956.5,4070 C -1019,4061 -1078,4040 -1134,4010 C -1148,4003 -1161,3994 -1175,3986 C -1183,3981 -1190,3974 -1198,3968 C -1204,3962 -1213,3959 -1219,3950 C -1223,3943 -1232,3939 -1240,3933 A 24,24 0 0 1 -1244,3929 C -1256,3913 -1271,3900 -1282,3884 C -1293,3868 -1305,3853 -1315,3837 C -1359,3766 -1388,3690 -1397,3606 Q -1417,3436 -1342,3282 A 545,545 0 0 1 -1294,3201 C -1273,3172 -1250,3145 -1223,3121 C -1218,3117 -1212,3114 -1207,3110 C -1200,3104 -1195,3098 -1188,3093 C -1179,3087 -1170,3081 -1161,3075 C -1152,3069 -1145,3062 -1135,3059 C -1132,3058 -1130,3056 -1128,3055 C -1030,3000 -933.5,2984 -838.6,2993 C -773.1,3000 -710.6,3018 -653.9,3053 C -628.9,3068 -605.3,3086 -585.1,3107 C -573.1,3120 -559.1,3130 -544,3139 A 59.33,59.33 0 0 0 -507.5,3146 C -486.1,3144 -465.7,3138 -445.5,3131 C -417.3,3121 -388.9,3111 -360.4,3102 C -305,3085 -248.9,3083 -192.6,3097 C -170.6,3102 -149.1,3109 -127.6,3116 C -118.3,3119 -109.5,3125 -100.8,3129 C -90.76,3135 -87.34,3144 -88.42,3155 C -89.73,3168 -96.03,3179 -105.3,3188 A 407.3,407.3 0 0 1 -140,3218 C -155.5,3230 -169.2,3243 -180.2,3259 C -188,3270 -196.6,3281 -204.7,3293 C -232.2,3332 -252.6,3374 -267.3,3420 C -268.5,3424 -269.8,3428 -271.1,3432 C -264.2,3435 -258.6,3434 -253,3432 C -229,3432 -204.9,3433 -181,3429 L -169,3428 C -143.6,3429 -118.2,3429 -93.03,3425 L -81.03,3424 C -52.97,3424 -24.91,3425 2.97,3421 L 18.97,3420 C 47.02,3420 75.09,3421 103,3417 L 115,3416 C 145.7,3416 176.4,3417 207,3413 L 223,3412 C 253.7,3412 284.4,3413 315,3409 L 331,3408 C 364.3,3408 397.7,3409 431,3405 L 443,3404 L 563,3401 L 591,3400 C 595.6,3401 600.1,3401 604.7,3401 Q 671.1,3400 737.4,3399 C 743.3,3399 749.1,3398 755,3397 L 771,3396 C 796,3396 821,3395 846,3395 C 851.7,3395 855.8,3392 859.6,3388 C 869.9,3377 880.5,3367 891,3356 C 901.2,3353 901.8,3352 899.1,3344 Q 893.4,3328 887.7,3313 C 880.1,3291 880.5,3286 890.9,3263 C 902.6,3256 915.3,3254 928.8,3257 L 946.4,3274 C 953.5,3300 957.6,3308 968.3,3320 L 1007,3309 L 1019,3307 C 1018,3303 1017,3299 1016,3296 C 1016,3288 1015,3280 1015,3272 C 1015,3266 1015,3260 1017,3254 C 1020,3240 1031,3231 1046,3231 C 1061,3230 1074,3238 1079,3251 C 1081,3257 1082,3263 1083,3269 C 1084,3275 1085,3282 1086,3288 C 1086,3292 1086,3296 1087,3300 C 1101,3303 1114,3301 1128,3302 C 1133,3302 1135,3297 1134,3292 C 1135,3286 1135,3280 1136,3274 C 1137,3268 1138,3262 1141,3257 C 1148,3243 1162,3236 1178,3240 C 1191,3242 1202,3255 1203,3269 C 1204,3275 1203,3281 1203,3287 C 1203,3295 1203,3302 1203,3310 C 1218,3316 1234,3319 1250,3322 L 1262,3325 L 1265,3312 C 1268,3300 1272,3287 1276,3275 C 1282,3272 1286,3269 1291,3267 C 1312,3259 1334,3274 1335,3297 C 1335,3304 1334,3311 1333,3318 C 1332,3326 1332,3333 1331,3340 C 1330,3343 1332,3344 1335,3345 C 1336,3346 1338,3347 1340,3348 C 1371,3359 1398,3376 1425,3395 C 1450,3412 1470,3434 1488,3458 C 1495,3468 1501,3480 1505,3492 C 1516,3522 1503,3552 1473,3564 A 68.34,68.34 0 0 1 1454,3568 A 189.2,189.2 0 0 1 1424,3569 Q 1379,3565 1334,3561 C 1298,3558 1262,3560 1227,3566 C 1198,3570 1174,3584 1153,3603 C 1126,3627 1099,3650 1069,3670 A 206.5,206.5 0 0 1 997.9,3701 C 975.3,3706 952.9,3706 930.8,3699 C 918.1,3696 905.5,3691 893.2,3687 C 886,3684 880.9,3678 875.2,3672 C 859.7,3658 850.3,3640 841.9,3621 C 839.2,3615 836.5,3609 833.8,3603 C 831.2,3595 831.2,3595 823.1,3596 C 793.7,3595 764.3,3595 735.1,3599 L 723.1,3600 C 697.7,3599 672.3,3599 647.1,3603 L 639.1,3604 C 612.4,3604 585.6,3603 559.1,3607 L 543.1,3608 C 516.4,3607 489.6,3607 463.1,3611 L 447.1,3612 C 419,3612 391,3611 363.1,3615 L 347.1,3616 C 316.4,3616 285.7,3615 255.1,3619 L 239.1,3620 C 204.4,3619 169.7,3619 135.1,3623 L 119.1,3624 C 77.73,3624 36.34,3623 -4.91,3627 L -24.91,3628 L -144.9,3631 L -164.9,3632 C -203.6,3632 -242.3,3631 -280.9,3635 C -286.8,3635 -292.7,3635 -298.5,3635 C -304.4,3635 -310,3635 -316.3,3636 C -318.1,3646 -319.9,3655 -317,3664 C -313.4,3699 -294.3,3723 -261.2,3735 C -251.2,3738 -240.8,3741 -230.6,3744 C -226.8,3745 -222.9,3746 -219.1,3747 C -202,3754 -192,3766 -188.7,3784 C -184.3,3807 -189.1,3829 -201.2,3849 C -219.1,3879 -244,3901 -275.7,3916 C -311.7,3932 -349.5,3942 -389.3,3944 C -394.5,3945 -399.7,3946 -404.9,3947 Z M -338.9,3448 C -337.1,3410 -359.1,3387 -396.5,3387 C -417.3,3388 -437.7,3391 -457.5,3397 C -479,3403 -499.6,3402 -520,3394 A 293,293 0 0 1 -571.3,3367 C -624.5,3332 -683.7,3316 -746.7,3313 C -796.6,3310 -845.1,3316 -891.4,3336 C -892.1,3336 -892.7,3336 -893.3,3336 C -937.5,3353 -977.3,3377 -1010,3412 C -1016,3416 -1023,3416 -1031,3415 A 161.5,161.5 0 0 0 -1054,3412 C -1072,3412 -1089,3412 -1106,3412 C -1109,3412 -1113,3412 -1116,3412 C -1134,3411 -1146,3424 -1145,3440 C -1145,3443 -1145,3447 -1145,3450 C -1145,3469 -1144,3487 -1145,3506 C -1147,3546 -1141,3585 -1141,3625 A 19.15,19.15 0 0 0 -1140,3631 A 50.27,50.27 0 0 1 -1140,3664 A 18.37,18.37 0 0 0 -1136,3683 C -1134,3686 -1131,3689 -1129,3692 C -1129,3718 -1129,3744 -1128,3770 C -1128,3783 -1125,3796 -1123,3809 C -1116,3842 -1102,3873 -1087,3902 C -1064,3943 -1031,3973 -987.4,3991 C -960.9,4002 -933.7,4010 -905.2,4015 C -864.4,4021 -824.4,4020 -785,4007 C -744.1,3993 -703.3,3979 -662.3,3965 C -636.3,3956 -612.3,3943 -587.6,3931 C -557.9,3918 -527.4,3906 -494.3,3904 C -457.8,3901 -421.3,3899 -384.8,3896 C -350.2,3894 -318,3884 -287.7,3868 C -277.8,3863 -267.8,3857 -260.3,3849 C -241,3828 -236.5,3793 -274.3,3777 A 107.4,107.4 0 0 0 -295.2,3771 C -321.4,3766 -339.9,3751 -351.4,3727 C -369.2,3691 -382,3654 -374.2,3612 C -373.7,3609 -374,3607 -374,3604 C -362.7,3604 -351.4,3604 -340.1,3603 C -330.8,3602 -321.6,3600 -312.4,3600 C -253.1,3600 -193.8,3600 -134.5,3600 C -128.5,3600 -122.2,3600 -116.6,3599 C -106.7,3596 -96.84,3596 -86.89,3596 C -65.56,3596 -44.24,3596 -22.89,3596 C -16.23,3596 -9.33,3597 -2.89,3595 C 22.83,3590 48.86,3593 74.72,3592 C 78.72,3592 82.99,3592 86.64,3591 C 97.7,3587 109,3588 120.3,3588 C 136.3,3588 152.3,3588 168.3,3588 C 173,3588 177.9,3588 182.2,3587 C 194,3583 206,3584 217.9,3584 C 237.2,3584 256.6,3584 275.9,3584 C 281.2,3584 286.5,3583 291.8,3583 C 301.1,3582 310.3,3581 319.5,3580 C 336.1,3580 352.8,3580 369.5,3580 C 374.2,3580 379.1,3580 383.4,3579 C 393.2,3576 403.1,3576 413.1,3576 C 426.4,3576 439.7,3576 453.1,3576 C 458.4,3576 463.7,3575 469,3575 C 476.9,3574 484.8,3572 492.7,3572 C 508.7,3572 525,3574 540.5,3571 C 556.5,3568 572.3,3568 588.2,3568 C 600.2,3568 612.7,3570 624.1,3567 C 651,3561 678.8,3568 705.4,3560 C 733.4,3560 760.9,3557 788.4,3552 C 806.6,3549 811.3,3545 814.4,3527 A 70.11,70.11 0 0 0 815.1,3517 C 815.5,3504 814.6,3491 818.4,3477 C 819.8,3472 819.4,3467 818.7,3462 C 815.7,3440 805.1,3425 782.8,3428 A 19,19 0 0 1 780.8,3428 Q 714.8,3428 648.8,3428 C 644.2,3428 639.2,3427 634.9,3429 C 625.1,3432 615.2,3432 605.2,3432 Q 503.2,3432 401.3,3432 C 394.7,3432 388,3433 381.4,3433 C 372.8,3434 364.3,3435 355.7,3435 C 301.7,3436 247.7,3436 193.8,3436 C 187.1,3436 180.5,3436 173.8,3437 C 165.3,3438 156.7,3439 148.2,3439 C 84.84,3440 21.53,3440 -41.78,3440 C -47.78,3440 -54.1,3439 -59.68,3441 C -72.17,3444 -84.77,3443 -97.37,3444 C -136.7,3444 -176,3444 -215.3,3444 C -234.5,3444 -253.9,3442 -272.9,3447 C -276.1,3448 -279.6,3448 -282.9,3448 Q -310.9,3448 -338.9,3448 Z M -1196,3767 C -1198,3750 -1199,3736 -1202,3721 C -1203,3711 -1213,3703 -1225,3703 A 36.39,36.39 0 0 0 -1252,3712 C -1261,3720 -1270,3729 -1277,3738 C -1290,3755 -1289,3780 -1276,3795 A 45.58,45.58 0 0 0 -1225,3808 C -1206,3801 -1196,3786 -1196,3767 Z M 1195,3352 C 1177,3352 1166,3363 1167,3381 C 1167,3397 1178,3408 1193,3408 C 1208,3408 1222,3394 1223,3379 C 1223,3363 1212,3352 1195,3352 Z M 995.1,3398 C 995,3382 985.5,3372 971.1,3372 C 953,3372 942.8,3382 942.8,3400 C 942.8,3416 952.8,3428 967.2,3428 C 981.9,3428 995.3,3413 995.1,3398 Z M 1055,3374 C 1055,3388 1065,3399 1079,3400 C 1093,3400 1107,3386 1107,3372 C 1107,3359 1093,3344 1080,3345 C 1064,3345 1055,3356 1055,3374 Z M 1346,3411 C 1347,3401 1335,3387 1323,3385 C 1312,3383 1297,3397 1296,3409 C 1295,3419 1307,3433 1319,3435 C 1330,3437 1345,3423 1346,3411 Z"
       class="cls-2"
       inkscape:connector-curvature="0"
       style="fill:#157778" />
    <path
       id="path20530"
       transform="translate(3221,3148)"
       d="M -1010,3412 C -977.3,3377 -937.5,3353 -893.3,3336 C -892.7,3336 -892.1,3336 -891.4,3336 C -845.1,3316 -796.6,3310 -746.7,3313 C -683.7,3316 -624.5,3332 -571.3,3367 A 293,293 0 0 0 -520,3394 C -499.6,3402 -479,3403 -457.5,3397 C -437.7,3391 -417.3,3388 -396.5,3387 C -359.1,3387 -337,3410 -338.9,3448 C -352.8,3448 -367,3448 -380.6,3450 C -394.9,3453 -409.9,3448 -423.6,3455 C -426.5,3462 -425.7,3468 -425.3,3475 C -424.2,3494 -422.6,3513 -421.2,3533 C -419.8,3553 -418.5,3572 -416.9,3592 C -416.2,3601 -413.2,3604 -403.9,3604 C -393.9,3604 -383.9,3604 -373.9,3604 C -373.9,3607 -373.6,3610 -374.1,3612 C -381.9,3654 -369.1,3691 -351.3,3727 C -339.8,3751 -321.3,3766 -295.1,3771 A 107.4,107.4 0 0 1 -274.2,3778 C -236.4,3793 -240.9,3828 -260.2,3849 C -267.7,3857 -277.7,3863 -287.6,3868 C -317.9,3884 -350.2,3894 -384.7,3896 C -421.2,3899 -457.7,3902 -494.2,3904 C -527.3,3906 -557.8,3918 -587.5,3931 C -612.3,3943 -636.1,3956 -662.2,3965 C -703.2,3979 -744.1,3993 -784.9,4007 C -824.3,4021 -864.3,4021 -905.1,4015 C -933.6,4010 -960.8,4002 -987.3,3991 C -1031,3973 -1064,3944 -1086,3902 C -1102,3873 -1116,3842 -1122,3809 C -1125,3796 -1128,3783 -1128,3770 C -1129,3744 -1129,3718 -1129,3692 C -1118,3695 -1108,3696 -1097,3696 C -1066,3695 -1035,3693 -1004,3692 C -994.9,3692 -989.1,3688 -984.9,3680 C -981.6,3674 -981.2,3668 -981.2,3661 C -981.2,3640 -980.8,3620 -981.2,3599 C -982,3555 -983.4,3510 -984.4,3466 A 145.4,145.4 0 0 1 -983,3444 C -981.1,3429 -986.7,3420 -1001,3416 C -1004,3415 -1007,3413 -1010,3412 Z M -509.5,3593 C -509.7,3588 -509.7,3587 -509.9,3586 C -512.1,3560 -514.3,3534 -516.7,3508 C -518,3493 -519.2,3478 -521.4,3463 C -522.7,3454 -525,3446 -531.5,3439 C -543.2,3427 -562.5,3429 -570.8,3443 C -573.4,3448 -575.8,3453 -576.6,3458 C -578.5,3471 -580.3,3484 -580.6,3498 C -581.3,3528 -581.7,3559 -576.9,3589 C -575.1,3601 -573.2,3613 -565.8,3623 C -551.4,3643 -526.1,3641 -516.3,3619 C -512.4,3610 -511.1,3599 -509.5,3593 Z M -865.7,3577 H -865 C -865,3593 -865.4,3609 -864.8,3625 C -864.4,3640 -856.8,3650 -843.6,3657 A 22.31,22.31 0 0 0 -834.1,3659 A 29.9,29.9 0 0 0 -805.1,3633 C -804.2,3628 -804.5,3623 -804.5,3617 C -804.7,3581 -803.9,3544 -809.2,3508 C -811.5,3492 -814.2,3476 -817.9,3461 C -819.3,3455 -823.1,3448 -827.3,3443 C -836.2,3433 -851.1,3435 -856.2,3448 A 61.28,61.28 0 0 0 -860.5,3468 C -862.5,3504 -864,3541 -865.7,3577 Z"
       class="cls-15"
       inkscape:connector-curvature="0"
       style="fill:#84eced" />
    <path
       id="path20532"
       transform="translate(3221,3148)"
       d="M -374,3604 C -384,3604 -394,3604 -404,3604 C -413.3,3604 -416.3,3601 -417,3592 C -418.6,3572 -419.9,3553 -421.3,3533 C -422.7,3513 -424.3,3494 -425.4,3475 C -425.8,3468 -426.6,3462 -423.7,3455 C -410,3448 -395,3453 -380.7,3450 C -367.1,3448 -352.9,3448 -339,3448 H -283 C -279.6,3448 -276.1,3448 -273,3447 C -254,3442 -234.6,3444 -215.3,3444 C -176,3444 -136.7,3444 -97.34,3444 C -84.74,3444 -72.14,3445 -59.65,3441 C -54.07,3439 -47.74,3440 -41.75,3440 C 21.56,3440 84.87,3440 148.2,3440 C 156.7,3440 165.3,3438 173.9,3437 C 180.5,3437 187.1,3436 193.8,3436 C 247.8,3436 301.8,3436 355.7,3436 C 364.3,3436 372.8,3434 381.4,3433 C 388,3433 394.7,3432 401.3,3432 Q 503.3,3432 605.2,3432 C 615.2,3432 625.1,3432 634.9,3429 C 639.2,3428 644.2,3428 648.8,3428 Q 714.8,3428 780.8,3428 A 19,19 0 0 0 782.8,3428 C 805.1,3426 815.7,3440 818.7,3462 C 819.4,3467 819.8,3473 818.4,3478 C 814.7,3491 815.6,3504 815.1,3517 A 70.11,70.11 0 0 1 814.5,3527 C 811.3,3545 806.6,3549 788.5,3552 C 761,3557 733.4,3561 705.4,3560 C 678.8,3568 651,3561 624.2,3567 C 612.7,3570 600.2,3568 588.3,3568 C 572.4,3569 556.6,3568 540.6,3571 C 525,3574 508.7,3572 492.7,3572 C 484.8,3573 476.9,3574 469,3575 C 463.7,3575 458.4,3576 453.1,3576 C 439.8,3576 426.5,3576 413.1,3576 C 403.1,3576 393.2,3576 383.4,3579 C 379.2,3581 374.2,3580 369.5,3580 C 352.9,3580 336.2,3580 319.5,3580 C 310.3,3581 301.1,3582 291.9,3583 C 286.6,3584 281.2,3584 275.9,3584 C 256.6,3584 237.3,3584 217.9,3584 C 206,3585 194,3584 182.3,3587 C 178,3589 173,3588 168.3,3588 C 152.3,3588 136.3,3588 120.3,3588 C 109.1,3588 97.73,3587 86.67,3591 C 83.02,3592 78.74,3592 74.75,3592 C 48.83,3593 22.8,3590 -2.92,3596 C -9.31,3597 -16.21,3596 -22.92,3596 C -44.25,3596 -65.57,3596 -86.92,3596 C -96.92,3596 -106.8,3596 -116.6,3599 C -122.2,3601 -128.5,3600 -134.5,3600 C -193.8,3600 -253.1,3600 -312.4,3600 C -321.7,3600 -330.9,3602 -340.1,3603 C -351.3,3604 -362.6,3604 -374,3604 Z M -308.8,3527 C -306.8,3500 -337,3486 -356.3,3498 C -362.8,3502 -368.3,3509 -372.5,3515 C -379.2,3526 -377.9,3537 -371.1,3547 C -357.6,3568 -332.9,3569 -317.1,3550 C -311.3,3543 -308.2,3535 -308.7,3527 Z M 5.14,3556 C 22.03,3559 38.72,3536 38.58,3523 C 38.38,3505 21.9,3488 4.47,3488 C -15.53,3488 -29.04,3502 -28.94,3522 C -28.85,3542 -14.67,3556 5.14,3556 Z M 139.5,3514 C 139.5,3531 156.1,3547 173,3547 C 189.9,3547 206.4,3530 206,3514 C 205.6,3496 189.3,3480 172.6,3481 C 155.8,3481 139.5,3497 139.5,3514 Z M -140.7,3527 C -138.3,3511 -156.5,3494 -173.7,3494 C -193,3494 -205.7,3508 -205.3,3527 C -204.9,3547 -191.2,3560 -172.5,3560 C -153.7,3560 -140.5,3546 -140.7,3527 Z M 490.7,3476 C 469.9,3476 458.6,3487 458.6,3507 C 458.5,3526 472.3,3540 490.9,3540 C 508.7,3540 522.4,3526 522.7,3509 C 523.1,3490 509.4,3476 490.7,3476 Z M 351.4,3514 C 352.4,3493 335,3481 321.6,3480 C 303.2,3480 287.6,3494 287.2,3512 C 286.8,3529 301.8,3546 318.8,3546 C 337.4,3547 351.3,3533 351.4,3514 Z M 699.1,3498 C 699.9,3481 689.6,3466 667.7,3465 C 650.1,3463 635.9,3479 634.7,3497 C 633.7,3513 648.3,3529 667.6,3531 C 681.8,3532 698.9,3514 699.1,3498 Z"
       class="cls-20"
       inkscape:connector-curvature="0"
       style="fill:#3ea4a6" />
    <path
       id="path20534"
       transform="translate(3221,3148)"
       d="M -1010,3412 C -1007,3413 -1004,3415 -1001,3416 C -986.6,3420 -981,3429 -983,3444 A 145.4,145.4 0 0 0 -984.5,3466 C -983.6,3510 -982.2,3555 -981.3,3599 C -980.9,3620 -981.3,3640 -981.3,3661 C -981.3,3667 -981.8,3674 -985.1,3680 C -989.2,3688 -995.1,3692 -1004,3692 C -1035,3693 -1066,3695 -1097,3696 C -1108,3696 -1119,3695 -1129,3692 C -1131,3689 -1134,3686 -1136,3683 A 18.37,18.37 0 0 1 -1140,3664 A 50.27,50.27 0 0 0 -1140,3631 A 19.15,19.15 0 0 1 -1141,3625 C -1141,3585 -1147,3546 -1145,3506 C -1145,3487 -1145,3469 -1145,3450 C -1145,3447 -1145,3443 -1145,3440 C -1146,3424 -1134,3411 -1116,3412 C -1113,3412 -1110,3412 -1106,3412 C -1089,3412 -1072,3412 -1054,3412 A 161.5,161.5 0 0 1 -1031,3415 C -1023,3416 -1016,3416 -1010,3412 Z"
       class="cls-20"
       inkscape:connector-curvature="0"
       style="fill:#3ea4a6" />
    <path
       id="path20536"
       transform="translate(3221,3148)"
       d="M -1196,3767 C -1196,3786 -1206,3801 -1225,3808 A 45.58,45.58 0 0 1 -1276,3795 C -1289,3780 -1290,3755 -1277,3738 C -1270,3729 -1261,3720 -1252,3712 A 36.39,36.39 0 0 1 -1225,3703 C -1213,3703 -1203,3711 -1202,3721 C -1199,3736 -1198,3750 -1196,3767 Z"
       class="cls-15"
       inkscape:connector-curvature="0"
       style="fill:#84eced" />
    <path
       id="path20538"
       transform="translate(3221,3148)"
       d="M 1195,3352 C 1212,3352 1223,3363 1223,3379 C 1222,3394 1208,3408 1193,3408 C 1178,3408 1167,3397 1167,3381 C 1166,3363 1177,3352 1195,3352 Z"
       class="cls-20"
       inkscape:connector-curvature="0"
       style="fill:#3ea4a6" />
    <path
       id="path20540"
       transform="translate(3221,3148)"
       d="M 995.1,3398 C 995.3,3413 981.9,3428 967.1,3428 C 952.7,3428 942.8,3416 942.8,3400 C 942.8,3382 953,3372 971,3372 C 985.5,3372 995,3382 995.1,3398 Z"
       class="cls-20"
       inkscape:connector-curvature="0"
       style="fill:#3ea4a6" />
    <path
       id="path20542"
       transform="translate(3221,3148)"
       d="M 1055,3374 C 1055,3356 1064,3345 1080,3345 C 1093,3344 1107,3359 1107,3372 C 1107,3386 1093,3400 1079,3400 C 1065,3400 1055,3388 1055,3374 Z"
       class="cls-20"
       inkscape:connector-curvature="0"
       style="fill:#3ea4a6" />
    <path
       id="path20544"
       transform="translate(3221,3148)"
       d="M 1346,3411 C 1345,3423 1330,3437 1319,3435 C 1307,3433 1295,3419 1296,3409 C 1297,3397 1312,3383 1323,3385 C 1335,3387 1347,3400 1346,3411 Z"
       class="cls-20"
       inkscape:connector-curvature="0"
       style="fill:#3ea4a6" />
    <path
       id="path20792"
       transform="translate(3221,3148)"
       d="M -509.5,3593 C -511.1,3599 -512.4,3610 -516.3,3619 C -526.1,3641 -551.4,3643 -565.8,3623 C -573.2,3613 -575.1,3601 -577,3589 C -581.7,3559 -581.3,3528 -580.6,3498 C -580.3,3484 -578.5,3471 -576.6,3458 C -575.8,3453 -573.5,3448 -570.8,3443 C -562.5,3429 -543.2,3427 -531.5,3439 C -525,3446 -522.7,3454 -521.5,3463 C -519.2,3478 -518.1,3493 -516.7,3508 C -514.3,3534 -512.2,3560 -509.9,3586 C -509.7,3587 -509.7,3588 -509.5,3593 Z"
       class="cls-20"
       inkscape:connector-curvature="0"
       style="fill:#3ea4a6" />
    <path
       id="path20794"
       transform="translate(3221,3148)"
       d="M -865.7,3577 C -864,3541 -862.6,3504 -860.6,3468 A 61.28,61.28 0 0 1 -856.3,3448 C -851.1,3436 -836.3,3433 -827.3,3443 C -823.1,3448 -819.3,3455 -817.9,3461 C -814.2,3476 -811.5,3492 -809.2,3508 C -803.9,3544 -804.7,3581 -804.5,3617 C -804.5,3623 -804.3,3628 -805.1,3633 A 29.9,29.9 0 0 1 -834.1,3659 A 22.31,22.31 0 0 1 -843.6,3657 C -856.8,3650 -864.4,3640 -864.9,3625 C -865.4,3609 -865,3593 -865,3577 Z"
       class="cls-20"
       inkscape:connector-curvature="0"
       style="fill:#3ea4a6" />
    <path
       id="path20796"
       transform="translate(3221,3148)"
       d="M -308.7,3527 C -308.2,3535 -311.3,3543 -317.1,3550 C -332.9,3569 -357.5,3568 -371,3547 C -377.8,3537 -379.2,3526 -372.4,3515 C -368.2,3509 -362.7,3502 -356.2,3498 C -337,3486 -306.8,3500 -308.7,3527 Z"
       class="cls-15"
       inkscape:connector-curvature="0"
       style="fill:#84eced" />
    <path
       id="path20798"
       transform="translate(3221,3148)"
       d="M 5.14,3556 C -14.67,3556 -28.86,3542 -28.94,3522 C -29.04,3502 -15.53,3488 4.47,3488 C 21.9,3488 38.38,3505 38.58,3523 C 38.72,3536 22,3559 5.14,3556 Z"
       class="cls-15"
       inkscape:connector-curvature="0"
       style="fill:#84eced" />
    <path
       id="path20800"
       transform="translate(3221,3148)"
       d="M 139.5,3514 C 139.5,3497 155.9,3481 172.5,3480 C 189.2,3480 205.5,3496 206,3513 C 206.4,3530 189.9,3547 173,3547 C 156,3547 139.6,3531 139.5,3514 Z"
       class="cls-15"
       inkscape:connector-curvature="0"
       style="fill:#84eced" />
    <path
       id="path20802"
       transform="translate(3221,3148)"
       d="M -140.7,3527 C -140.5,3546 -153.8,3560 -172.5,3560 C -191.2,3560 -204.9,3547 -205.3,3527 C -205.7,3508 -193,3494 -173.7,3494 C -156.5,3494 -138.3,3511 -140.7,3527 Z"
       class="cls-15"
       inkscape:connector-curvature="0"
       style="fill:#84eced" />
    <path
       id="path20804"
       transform="translate(3221,3148)"
       d="M 490.7,3476 C 509.4,3476 523.1,3490 522.7,3508 C 522.4,3526 508.7,3540 490.9,3540 C 472.3,3540 458.5,3526 458.6,3507 C 458.6,3487 469.9,3476 490.7,3476 Z"
       class="cls-15"
       inkscape:connector-curvature="0"
       style="fill:#84eced" />
    <path
       id="path20806"
       transform="translate(3221,3148)"
       d="M 351.4,3514 C 351.4,3533 337.4,3547 318.8,3546 C 301.8,3546 286.8,3529 287.2,3512 C 287.6,3494 303.2,3480 321.6,3480 C 335,3481 352.4,3493 351.4,3514 Z"
       class="cls-15"
       inkscape:connector-curvature="0"
       style="fill:#84eced" />
    <path
       id="path20808"
       transform="translate(3221,3148)"
       d="M 699.1,3498 C 698.9,3514 681.8,3532 667.6,3531 C 648.4,3529 633.6,3513 634.7,3497 C 635.9,3479 650.1,3463 667.7,3465 C 689.6,3466 699.9,3481 699.1,3498 Z"
       class="cls-15"
       inkscape:connector-curvature="0"
       style="fill:#84eced" />
  </g>
  <path
     class="cls-17"
     d="M 298,407.2 C 298,407.2 298,406.2 298,406.2 Q 298,394.2 298,382.2 C 298,382.2 298,381.2 298,381.2 C 301,380.2 304,381.2 307,381.2 C 307,381.2 307,382.2 307,382.2 Q 307,393.2 307,405.2 C 307,405.2 307,406.2 307,406.2 C 304,407.2 301,407.2 298,407.2 Z"
     id="path19390"
     inkscape:connector-curvature="0"
     style="fill:#067e6c;stroke-width:0.1845" />
  <path
     class="cls-17"
     d="M 298,306.2 C 298,306.2 298,305.2 298,305.2 Q 298,294.2 298,282.2 C 298,281.2 298,281.2 298,280.2 C 300,280.2 301,280.2 302,280.2 C 304,280.2 305,279.2 307,280.2 C 307,284.2 307,288.2 307,292.2 C 307,297.2 307,301.2 307,305.2 C 304,306.2 301,306.2 298,306.2 Z"
     id="path19392"
     inkscape:connector-curvature="0"
     style="fill:#067e6c;stroke-width:0.1845" />
  <path
     class="cls-16"
     d="M 307,60.18 L 298,61.18 C 297,58.18 298,56.18 297,53.18 C 297,51.18 297,48.18 297,45.18 C 297,43.18 297,40.18 297,38.18 C 298,37.18 299,37.18 300,37.18 C 302,37.18 304,37.18 306,37.18 C 307,40.18 307,53.18 307,60.18 Z"
     id="path19398"
     inkscape:connector-curvature="0"
     style="fill:#118473;stroke-width:0.1845" />
  <path
     class="cls-17"
     d="M 298,413.2 C 301,413.2 303,413.2 305,413.2 A 9.832,9.832 0 0 1 307,413.2 C 307,416.2 307,433.2 307,438.2 C 305,438.2 304,438.2 302,438.2 L 298,439.2 C 298,436.2 298,433.2 298,430.2 C 298,427.2 298,425.2 298,422.2 C 298,419.2 298,416.2 298,413.2 Z"
     id="path19400"
     inkscape:connector-curvature="0"
     style="fill:#067e6c;stroke-width:0.1845" />
  <path
     class="cls-16"
     d="M 307,115.2 C 304,115.2 301,116.2 298,115.2 C 297,112.2 297,96.18 298,92.18 C 298,92.18 299,92.18 300,92.18 C 302,92.18 304,92.18 305,92.18 C 307,92.18 307,93.18 307,94.18 C 307,95.18 307,97.18 307,98.18 C 307,104.2 307,109.2 307,115.2 Z"
     id="path19402"
     inkscape:connector-curvature="0"
     style="fill:#118473;stroke-width:0.1845" />
  <path
     class="cls-17"
     d="M 298,275.2 C 298,272.2 298,254.2 298,250.2 C 301,249.2 304,249.2 307,249.2 C 307,251.2 307,254.2 307,257.2 C 307,259.2 307,262.2 307,265.2 V 273.2 C 304,274.2 301,274.2 298,275.2 Z"
     id="path19404"
     inkscape:connector-curvature="0"
     style="fill:#067e6c;stroke-width:0.1845" />
  <path
     class="cls-16"
     d="M 298,33.18 C 297,30.18 297,15.18 298,10.18 A 45.02,45.02 0 0 1 306,10.18 C 307,13.18 307,28.18 306,32.18 A 36.55,36.55 0 0 1 298,33.18 Z"
     id="path19408"
     inkscape:connector-curvature="0"
     style="fill:#118473;stroke-width:0.1845" />
  <path
     class="cls-17"
     d="M 307,178.2 L 298,179.2 C 297,176.2 298,174.2 298,172.2 C 298,169.2 298,167.2 298,165.2 C 298,162.2 298,160.2 298,158.2 C 301,157.2 304,158.2 306,158.2 C 307,161.2 307,174.2 307,178.2 Z"
     id="path19414"
     inkscape:connector-curvature="0"
     style="fill:#067e6c;stroke-width:0.1845" />
  <path
     class="cls-16"
     d="M 298,86.18 C 297,84.18 297,70.18 298,66.18 C 300,66.18 303,66.18 306,66.18 C 307,69.18 307,81.18 307,85.18 C 304,86.18 302,86.18 298,86.18 Z"
     id="path19416"
     inkscape:connector-curvature="0"
     style="fill:#118473;stroke-width:0.1845" />
  <path
     class="cls-17"
     d="M 140,447.2 V 458.2 C 140,460.2 140,463.2 140,465.2 C 140,469.2 137,471.2 134,470.2 A 15.34,15.34 0 0 1 133,469.2 C 131,468.2 131,466.2 131,464.2 C 131,459.2 131,455.2 131,450.2 C 131,449.2 131,448.2 131,447.2 C 134,447.2 137,447.2 140,447.2 Z"
     id="path19418"
     inkscape:connector-curvature="0"
     style="fill:#067e6c;stroke-width:0.1845" />
  <path
     class="cls-17"
     d="M 140,441.2 L 132,442.2 C 131,440.2 131,437.2 131,435.2 C 131,432.2 131,430.2 131,428.2 C 131,425.2 131,423.2 131,420.2 C 134,420.2 137,420.2 140,420.2 C 140,423.2 140,437.2 140,441.2 Z"
     id="path19420"
     inkscape:connector-curvature="0"
     style="fill:#067e6c;stroke-width:0.1845" />
  <g
     id="g30217"
     transform="matrix(0.1213,0,0,0.1213,-141,-177.8)">
    <path
       style="fill:#157778"
       inkscape:connector-curvature="0"
       id="path19196"
       d="M 3140,3676 C 3147,3676 3154,3677 3160,3678 C 3199,3681 3237,3683 3276,3687 C 3303,3690 3330,3695 3357,3699 Q 3413,3709 3469,3719 A 317.5,317.5 0 0 1 3502,3727 A 160.8,160.8 0 0 1 3524,3736 C 3537,3742 3544,3753 3544,3768 C 3545,3785 3546,3802 3547,3820 C 3548,3833 3546,3845 3530,3849 C 3530,3860 3529,3870 3530,3880 C 3531,3924 3533,3969 3535,4013 C 3535,4015 3535,4016 3535,4017 C 3535,4039 3529,4045 3507,4047 C 3457,4052 3407,4057 3357,4061 C 3314,4065 3270,4068 3226,4071 C 3195,4073 3163,4076 3132,4077 C 3120,4078 3107,4078 3094,4078 C 3086,4070 3082,4060 3080,4048 C 3069,3987 3058,3926 3048,3865 C 3046,3859 3045,3852 3044,3846 C 3029,3842 2964,3842 2937,3845 C 2932,3856 2932,3870 2930,3883 C 2919,3938 2910,3993 2900,4048 A 79.17,79.17 0 0 1 2897,4060 C 2893,4072 2884,4079 2870,4079 C 2843,4077 2816,4075 2789,4073 C 2763,4072 2738,4069 2713,4068 C 2654,4063 2596,4059 2537,4054 C 2514,4052 2491,4050 2468,4047 C 2462,4046 2457,4044 2452,4043 C 2443,4031 2446,4019 2444,4007 Q 2444,4001 2445,3995 C 2446,3978 2447,3961 2448,3943 C 2449,3913 2450,3882 2451,3851 L 2438,3844 A 37.62,37.62 0 0 1 2433,3822 C 2434,3802 2435,3782 2436,3762 C 2438,3747 2446,3737 2461,3733 C 2496,3721 2532,3714 2568,3708 C 2606,3702 2644,3696 2682,3690 C 2688,3689 2695,3688 2702,3687 C 2742,3683 2782,3678 2823,3678 C 2829,3677 2835,3676 2841,3675 H 2853 C 2861,3675 2870,3675 2878,3675 Q 2998,3675 3119,3675 C 3122,3675 3125,3675 3129,3675 Z M 2487,4008 C 2500,4008 2513,4010 2526,4011 C 2545,4011 2563,4011 2582,4012 C 2613,4014 2644,4017 2676,4019 C 2702,4021 2729,4022 2755,4024 C 2780,4026 2806,4029 2831,4030 C 2838,4031 2845,4032 2852,4030 C 2853,4028 2855,4027 2855,4026 C 2866,3946 2875,3865 2891,3786 C 2889,3785 2887,3784 2885,3784 C 2869,3785 2854,3787 2838,3788 C 2793,3792 2747,3796 2702,3798 C 2658,3801 2615,3802 2571,3802 C 2547,3803 2523,3806 2499,3809 C 2495,3810 2490,3811 2485,3812 C 2485,3875 2485,3937 2485,3998 C 2485,4001 2486,4003 2487,4008 Z M 3494,4007 C 3495,4000 3496,3995 3495,3990 C 3493,3937 3493,3885 3495,3832 C 3495,3825 3497,3818 3493,3810 C 3465,3807 3437,3803 3409,3802 C 3389,3802 3368,3800 3347,3800 Q 3263,3799 3180,3791 C 3153,3789 3126,3786 3098,3784 C 3095,3784 3092,3785 3089,3785 C 3094,3813 3099,3840 3103,3867 C 3107,3894 3111,3922 3115,3950 C 3119,3977 3121,4004 3127,4031 C 3133,4031 3137,4031 3142,4031 Q 3177,4029 3211,4026 C 3258,4023 3304,4019 3351,4016 C 3388,4013 3425,4012 3463,4010 C 3472,4010 3482,4008 3494,4007 Z M 3507,3769 C 3509,3763 3511,3758 3511,3752 C 3512,3750 3510,3747 3508,3746 C 3505,3744 3502,3744 3498,3743 C 3469,3737 3440,3730 3410,3726 C 3372,3721 3333,3714 3294,3708 A 350.1,350.1 0 0 0 3259,3704 C 3236,3703 3212,3702 3189,3700 C 3145,3698 3101,3697 3058,3696 C 2996,3695 2935,3695 2874,3698 C 2823,3700 2772,3703 2720,3704 A 75.2,75.2 0 0 0 2710,3705 C 2697,3707 2684,3709 2671,3711 C 2640,3715 2608,3719 2576,3724 C 2549,3729 2522,3734 2494,3740 C 2486,3742 2477,3742 2470,3747 C 2469,3761 2469,3761 2475,3770 C 2486,3768 2498,3765 2510,3764 C 2536,3760 2563,3758 2589,3755 C 2602,3753 2614,3751 2627,3750 C 2645,3747 2663,3745 2682,3743 C 2703,3741 2724,3740 2746,3738 C 2772,3736 2798,3733 2825,3732 C 2876,3730 2927,3726 2978,3727 C 3020,3728 3062,3727 3104,3730 C 3135,3732 3165,3733 3196,3735 C 3219,3737 3242,3738 3265,3740 C 3290,3742 3316,3745 3341,3747 C 3344,3748 3347,3748 3350,3749 C 3366,3751 3382,3753 3398,3755 C 3416,3757 3433,3759 3451,3762 C 3469,3764 3488,3767 3507,3769 Z"
       class="cls-2" />
    <path
       style="fill:#95fdda"
       inkscape:connector-curvature="0"
       id="path20548"
       d="M 2487,4008 C 2486,4004 2485,4001 2485,3998 C 2485,3937 2485,3875 2485,3812 C 2490,3811 2495,3810 2499,3809 C 2523,3806 2547,3803 2571,3802 C 2615,3801 2658,3800 2702,3798 C 2747,3796 2793,3792 2838,3788 C 2854,3787 2869,3785 2885,3784 C 2887,3784 2889,3785 2891,3786 C 2875,3865 2866,3946 2855,4026 C 2855,4027 2853,4028 2852,4030 C 2845,4032 2838,4031 2831,4030 C 2806,4028 2780,4026 2755,4024 C 2729,4022 2702,4021 2676,4019 C 2644,4017 2613,4014 2582,4012 C 2563,4011 2545,4011 2526,4010 C 2513,4010 2500,4008 2487,4008 Z M 2820,3966 C 2820,3958 2818,3952 2811,3944 C 2800,3932 2789,3920 2778,3907 C 2758,3885 2735,3864 2713,3842 C 2709,3838 2704,3835 2699,3833 C 2695,3831 2691,3832 2687,3834 C 2680,3841 2677,3850 2683,3859 C 2691,3870 2699,3881 2707,3891 C 2720,3908 2734,3924 2747,3941 C 2757,3955 2770,3966 2782,3979 C 2784,3981 2787,3982 2790,3984 C 2803,3990 2820,3980 2820,3966 Z M 2832,3892 C 2829,3881 2823,3874 2815,3869 C 2804,3860 2794,3852 2782,3843 A 46.76,46.76 0 0 0 2770,3837 C 2769,3836 2765,3838 2764,3839 A 6,6 0 0 0 2762,3844 A 45.7,45.7 0 0 0 2767,3855 C 2774,3866 2781,3877 2789,3888 A 85,85 0 0 0 2802,3903 C 2805,3905 2809,3906 2813,3907 C 2824,3909 2828,3901 2832,3892 Z"
       class="cls-19" />
    <path
       style="fill:#95fdda"
       inkscape:connector-curvature="0"
       id="path20550"
       d="M 3494,4007 C 3482,4008 3472,4010 3462,4010 C 3425,4012 3388,4013 3351,4016 C 3304,4019 3258,4023 3211,4026 Q 3177,4029 3142,4031 C 3137,4031 3133,4031 3127,4031 C 3121,4004 3119,3977 3115,3950 C 3111,3922 3107,3894 3103,3867 C 3099,3840 3094,3813 3089,3785 C 3092,3785 3095,3784 3098,3784 C 3126,3786 3153,3789 3180,3791 Q 3263,3799 3347,3800 C 3368,3800 3389,3802 3409,3802 C 3437,3803 3465,3807 3493,3810 C 3497,3818 3495,3825 3495,3832 C 3493,3885 3493,3937 3495,3990 C 3496,3995 3495,4000 3494,4007 Z M 3260,3832 C 3251,3842 3250,3849 3257,3857 C 3275,3878 3291,3901 3311,3920 C 3318,3927 3324,3935 3331,3942 C 3338,3951 3345,3960 3356,3965 C 3366,3969 3375,3968 3381,3960 C 3389,3950 3390,3941 3382,3931 A 50.68,50.68 0 0 0 3375,3925 C 3368,3919 3362,3913 3355,3908 C 3351,3904 3348,3900 3344,3897 C 3329,3885 3315,3873 3301,3861 C 3291,3853 3282,3845 3272,3837 C 3268,3835 3264,3833 3260,3832 Z M 3445,3893 C 3445,3881 3443,3878 3433,3872 C 3414,3859 3395,3846 3377,3831 C 3373,3827 3367,3825 3361,3823 C 3350,3821 3342,3832 3346,3842 C 3349,3849 3353,3857 3358,3862 C 3372,3878 3387,3892 3402,3906 A 31.36,31.36 0 0 0 3421,3915 C 3438,3917 3446,3907 3445,3893 Z"
       class="cls-19" />
    <path
       style="fill:#50daa2"
       inkscape:connector-curvature="0"
       id="path20552"
       d="M 3507,3769 C 3488,3767 3469,3764 3451,3762 C 3433,3760 3416,3757 3398,3755 C 3382,3753 3366,3751 3350,3749 C 3347,3748 3344,3748 3341,3747 C 3316,3745 3290,3742 3265,3740 C 3242,3738 3219,3737 3196,3735 C 3165,3733 3135,3732 3104,3730 C 3062,3727 3020,3729 2978,3727 C 2927,3726 2876,3730 2825,3732 C 2798,3733 2772,3736 2746,3739 C 2724,3740 2703,3741 2682,3743 C 2663,3745 2645,3748 2627,3750 C 2614,3751 2602,3753 2589,3755 C 2563,3758 2536,3760 2510,3764 C 2498,3765 2486,3768 2475,3770 C 2469,3761 2469,3761 2470,3748 C 2477,3742 2486,3742 2494,3740 C 2522,3734 2549,3729 2576,3724 C 2608,3719 2640,3715 2671,3711 C 2684,3709 2697,3707 2710,3705 A 75.2,75.2 0 0 1 2720,3704 C 2772,3703 2823,3700 2874,3698 C 2935,3695 2996,3696 3058,3696 C 3101,3697 3145,3698 3189,3700 C 3212,3702 3236,3703 3259,3704 A 350.1,350.1 0 0 1 3294,3708 C 3333,3714 3372,3721 3410,3726 C 3440,3730 3469,3737 3498,3743 C 3502,3744 3505,3744 3508,3746 C 3510,3747 3512,3750 3511,3752 C 3511,3758 3509,3763 3507,3769 Z"
       class="cls-22" />
    <path
       style="fill:#c6ffe8"
       inkscape:connector-curvature="0"
       id="path20832"
       d="M 2820,3966 C 2820,3980 2803,3990 2790,3984 C 2787,3982 2784,3981 2782,3979 C 2770,3966 2757,3955 2747,3941 C 2734,3924 2720,3908 2707,3891 C 2699,3881 2691,3870 2683,3859 C 2678,3850 2680,3841 2687,3834 C 2691,3832 2695,3830 2699,3833 C 2704,3835 2709,3838 2713,3842 C 2735,3864 2758,3885 2778,3907 C 2789,3920 2800,3932 2811,3944 C 2818,3952 2820,3958 2820,3966 Z"
       class="cls-28" />
    <path
       style="fill:#c6ffe8"
       inkscape:connector-curvature="0"
       id="path20834"
       d="M 2832,3892 C 2828,3901 2824,3909 2813,3907 C 2809,3906 2805,3905 2802,3903 A 85,85 0 0 1 2789,3888 C 2781,3877 2774,3866 2767,3855 A 45.7,45.7 0 0 1 2762,3844 A 6,6 0 0 1 2764,3839 C 2765,3838 2769,3836 2770,3837 A 46.76,46.76 0 0 1 2782,3843 C 2793,3852 2804,3860 2815,3869 C 2823,3875 2829,3881 2832,3892 Z"
       class="cls-28" />
    <path
       style="fill:#c6ffe8"
       inkscape:connector-curvature="0"
       id="path20836"
       d="M 3260,3832 C 3264,3833 3268,3835 3272,3837 C 3282,3845 3291,3853 3301,3861 C 3315,3873 3329,3885 3344,3897 C 3348,3900 3351,3904 3355,3908 C 3362,3913 3368,3919 3375,3925 A 50.68,50.68 0 0 1 3382,3931 C 3390,3941 3389,3950 3381,3960 C 3375,3968 3366,3969 3356,3965 C 3345,3960 3338,3951 3331,3942 C 3324,3935 3318,3927 3311,3920 C 3291,3901 3275,3878 3257,3857 C 3250,3849 3251,3842 3260,3832 Z"
       class="cls-28" />
    <path
       style="fill:#c6ffe8"
       inkscape:connector-curvature="0"
       id="path20838"
       d="M 3445,3893 C 3446,3907 3438,3917 3421,3915 A 31.36,31.36 0 0 1 3402,3906 C 3387,3892 3372,3877 3358,3862 C 3353,3857 3349,3849 3346,3842 C 3342,3831 3350,3821 3361,3823 C 3367,3825 3373,3827 3377,3831 C 3395,3846 3414,3859 3433,3872 C 3443,3878 3445,3881 3445,3893 Z"
       class="cls-28" />
  </g>
  <g
     id="g30238"
     transform="matrix(0.1326,0,0,0.1217,-329,-467.8)">
    <path
       id="path19194"
       transform="translate(3221,3148)"
       d="M 543.9,2020 C 544.6,1995 541,1970 537.1,1945 C 535,1931 532.4,1918 536.5,1904 C 537.8,1903 538.5,1902 539.5,1901 C 557.6,1894 559.9,1895 572.4,1908 C 577.3,1913 581.5,1919 585.9,1925 C 589.9,1930 593.6,1935 597.5,1941 C 601.4,1949 606.3,1956 614.5,1963 C 615.5,1954 612.8,1947 610.4,1940 C 606.9,1917 604.4,1893 598.2,1869 C 602.3,1858 610.3,1850 622.1,1843 C 638.6,1834 654.4,1823 670.9,1813 C 686.6,1804 704.3,1798 721.3,1791 C 726.7,1789 731.8,1790 735.6,1795 A 168.4,168.4 0 0 1 747.2,1811 C 754.8,1823 761.9,1836 769.3,1849 C 774.1,1861 780,1873 791.3,1885 C 788.6,1870 788.1,1859 783.4,1848 C 782.3,1828 776.9,1809 771.7,1789 C 766,1768 768.3,1764 789.4,1758 C 816.4,1751 843.4,1744 869,1732 C 879.4,1728 886.7,1731 892.2,1741 A 57.22,57.22 0 0 1 894.6,1746 Q 915.7,1794 936.9,1843 C 937.1,1843 937.8,1844 938.3,1844 C 938.6,1851 941.2,1857 947.3,1865 C 947.4,1856 947.5,1850 947.6,1844 C 948.6,1834 950.2,1823 950.5,1813 C 951.1,1783 951.1,1754 951.4,1725 C 951.4,1720 951.2,1716 951.9,1711 C 953.2,1703 959.4,1699 966.7,1697 C 973.4,1695 978.7,1698 982.3,1703 C 987.3,1710 991.7,1717 996.1,1725 C 1004,1738 1011,1751 1019,1764 A 93.12,93.12 0 0 0 1031,1794 C 1032,1782 1032,1774 1030,1765 C 1029,1752 1029,1739 1028,1725 C 1026,1713 1027,1702 1036,1690 C 1044,1688 1053,1685 1063,1683 C 1083,1678 1103,1674 1123,1669 A 24.73,24.73 0 0 1 1140,1672 C 1148,1675 1156,1678 1164,1681 C 1191,1691 1216,1706 1239,1723 C 1246,1728 1250,1736 1251,1745 C 1253,1769 1256,1793 1258,1816 C 1260,1844 1261,1871 1262,1898 C 1262,1901 1263,1905 1263,1908 V 1916 Q 1261,1985 1259,2054 A 1625,1625 0 0 1 1244,2225 C 1241,2252 1238,2279 1235,2306 C 1231,2345 1224,2383 1213,2420 C 1213,2422 1212,2424 1211,2425 C 1208,2434 1203,2437 1195,2436 C 1185,2434 1175,2432 1165,2430 C 1146,2427 1126,2423 1106,2420 C 1098,2419 1089,2420 1081,2421 C 1035,2428 989.5,2440 944.5,2452 C 881.5,2469 819.2,2488 758.5,2512 A 1381,1381 0 0 0 534.5,2625 C 510.3,2640 485.9,2655 462.3,2671 C 453.8,2677 444.9,2678 435.8,2678 C 424.8,2677 415,2675 411.5,2662 C 410,2656 406,2651 403.1,2646 C 392.5,2627 382.6,2608 371.2,2589 C 356.5,2565 342.6,2541 325,2519 C 314.5,2506 305.8,2491 295.7,2478 C 289.5,2469 280.9,2463 275.8,2454 C 266.7,2438 250.3,2429 242.7,2412 C 241.6,2410 239.3,2408 237.4,2406 C 219.3,2389 201.3,2371 182.9,2354 C 174.1,2345 171.9,2336 175.9,2325 C 185.3,2299 198.2,2275 216.6,2254 C 225.2,2244 232.1,2233 240.3,2223 C 246.6,2215 253.8,2208 260.7,2201 C 262.5,2199 265.5,2198 266.9,2196 C 277.2,2179 291.7,2167 306.4,2155 C 317.9,2145 331.5,2142 344.6,2150 C 352.6,2155 360,2160 367.7,2166 C 375,2171 380.4,2179 389.7,2181 C 391.2,2183 393,2185 395.3,2183 C 395.9,2182 394.5,2180 394,2178 L 384.2,2164 C 382.8,2159 381.8,2155 379.8,2151 A 227.3,227.3 0 0 0 367.6,2128 C 356.9,2111 361.6,2096 372.8,2082 C 379.3,2074 388.4,2068 396.3,2061 C 399.3,2058 402.6,2056 405.3,2053 C 416.5,2042 427.5,2031 438.7,2019 A 28.28,28.28 0 0 1 446.6,2013 C 456.9,2008 462.7,2000 466.6,1990 C 469.3,1983 473.8,1979 481.4,1976 C 492.6,1972 500.9,1974 507.7,1983 Q 516,1994 524,2006 C 527.4,2011 530.6,2015 533.9,2020 C 536.5,2026 538.6,2031 544.6,2034 C 546.4,2029 546.7,2024 543.9,2020 Z M 1106,2371 C 1108,2359 1110,2347 1111,2336 C 1112,2314 1117,2292 1115,2269 C 1115,2267 1116,2265 1116,2263 C 1117,2254 1118,2246 1119,2237 C 1119,2233 1119,2229 1120,2225 C 1124,2213 1123,2200 1123,2188 C 1123,2161 1123,2134 1123,2108 C 1123,2102 1123,2097 1124,2092 C 1127,2082 1127,2072 1127,2062 Q 1127,1918 1127,1774 C 1127,1769 1127,1763 1127,1758 A 59,59 0 0 1 1133,1741 C 1136,1735 1143,1735 1148,1740 C 1154,1745 1158,1751 1158,1759 C 1159,1777 1164,1794 1163,1812 C 1162,1823 1164,1835 1164,1846 C 1165,1854 1167,1862 1167,1870 C 1167,1887 1165,1905 1168,1922 C 1172,1950 1170,1979 1171,2007 C 1171,2012 1172,2017 1170,2021 C 1166,2036 1167,2052 1167,2067 C 1167,2100 1167,2132 1167,2165 C 1167,2170 1168,2176 1166,2181 C 1162,2195 1163,2210 1163,2225 A 87.85,87.85 0 0 1 1162,2237 C 1158,2258 1157,2280 1155,2302 C 1154,2310 1153,2319 1152,2327 C 1150,2344 1152,2361 1148,2377 C 1146,2382 1151,2387 1157,2387 C 1164,2388 1170,2388 1176,2388 A 30.58,30.58 0 0 0 1183,2370 C 1184,2363 1185,2356 1186,2348 C 1188,2334 1190,2319 1191,2305 C 1193,2288 1193,2270 1196,2253 C 1199,2241 1198,2228 1200,2216 C 1202,2201 1205,2186 1207,2171 C 1209,2149 1210,2128 1211,2107 C 1211,2105 1211,2103 1212,2101 C 1216,2089 1215,2077 1215,2065 C 1215,2047 1215,2029 1215,2011 C 1215,2005 1216,2000 1217,1994 C 1217,1986 1219,1979 1219,1972 Q 1219,1893 1219,1814 C 1219,1809 1218,1803 1218,1798 C 1217,1790 1216,1782 1215,1774 C 1215,1767 1215,1760 1215,1752 C 1217,1740 1211,1733 1200,1728 C 1187,1722 1174,1716 1162,1709 C 1154,1705 1146,1702 1137,1706 A 10.09,10.09 0 0 1 1130,1707 C 1124,1704 1119,1706 1114,1707 C 1104,1709 1095,1711 1085,1713 C 1075,1714 1066,1717 1056,1719 C 1055,1724 1055,1729 1055,1733 C 1055,1757 1056,1781 1055,1805 C 1054,1830 1052,1854 1051,1879 C 1051,1886 1050,1892 1046,1898 A 13.06,13.06 0 0 1 1027,1901 C 1022,1898 1020,1893 1019,1887 C 1015,1867 1011,1847 1007,1827 C 1002,1803 993.9,1781 984.3,1759 C 982.8,1756 982,1751 975.7,1752 C 975.5,1755 975.1,1759 975.1,1763 C 975,1792 975.5,1822 974.8,1851 C 974.2,1871 972.2,1891 970.4,1911 A 230.1,230.1 0 0 1 966.6,1934 C 965,1942 958.6,1947 951.4,1948 C 945.2,1948 938.8,1943 936.1,1937 C 935.6,1936 935.6,1934 935.1,1933 C 927.9,1910 921.6,1887 913.2,1865 C 900.6,1831 886.6,1798 873.1,1765 C 869.4,1764 866.6,1764 864.3,1764 Q 835.1,1774 806,1785 C 800.5,1787 798.4,1791 799.4,1798 C 800.8,1807 802.3,1816 804.2,1825 C 811.3,1860 819,1895 825.7,1930 C 827.4,1939 827.1,1949 826.5,1958 C 826.2,1965 821.5,1969 815.3,1971 C 810.1,1973 806.3,1969 803,1966 A 51.44,51.44 0 0 1 795.6,1957 C 782.2,1933 768.7,1909 755.8,1885 C 746.7,1868 738.5,1851 729.6,1833 C 727.3,1829 724.1,1825 720.8,1820 C 713.8,1823 707.4,1825 701.9,1829 C 680,1843 658.5,1857 636.4,1871 C 628.1,1876 626,1882 627.7,1891 C 632.3,1914 637.2,1936 642.1,1959 C 644.7,1971 648.1,1983 650.1,1996 C 651.2,2003 651.1,2011 650.5,2018 C 649.9,2024 645.5,2029 639.5,2031 C 634.3,2033 630.3,2030 627.1,2026 C 617.1,2015 607.5,2004 597.6,1994 C 588.8,1984 583.1,1972 571.4,1962 C 571.4,1967 570.6,1970 571.5,1973 C 575.6,1986 574.7,1998 575.1,2011 C 575.2,2015 574.7,2019 575.8,2023 C 581.3,2042 578.5,2061 578.8,2081 C 578.9,2086 577.1,2091 574.6,2096 A 12.72,12.72 0 0 1 555.8,2100 A 80.51,80.51 0 0 1 539,2083 C 524,2063 509.6,2042 498.5,2019 C 497.2,2017 494.3,2015 491.4,2012 C 482.3,2019 473.3,2024 465.8,2032 C 444.6,2052 423.9,2073 403.2,2094 C 393.1,2104 392.7,2108 399.1,2120 C 411.6,2143 424.2,2167 436.3,2191 A 311.7,311.7 0 0 1 452.2,2227 C 454.5,2234 454.9,2242 454.7,2249 A 11.29,11.29 0 0 1 439,2259 A 50.63,50.63 0 0 1 422.3,2249 C 398.8,2226 370.7,2209 344.8,2189 C 334.9,2182 331,2182 322.4,2191 C 313.1,2201 305.1,2211 295.7,2221 C 271.5,2245 249.8,2271 228.4,2297 C 221.5,2305 213.4,2314 211.6,2326 C 213.4,2327 214.6,2329 216.1,2330 A 458.1,458.1 0 0 1 261.9,2369 C 293.3,2399 320.7,2432 346.9,2466 C 379.2,2509 408,2554 431.6,2601 C 436.6,2612 441.6,2622 447,2632 C 448.8,2635 452,2637 454.1,2639 C 456.7,2638 458.1,2638 459.1,2637 C 485.2,2618 511.1,2598 537.3,2579 C 566.2,2557 598,2540 629.5,2523 C 683.4,2494 739.1,2468 797.4,2449 Q 853.2,2431 909.5,2413 C 928.5,2407 948,2403 967.2,2398 C 1012,2386 1057,2372 1106,2371 Z"
       class="cls-2"
       inkscape:connector-curvature="0"
       style="fill:#157778" />
    <path
       id="path20546"
       transform="translate(3221,3148)"
       d="M 1106,2371 C 1057,2372 1012,2386 967.2,2398 C 948,2403 928.5,2407 909.5,2413 Q 853.3,2431 797.4,2449 C 739.1,2468 683.4,2494 629.6,2523 C 598,2540 566.3,2557 537.3,2579 C 511.2,2598 485.2,2618 459.2,2637 C 458.2,2638 456.8,2638 454.2,2639 C 452,2637 448.8,2635 447.1,2632 C 441.6,2622 436.6,2612 431.6,2601 C 408,2553 379.2,2509 347,2466 C 320.8,2432 293.3,2399 262,2369 A 458.1,458.1 0 0 0 216.1,2330 C 214.6,2329 213.4,2327 211.6,2326 C 213.4,2314 221.5,2305 228.5,2297 C 249.9,2271 271.5,2245 295.7,2221 C 305.2,2211 313.1,2201 322.4,2191 C 331,2182 334.9,2182 344.9,2189 C 370.7,2209 398.8,2226 422.3,2249 A 50.63,50.63 0 0 0 439,2259 A 11.29,11.29 0 0 0 454.7,2249 C 454.9,2242 454.5,2234 452.1,2227 A 311.7,311.7 0 0 0 436.2,2191 C 424.2,2167 411.5,2143 399.1,2120 C 392.7,2108 393.1,2104 403.2,2094 C 423.9,2073 444.5,2052 465.7,2032 C 473.2,2024 482.2,2019 491.3,2012 C 494.3,2015 497.1,2017 498.4,2019 C 509.5,2042 523.9,2063 538.9,2083 A 80.51,80.51 0 0 0 555.8,2100 A 12.72,12.72 0 0 0 574.6,2096 C 577.1,2091 578.9,2086 578.8,2081 C 578.4,2061 581.3,2042 575.8,2023 C 574.7,2019 575.2,2015 575.1,2011 C 574.7,1998 575.6,1986 571.5,1973 C 570.5,1971 571.4,1967 571.4,1962 C 583.1,1972 588.8,1984 597.6,1994 C 607.5,2005 617.1,2016 627.1,2026 C 630.3,2030 634.3,2033 639.5,2031 C 645.5,2029 649.9,2024 650.5,2018 C 651,2011 651.2,2003 650.1,1996 C 648.1,1984 644.7,1971 642.1,1959 C 637.2,1936 632.3,1914 627.7,1891 C 626,1883 628.1,1876 636.4,1871 C 658.5,1857 680,1843 701.9,1829 C 707.4,1825 713.8,1823 720.8,1820 C 724.1,1825 727.3,1829 729.6,1834 C 738.5,1851 746.6,1868 755.8,1885 C 768.7,1909 782.2,1933 795.6,1957 A 51.44,51.44 0 0 0 803,1966 C 806.3,1970 810.1,1973 815.3,1971 C 821.5,1969 826.2,1965 826.5,1958 C 827.1,1949 827.4,1940 825.7,1931 C 819,1895 811.3,1860 804.2,1825 C 802.3,1816 800.8,1807 799.4,1798 C 798.4,1792 800.5,1787 806,1785 Q 835.1,1774 864.3,1764 C 866.6,1764 869.4,1765 873.1,1765 C 886.6,1798 900.6,1831 913.2,1865 C 921.6,1887 927.9,1910 935.1,1933 C 935.5,1934 935.6,1936 936.1,1937 C 938.8,1943 945.2,1948 951.4,1948 C 958.6,1948 965,1942 966.6,1934 A 230.1,230.1 0 0 0 970.4,1911 C 972.2,1891 974.2,1871 974.8,1851 C 975.5,1822 975,1792 975.1,1763 C 975.1,1759 975.5,1755 975.7,1752 C 982,1751 982.8,1756 984.3,1759 C 993.9,1781 1002,1804 1007,1827 C 1011,1847 1015,1867 1019,1888 C 1020,1893 1022,1898 1027,1901 A 13.06,13.06 0 0 0 1046,1898 C 1050,1892 1051,1886 1051,1879 C 1052,1855 1054,1830 1055,1805 C 1056,1781 1055,1757 1055,1733 C 1055,1729 1055,1724 1056,1719 C 1066,1717 1075,1714 1085,1713 C 1095,1711 1104,1710 1114,1707 C 1119,1706 1124,1704 1130,1707 A 10.09,10.09 0 0 0 1137,1707 C 1146,1702 1154,1705 1162,1709 C 1174,1716 1187,1722 1200,1728 C 1211,1733 1217,1740 1215,1752 C 1215,1760 1215,1767 1215,1774 C 1216,1782 1217,1790 1218,1798 C 1218,1803 1219,1809 1219,1814 Q 1219,1893 1219,1972 C 1219,1979 1217,1986 1217,1994 C 1216,2000 1215,2006 1215,2012 C 1215,2030 1215,2048 1215,2066 C 1215,2078 1216,2090 1212,2101 C 1211,2103 1211,2105 1211,2107 C 1210,2128 1209,2150 1207,2171 C 1205,2186 1202,2201 1200,2216 C 1198,2228 1199,2241 1196,2254 C 1193,2270 1193,2288 1191,2305 C 1190,2319 1188,2334 1186,2348 C 1185,2356 1184,2363 1183,2370 A 30.58,30.58 0 0 1 1176,2388 C 1170,2388 1164,2388 1157,2388 C 1151,2387 1146,2382 1148,2377 C 1152,2361 1150,2344 1152,2327 C 1153,2319 1154,2310 1155,2302 C 1157,2280 1158,2258 1162,2237 A 87.85,87.85 0 0 0 1163,2225 C 1163,2210 1162,2195 1166,2181 C 1168,2176 1167,2170 1167,2165 C 1167,2132 1167,2100 1167,2067 C 1167,2052 1166,2036 1170,2021 C 1172,2017 1171,2012 1171,2007 C 1170,1979 1172,1950 1168,1922 C 1165,1905 1167,1887 1167,1870 C 1167,1862 1165,1854 1164,1846 C 1164,1835 1162,1823 1163,1812 C 1164,1794 1159,1777 1158,1759 C 1158,1751 1154,1745 1148,1740 C 1143,1735 1136,1736 1133,1741 A 59,59 0 0 0 1127,1758 C 1127,1763 1127,1769 1127,1774 Q 1127,1918 1127,2062 C 1127,2072 1127,2082 1124,2092 C 1123,2097 1123,2102 1123,2108 C 1123,2134 1123,2161 1123,2188 C 1123,2200 1124,2213 1120,2225 C 1119,2229 1119,2233 1119,2237 C 1118,2246 1117,2254 1116,2263 C 1116,2265 1115,2267 1115,2269 C 1117,2292 1112,2314 1111,2336 C 1110,2347 1108,2359 1106,2371 Z M 866.9,1872 L 865.4,1871 L 867,1872 C 867.9,1878 868.2,1884 869.6,1890 C 883.9,1948 897.9,2007 907.8,2066 C 914.9,2110 922.1,2153 927.3,2196 C 928.9,2209 932.1,2222 933.9,2235 C 935.9,2250 937.2,2264 939,2279 C 940.2,2288 941.3,2297 943.3,2306 C 945.1,2314 950.9,2317 960.1,2316 C 967.3,2315 971.2,2310 970.8,2302 A 68.32,68.32 0 0 0 969,2292 C 967.1,2283 964.8,2274 963.3,2265 C 957.5,2230 952.8,2195 946,2161 C 937.7,2118 928.7,2075 918.1,2033 C 907.7,1991 895.5,1949 883,1908 C 879.3,1896 876.5,1882 866.9,1872 Z M 307.8,2337 C 301.6,2334 299.2,2334 297.3,2332 C 290.3,2327 283.7,2322 276.5,2317 C 269.3,2312 265.7,2312 262.1,2316 C 258.6,2319 259.8,2322 265.8,2329 C 281.8,2348 297.8,2366 313.3,2385 C 332,2408 350.6,2432 368.6,2456 C 383,2475 396.5,2494 410,2514 C 421.6,2531 432.7,2548 444,2565 C 448.3,2572 454.7,2573 461.6,2572 C 468.7,2570 470.9,2565 471.2,2558 C 471.3,2556 469.7,2552 475.6,2551 C 477.3,2554 478.9,2557 480.9,2559 A 73.13,73.13 0 0 0 489.1,2568 C 495,2573 500.9,2572 506.5,2567 C 511.2,2562 512.4,2556 509.7,2550 A 174.2,174.2 0 0 0 498.2,2529 A 949,949 0 0 0 431.1,2438 C 413.8,2417 397.6,2395 379.3,2375 C 358.2,2352 335.4,2330 313.2,2308 A 61.66,61.66 0 0 0 300.5,2299 C 293.2,2295 286.2,2295 284.3,2299 C 281.6,2305 286.7,2309 290,2313 C 295.4,2319 303.2,2324 307.8,2337 Z M 893.8,2376 C 899.1,2376 902.3,2373 904.5,2369 C 907.4,2363 906.7,2357 904.8,2351 C 897.8,2330 891.8,2308 884.3,2287 C 871.2,2250 856.7,2214 843.9,2177 C 825.3,2123 800.9,2072 777.1,2021 C 761.9,1989 744.3,1957 727.5,1926 C 724.4,1920 720.1,1915 715.9,1910 C 715.1,1909 711.9,1909 710.5,1909 C 709.1,1910 708,1912 707.8,1914 C 707.6,1916 708.4,1918 709.2,1920 C 713.6,1930 718.1,1941 722.6,1951 Q 748.3,2010 773.9,2070 C 797.8,2125 817.9,2182 838,2239 C 851.1,2276 863.5,2313 872.9,2351 C 874.3,2357 876.8,2363 879.2,2368 C 881.9,2374 887.1,2377 893.8,2376 Z M 1095,2287 C 1094,2266 1093,2241 1090,2216 A 393.7,393.7 0 0 1 1087,2176 A 73.23,73.23 0 0 0 1086,2168 C 1084,2151 1081,2134 1079,2117 C 1077,2102 1076,2088 1074,2073 Q 1072,2058 1070,2042 C 1066,2024 1063,2006 1059,1987 C 1055,1969 1051,1951 1046,1933 C 1046,1931 1042,1929 1040,1929 C 1039,1929 1036,1932 1036,1934 C 1035,1951 1035,1968 1036,1984 C 1038,2005 1041,2025 1043,2045 C 1045,2067 1046,2089 1047,2111 A 14.72,14.72 0 0 0 1048,2115 C 1052,2127 1051,2140 1051,2152 C 1051,2158 1050,2165 1052,2170 C 1056,2183 1055,2197 1055,2210 C 1055,2215 1054,2221 1056,2226 C 1060,2240 1059,2254 1059,2268 C 1059,2281 1059,2294 1059,2308 C 1060,2313 1062,2319 1064,2325 C 1065,2329 1070,2332 1075,2332 C 1086,2333 1094,2327 1095,2315 C 1095,2307 1095,2299 1095,2287 Z M 436.3,2129 C 434.9,2132 431.9,2135 432.5,2137 C 434,2142 436.8,2147 439.7,2151 C 460.1,2181 481.3,2209 500.8,2240 C 525,2277 548.2,2315 571.3,2353 C 590.3,2384 608.4,2416 626.9,2447 A 41.15,41.15 0 0 0 631.5,2454 C 637.4,2461 647.9,2462 655,2458 C 662.2,2453 664.8,2445 661,2437 A 220.7,220.7 0 0 0 647,2410 C 630.5,2384 613,2358 597,2331 C 578.3,2299 556.9,2270 534.4,2241 C 516.1,2217 497.7,2194 479.1,2171 C 470.8,2160 461.9,2150 453.1,2140 A 85.94,85.94 0 0 0 442.9,2131 C 441.5,2130 439.3,2130 436.3,2129 Z M 498.1,2107 C 497.3,2109 495.7,2111 495.8,2112 C 495.9,2116 495.9,2121 497.8,2124 C 500.9,2129 506.1,2132 509.2,2137 C 521.2,2156 532.8,2176 544.6,2195 C 565.3,2229 585.3,2264 606.8,2297 A 860.4,860.4 0 0 1 672.6,2422 C 674.9,2428 678.7,2433 682.6,2437 C 686,2441 691.2,2440 695.4,2437 C 702,2433 704.1,2427 700.9,2420 C 691.5,2398 683.2,2376 671.7,2355 C 652.7,2321 631.4,2288 611,2254 C 606.9,2247 602.5,2241 598,2234 C 576.3,2201 554.8,2169 532.4,2136 C 526.1,2127 517,2120 508.9,2112 C 506.7,2110 503.3,2109 498.1,2107 Z M 924.1,1970 C 924.1,1974 923.4,1978 924.2,1981 C 926.2,1991 929.1,1999 931,2008 C 938.5,2043 947.2,2077 951.9,2112 C 954.6,2131 959.2,2151 962.5,2170 C 964.4,2181 965.8,2193 966.8,2204 C 968.6,2222 968.7,2240 971.7,2257 C 975.7,2281 975.5,2305 978.8,2328 C 979.8,2335 981.1,2342 985.1,2347 C 989.5,2353 1000,2354 1004,2348 C 1007,2343 1010,2337 1010,2331 C 1010,2320 1008,2308 1006,2296 C 1004,2279 1001,2262 999.2,2245 C 997.3,2230 996.8,2216 994.3,2201 C 987.6,2163 980.9,2124 971,2087 C 962.9,2056 954.5,2025 942.2,1995 C 938.5,1986 934.8,1977 924.1,1970 Z M 619.2,2053 C 617.6,2055 615.9,2056 616,2057 C 616.4,2060 616.8,2063 618.2,2066 C 625.3,2080 633.2,2093 640,2106 C 664.3,2156 689.3,2205 712.2,2255 C 730.9,2296 750,2337 765.3,2380 A 71.89,71.89 0 0 0 772.5,2394 C 776.7,2401 783.5,2401 789.4,2396 C 794.4,2391 795.1,2386 792.8,2379 C 780,2343 765.7,2307 748.9,2273 C 719.9,2213 691.6,2152 655,2097 C 646,2083 635.4,2070 625.3,2057 C 623.8,2055 621.1,2054 619.2,2053 Z M 672.2,2030 C 672.7,2033 672.6,2035 673.2,2036 C 695.8,2080 714.9,2126 735.2,2172 C 753.7,2213 773.6,2254 792.3,2295 C 800.6,2313 807.8,2331 815,2350 C 819.3,2361 822.5,2373 826.6,2384 A 43.79,43.79 0 0 0 833.2,2396 A 9.15,9.15 0 0 0 844,2399 C 848,2397 850.8,2394 850.6,2390 A 66.75,66.75 0 0 0 848.1,2374 C 838.8,2342 825,2311 810.7,2280 C 797.9,2252 784.9,2224 771.2,2197 C 750.3,2156 732.4,2112 708.9,2072 C 701.9,2060 694.1,2049 685.9,2037 C 683.2,2033 680,2028 672.1,2030 Z M 345.3,2293 C 349.7,2299 351.6,2302 354.1,2305 C 364,2317 374.7,2328 384,2340 C 414.6,2380 444.7,2420 475.2,2460 C 483.6,2471 492.6,2482 501.8,2492 A 9,9 0 0 0 514.4,2493 C 518.5,2490 519.6,2486 518.4,2481 A 18.47,18.47 0 0 0 514.8,2474 Q 495.3,2450 475.5,2427 C 459.8,2408 443.1,2390 428.5,2370 C 410.7,2346 389.8,2325 368.5,2304 C 363.3,2298 357.8,2294 345.2,2293 Z"
       class="cls-21"
       inkscape:connector-curvature="0"
       style="fill:#2eaaab" />
    <path
       id="path20810"
       transform="translate(3221,3148)"
       d="M 307.8,2337 C 303.2,2324 295.4,2319 290,2313 C 286.7,2309 281.6,2305 284.3,2299 C 286.2,2295 293.2,2295 300.5,2299 A 61.66,61.66 0 0 1 313.2,2308 C 335.4,2330 358.2,2352 379.3,2375 C 397.6,2395 413.8,2417 431.1,2438 A 949,949 0 0 1 498.2,2529 A 174.2,174.2 0 0 1 509.7,2550 C 512.4,2556 511.2,2562 506.5,2567 C 500.9,2572 495,2573 489.1,2568 A 73.13,73.13 0 0 1 480.9,2559 C 478.9,2557 477.3,2554 475.6,2551 C 469.7,2552 471.3,2556 471.2,2558 C 470.9,2565 468.7,2570 461.6,2572 C 454.7,2573 448.3,2572 444,2565 C 432.7,2548 421.6,2531 410,2514 C 396.5,2494 383,2475 368.6,2456 C 350.6,2432 332,2408 313.2,2385 C 297.8,2366 281.7,2348 265.8,2329 C 259.8,2322 258.6,2319 262,2316 C 265.7,2312 269.2,2312 276.5,2317 C 283.7,2322 290.3,2327 297.3,2332 C 299.2,2334 301.6,2334 307.8,2337 Z M 344.5,2381 L 343,2380 A 5.36,5.36 0 0 0 343.7,2381 C 343.9,2382 344.4,2382 344.8,2382 C 344.7,2381 344.6,2381 341.6,2379 L 343,2380 A 5.65,5.65 0 0 0 342.4,2379 C 342.2,2378 341.7,2378 341.3,2378 C 341.4,2379 341.5,2379 344.5,2381 Z M 330.9,2364 L 332.7,2366 L 331.1,2364 L 327.2,2360 C 326.4,2354 324.9,2350 318.1,2350 A 1.92,1.92 0 0 0 316.8,2351 C 316.7,2358 321.3,2359 326.8,2360 Z M 362,2400 C 361.7,2399 361.4,2399 361.1,2398 L 359.9,2399 L 361.5,2401 Z"
       class="cls-27"
       inkscape:connector-curvature="0"
       style="fill:#54d5d7" />
    <path
       id="path20812"
       transform="translate(3221,3148)"
       d="M 893.8,2376 C 887.1,2377 881.9,2374 879.1,2368 C 876.8,2363 874.3,2357 872.9,2351 C 863.5,2313 851.1,2276 838,2239 C 817.9,2182 797.8,2125 773.9,2070 Q 748.4,2010 722.6,1951 C 718.1,1941 713.6,1930 709.2,1920 C 708.4,1918 707.6,1916 707.8,1914 C 708,1912 709.1,1910 710.5,1909 C 711.9,1908 715.1,1909 715.9,1910 C 720.1,1915 724.4,1920 727.4,1926 C 744.3,1957 761.9,1989 777.1,2021 C 800.9,2072 825.3,2123 843.9,2177 C 856.7,2214 871.2,2250 884.3,2287 C 891.8,2308 897.8,2330 904.8,2351 C 906.8,2357 907.4,2363 904.5,2369 C 902.3,2373 899.1,2376 893.8,2376 Z"
       class="cls-27"
       inkscape:connector-curvature="0"
       style="fill:#54d5d7" />
    <path
       id="path20814"
       transform="translate(3221,3148)"
       d="M 1095,2287 C 1095,2299 1095,2307 1095,2315 C 1094,2327 1086,2333 1075,2332 C 1070,2332 1065,2329 1064,2325 C 1062,2319 1060,2313 1059,2308 C 1059,2294 1059,2281 1059,2268 C 1059,2254 1060,2240 1056,2226 C 1054,2221 1055,2215 1055,2210 C 1055,2197 1056,2183 1052,2170 C 1050,2165 1051,2158 1051,2152 C 1051,2140 1052,2127 1048,2115 A 14.72,14.72 0 0 1 1047,2111 C 1046,2089 1045,2067 1043,2045 C 1041,2025 1038,2005 1036,1984 C 1035,1968 1035,1951 1036,1934 C 1036,1932 1039,1929 1041,1929 C 1042,1929 1046,1931 1046,1933 C 1051,1951 1055,1969 1059,1987 C 1063,2006 1066,2024 1070,2042 Q 1072,2058 1074,2073 C 1076,2088 1077,2102 1079,2117 C 1081,2134 1084,2151 1086,2168 A 73.23,73.23 0 0 1 1087,2176 A 393.7,393.7 0 0 0 1090,2216 C 1093,2241 1094,2266 1095,2287 Z"
       class="cls-27"
       inkscape:connector-curvature="0"
       style="fill:#54d5d7" />
    <path
       id="path20816"
       transform="translate(3221,3148)"
       d="M 436.3,2129 C 439.3,2130 441.5,2130 442.9,2131 A 85.94,85.94 0 0 1 453.1,2140 C 461.9,2150 470.8,2160 479.1,2171 C 497.7,2194 516,2217 534.4,2241 C 556.8,2270 578.3,2299 597,2331 C 612.9,2358 630.4,2384 646.9,2410 A 220.7,220.7 0 0 1 660.9,2437 C 664.8,2445 662.2,2453 654.9,2458 C 647.9,2462 637.3,2461 631.4,2454 A 41.15,41.15 0 0 1 626.9,2447 C 608.3,2416 590.2,2384 571.2,2353 C 548.1,2315 525,2277 500.8,2240 C 481.2,2210 460,2181 439.7,2151 C 436.7,2147 433.9,2142 432.4,2137 C 431.9,2135 434.9,2132 436.3,2129 Z"
       class="cls-27"
       inkscape:connector-curvature="0"
       style="fill:#54d5d7" />
    <path
       id="path20818"
       transform="translate(3221,3148)"
       d="M 498.1,2107 C 503.3,2109 506.7,2110 508.9,2112 C 517,2120 526.1,2127 532.4,2136 C 554.8,2169 576.3,2201 598,2234 C 602.5,2241 606.9,2247 611,2254 C 631.4,2288 652.7,2321 671.7,2355 C 683.2,2376 691.5,2398 700.9,2420 C 704.1,2427 702,2433 695.4,2437 C 691.2,2440 686,2441 682.6,2437 C 678.7,2433 674.9,2428 672.6,2422 A 860.4,860.4 0 0 0 606.8,2297 C 585.3,2264 565.3,2229 544.6,2195 C 532.8,2176 521.2,2156 509.2,2137 C 506.1,2132 500.9,2129 497.8,2124 C 495.9,2121 496,2116 495.8,2112 C 495.7,2111 497.3,2109 498.1,2107 Z"
       class="cls-27"
       inkscape:connector-curvature="0"
       style="fill:#54d5d7" />
    <path
       id="path20820"
       transform="translate(3221,3148)"
       d="M 924.1,1970 C 934.8,1977 938.5,1986 942.2,1995 C 954.5,2025 962.9,2056 971,2086 C 980.8,2124 987.6,2163 994.3,2201 C 996.7,2216 997.3,2230 999.1,2245 C 1001,2262 1004,2279 1006,2296 C 1008,2308 1010,2320 1010,2331 C 1010,2337 1007,2343 1004,2348 C 1000,2354 989.5,2353 985,2347 C 981,2342 979.8,2335 978.8,2328 C 975.5,2305 975.6,2281 971.7,2257 C 968.7,2240 968.5,2222 966.8,2204 C 965.7,2193 964.4,2181 962.5,2170 C 959.2,2151 954.6,2131 951.9,2112 C 947.2,2077 938.5,2043 931,2008 C 929,1999 926.1,1991 924.2,1981 C 923.4,1978 924.1,1974 924.1,1970 Z"
       class="cls-27"
       inkscape:connector-curvature="0"
       style="fill:#54d5d7" />
    <path
       id="path20822"
       transform="translate(3221,3148)"
       d="M 619.2,2053 C 621.1,2054 623.8,2055 625.3,2057 C 635.4,2070 646,2083 655,2097 C 691.5,2152 719.8,2213 748.8,2273 C 765.6,2307 779.9,2343 792.7,2379 C 795,2386 794.4,2391 789.4,2395 C 783.4,2401 776.7,2401 772.5,2394 A 71.89,71.89 0 0 1 765.2,2380 C 750,2337 730.9,2296 712.2,2255 C 689.3,2205 664.3,2156 639.9,2106 C 633.2,2093 625.3,2080 618.2,2066 C 616.7,2063 616.4,2060 616,2057 C 615.9,2056 617.5,2055 619.2,2053 Z"
       class="cls-27"
       inkscape:connector-curvature="0"
       style="fill:#54d5d7" />
    <path
       transform="translate(3221,3148)"
       id="path20824"
       d="M 866.9,1872 C 876.5,1882 879.3,1896 883.1,1908 C 895.5,1949 907.7,1991 918.2,2033 C 928.7,2075 937.7,2118 946.1,2161 C 952.8,2195 957.5,2230 963.3,2265 C 964.8,2274 967.1,2283 969,2292 A 68.32,68.32 0 0 1 970.8,2302 C 971.2,2310 967.3,2315 960.1,2316 C 950.9,2317 945.1,2314 943.3,2306 C 941.3,2297 940.2,2288 939.1,2279 C 937.2,2264 936,2250 934,2235 C 932.1,2222 929,2209 927.4,2196 C 922.1,2153 915,2110 907.8,2066 C 897.9,2007 883.9,1948 869.7,1890 C 868.3,1884 867.9,1878 867.1,1872 Z"
       class="cls-27"
       inkscape:connector-curvature="0"
       style="fill:#54d5d7" />
    <path
       id="path20826"
       transform="translate(3221,3148)"
       d="M 672.1,2030 C 680,2028 683.1,2033 685.9,2037 C 694,2049 701.9,2060 708.9,2072 C 732.3,2112 750.3,2155 771.1,2197 C 784.9,2224 797.9,2252 810.7,2280 C 824.9,2311 838.7,2341 848.1,2374 A 66.75,66.75 0 0 1 850.6,2390 C 850.7,2394 848,2397 844,2399 A 9.15,9.15 0 0 1 833.1,2396 A 43.79,43.79 0 0 1 826.5,2384 C 822.4,2373 819.3,2361 815,2350 C 807.8,2331 800.6,2313 792.3,2295 C 773.6,2254 753.6,2213 735.2,2172 C 714.8,2126 695.8,2080 673.1,2036 C 672.5,2035 672.6,2033 672.1,2030 Z"
       class="cls-27"
       inkscape:connector-curvature="0"
       style="fill:#54d5d7" />
    <path
       id="path20828"
       transform="translate(3221,3148)"
       d="M 345.2,2293 C 357.8,2294 363.3,2298 368.5,2304 C 389.7,2325 410.6,2346 428.5,2370 C 443.1,2390 459.8,2408 475.5,2427 Q 495.2,2450 514.8,2474 A 18.47,18.47 0 0 1 518.4,2481 C 519.6,2486 518.5,2490 514.4,2493 A 9,9 0 0 1 501.8,2492 C 492.6,2482 483.6,2471 475.2,2460 C 444.7,2420 414.6,2380 384,2340 C 374.7,2328 364,2317 354.1,2305 C 351.6,2302 349.6,2299 345.2,2293 Z"
       class="cls-27"
       inkscape:connector-curvature="0"
       style="fill:#54d5d7" />
    <path
       id="path20830"
       transform="translate(3221,3148)"
       d="M 867.1,1872 L 865.4,1871 L 866.9,1872 Z"
       class="cls-27"
       inkscape:connector-curvature="0"
       style="fill:#54d5d7" />
    <path
       id="path20962"
       transform="translate(3221,3148)"
       d="M 326.8,2360 C 321.3,2360 316.7,2358 316.8,2351 A 1.92,1.92 0 0 1 318.1,2350 C 324.9,2350 326.4,2354 327.2,2360 Z"
       class="cls-21"
       inkscape:connector-curvature="0"
       style="fill:#2eaaab" />
    <path
       id="path20964"
       transform="translate(3221,3148)"
       d="M 362,2400 L 361.5,2401 L 359.9,2400 L 361.1,2399 C 361.4,2399 361.7,2399 362,2400 Z"
       class="cls-21"
       inkscape:connector-curvature="0"
       style="fill:#2eaaab" />
    <path
       id="path20966"
       transform="translate(3221,3148)"
       d="M 327.2,2360 L 331.1,2364 H 330.9 L 326.8,2360 Z"
       class="cls-21"
       inkscape:connector-curvature="0"
       style="fill:#2eaaab" />
    <path
       id="path20968"
       transform="translate(3221,3148)"
       d="M 331.1,2364 L 332.7,2366 L 330.9,2364 Z"
       class="cls-21"
       inkscape:connector-curvature="0"
       style="fill:#2eaaab" />
    <path
       id="path20970"
       transform="translate(3221,3148)"
       d="M 341.6,2379 C 341.5,2379 341.4,2379 341.3,2378 C 341.7,2378 342.2,2378 342.4,2379 A 5.65,5.65 0 0 1 343,2380 Z"
       class="cls-21"
       inkscape:connector-curvature="0"
       style="fill:#2eaaab" />
    <path
       id="path20972"
       transform="translate(3221,3148)"
       d="M 344.5,2381 L 344.8,2382 C 344.4,2382 343.9,2382 343.7,2381 A 5.36,5.36 0 0 1 343,2380 Z"
       class="cls-21"
       inkscape:connector-curvature="0"
       style="fill:#2eaaab" />
  </g>
  <path
     inkscape:connector-curvature="0"
     class="cls-8"
     d="M 169,340.2 L 164,342.2 C 164,341.2 164,340.2 164,340.2 C 165,339.2 166,338.2 167,338.2 C 169,337.2 172,336.2 174,336.2 C 175,336.2 176,337.2 176,337.2 C 177,337.2 177,338.2 177,338.2 A 1.269,1.269 0 0 1 176,339.2 C 176,339.2 175,339.2 175,339.2 H 171 C 174,345.2 177,351.2 181,355.2 C 190,364.2 201,369.2 214,368.2 C 225,368.2 235,364.2 244,357.2 C 251,351.2 257,344.2 262,336.2 A 29.78,29.78 0 0 1 264,332.2 C 265,331.2 266,331.2 267,331.2 C 268,332.2 269,333.2 268,334.2 C 265,345.2 261,356.2 255,366.2 C 252,371.2 249,376.2 245,380.2 C 241,384.2 237,388.2 232,390.2 C 224,394.2 216,394.2 208,391.2 C 203,389.2 198,386.2 193,382.2 A 71.2,71.2 0 0 1 184,371.2 C 178,362.2 173,352.2 169,341.2 C 169,341.2 169,340.2 169,340.2 Z"
     id="path27294"
     style="fill:#1fd3bd;stroke-width:0.1845" />
  <path
     class="cls-3"
     d="M 210,213.2 C 210,212.2 210,212.2 210,211.2 Q 210,130.2 211,49.18 Q 211,36.18 211,23.18 C 211,23.18 211,22.18 211,22.18 C 211,21.18 213,20.18 215,20.18 C 217,20.18 219,21.18 219,22.18 C 220,22.18 220,23.18 220,23.18 Q 220,40.18 220,57.18 Q 220,81.18 220,105.2 C 220,105.2 220,106.2 220,107.2 C 220,107.2 220,107.2 220,107.2 Q 220,116.2 220,124.2 C 220,125.2 220,125.2 220,125.2 C 220,126.2 220,126.2 220,127.2 Q 219,216.2 219,304.2 Q 219,389.2 219,473.2 C 219,473.2 219,473.2 219,474.2 C 219,476.2 216,476.2 212,476.2 C 212,476.2 212,476.2 211,476.2 C 210,475.2 210,474.2 210,473.2 Q 210,461.2 210,449.2 Q 210,341.2 210,233.2 C 210,233.2 210,232.2 210,231.2 C 210,231.2 210,231.2 210,230.2 Q 210,222.2 210,214.2 C 210,214.2 210,213.2 210,213.2 Z"
     id="path19190"
     inkscape:connector-curvature="0"
     style="fill:#07a29b;stroke-width:0.1176" />
  <path
     inkscape:connector-curvature="0"
     class="cls-20"
     d="M 259,331.2 C 260,330.2 260,330.2 260,330.2 C 263,326.2 271,326.2 274,332.2 C 275,333.2 275,334.2 275,335.2 C 275,335.2 274,335.2 274,335.2 C 273,335.2 273,335.2 273,335.2 C 273,335.2 272,334.2 272,334.2 C 271,330.2 267,329.2 263,330.2 C 262,330.2 261,331.2 259,331.2 Z"
     id="path27490"
     style="fill:#3ea4a6;stroke-width:0.1845" />
  <path
     class="cls-17"
     d="M 307,445.2 V 456.2 C 307,459.2 307,461.2 307,464.2 C 307,468.2 304,469.2 301,468.2 A 15.34,15.34 0 0 1 300,468.2 C 299,466.2 298,464.2 298,463.2 C 298,458.2 298,453.2 298,449.2 C 298,448.2 298,447.2 299,446.2 C 301,446.2 304,445.2 307,445.2 Z"
     id="path19418-3"
     inkscape:connector-curvature="0"
     style="fill:#067e6c;stroke-width:0.1845" />
  <g
     id="g30554"
     transform="translate(-2909,-3494)">
    <g
       id="g30545">
      <path
         class="cls-5"
         d="M 3126,4002 C 3125,4004 3124,4006 3124,4008 C 3123,4008 3123,4009 3123,4009 C 3122,4010 3120,4010 3119,4010 A 2.656,2.368 0 0 1 3118,4008 A 6.485,5.781 0 0 1 3118,4006 A 36.29,32.35 0 0 1 3121,4001 C 3122,4000 3122,3999 3123,3998 C 3123,3997 3123,3997 3122,3997 C 3122,3996 3122,3996 3121,3995 C 3120,3995 3120,3994 3119,3993 C 3118,3992 3118,3991 3117,3990 C 3117,3990 3117,3990 3116,3989 C 3116,3989 3116,3988 3117,3988 C 3117,3988 3118,3988 3118,3988 C 3119,3988 3119,3988 3120,3989 C 3121,3990 3123,3992 3125,3994 C 3125,3994 3125,3994 3126,3995 C 3126,3994 3126,3994 3127,3994 C 3128,3992 3130,3990 3132,3989 A 10.44,9.306 0 0 1 3133,3988 A 3.623,3.231 0 0 1 3134,3987 A 1.001,0.8921 0 0 1 3135,3988 A 3.397,3.029 0 0 1 3135,3989 C 3135,3990 3134,3991 3134,3992 C 3132,3994 3131,3995 3129,3997 C 3129,3998 3129,3998 3129,3998 C 3129,3999 3130,3999 3130,4000 C 3132,4002 3134,4004 3136,4006 C 3136,4007 3136,4008 3136,4008 C 3135,4009 3135,4009 3134,4009 C 3133,4008 3133,4008 3133,4008 A 1.035,0.9229 0 0 0 3132,4007 Q 3131,4006 3130,4005 C 3130,4005 3130,4005 3130,4005 C 3129,4004 3128,4003 3128,4003 C 3128,4003 3127,4002 3127,4002 V 4002 Z"
         id="path19228"
         inkscape:connector-curvature="0"
         style="fill:#05968f;stroke-width:0.0627" />
      <path
         class="cls-5"
         d="M 3112,3984 C 3112,3984 3112,3984 3112,3984 C 3112,3983 3112,3983 3113,3983 C 3114,3982 3116,3982 3118,3981 C 3122,3981 3125,3980 3129,3980 C 3132,3980 3135,3980 3137,3980 C 3138,3980 3139,3980 3139,3980 C 3140,3981 3140,3983 3138,3983 A 3.524,3.142 0 0 1 3137,3983 C 3135,3983 3133,3983 3131,3983 C 3128,3983 3126,3984 3123,3984 C 3120,3984 3117,3984 3114,3985 C 3114,3985 3113,3985 3112,3984 Z"
         id="path19332"
         inkscape:connector-curvature="0"
         style="fill:#05968f;stroke-width:0.0627" />
    </g>
    <g
       transform="matrix(0.0311,-0.438,-0.319,-0.0426,4791,5316)"
       id="text30326"
       style="font-style:normal;font-variant:normal;font-weight:normal;font-stretch:normal;font-size:346.9141px;line-height:0;font-family:sans-serif;-inkscape-font-specification:'sans-serif, Normal';font-variant-ligatures:normal;font-variant-caps:normal;font-variant-numeric:normal;font-feature-settings:normal;text-align:center;letter-spacing:0px;word-spacing:0px;writing-mode:lr-tb;text-anchor:middle;fill:#05968f;fill-opacity:1;stroke:none;stroke-width:10.8411"
       aria-label="{">
      <path
         inkscape:connector-curvature="0"
         id="path30328"
         style="font-style:normal;font-variant:normal;font-weight:normal;font-stretch:normal;font-family:Karumbi;-inkscape-font-specification:Karumbi;fill:#05968f;fill-opacity:1;stroke-width:10.8411"
         d="M 2484,5715 Q 2474,5715 2464,5714 Q 2454,5714 2446,5714 Q 2438,5713 2431,5712 Q 2425,5710 2416,5707 Q 2407,5705 2404,5698 Q 2400,5692 2402,5683 Q 2403,5674 2407,5666 Q 2411,5657 2414,5651 Q 2417,5644 2419,5641 Q 2420,5637 2421,5635 Q 2421,5633 2422,5630 Q 2422,5627 2423,5620 Q 2420,5620 2417,5618 Q 2414,5615 2415,5610 Q 2416,5607 2421,5604 Q 2425,5600 2427,5599 Q 2429,5596 2429,5593 Q 2429,5590 2426,5586 Q 2423,5583 2420,5579 Q 2416,5575 2412,5571 Q 2408,5567 2407,5562 Q 2402,5544 2420,5522 Q 2434,5506 2456,5495 Q 2461,5493 2464,5497 Q 2468,5501 2465,5506 Q 2464,5506 2464,5507 Q 2461,5511 2457,5510 Q 2447,5516 2440,5523 L 2431,5532 Q 2421,5544 2420,5550 Q 2420,5557 2423,5562 Q 2427,5567 2433,5573 Q 2439,5578 2441,5586 Q 2446,5599 2433,5611 Q 2444,5619 2430,5649 Q 2427,5656 2423,5664 Q 2415,5683 2416,5690 Q 2432,5701 2467,5701 Q 2476,5701 2485,5702 Q 2491,5704 2491,5709 Q 2491,5714 2484,5715 Z" />
    </g>
    <g
       transform="matrix(-0.0311,-0.438,0.319,-0.0426,1467,5318)"
       id="text30326-1"
       style="font-style:normal;font-variant:normal;font-weight:normal;font-stretch:normal;font-size:346.9141px;line-height:0;font-family:sans-serif;-inkscape-font-specification:'sans-serif, Normal';font-variant-ligatures:normal;font-variant-caps:normal;font-variant-numeric:normal;font-feature-settings:normal;text-align:center;letter-spacing:0px;word-spacing:0px;writing-mode:lr-tb;text-anchor:middle;fill:#05968f;fill-opacity:1;stroke:none;stroke-width:10.8411"
       aria-label="{">
      <path
         inkscape:connector-curvature="0"
         id="path30328-2"
         style="font-style:normal;font-variant:normal;font-weight:normal;font-stretch:normal;font-family:Karumbi;-inkscape-font-specification:Karumbi;fill:#05968f;fill-opacity:1;stroke-width:10.8411"
         d="M 2484,5715 Q 2474,5715 2464,5714 Q 2454,5714 2446,5714 Q 2438,5713 2431,5712 Q 2425,5710 2416,5707 Q 2407,5705 2404,5698 Q 2400,5692 2402,5683 Q 2403,5674 2407,5666 Q 2411,5657 2414,5651 Q 2417,5644 2419,5641 Q 2420,5637 2421,5635 Q 2421,5633 2422,5630 Q 2422,5627 2423,5620 Q 2420,5620 2417,5618 Q 2414,5615 2415,5610 Q 2416,5607 2421,5604 Q 2425,5600 2427,5599 Q 2429,5596 2429,5593 Q 2429,5590 2426,5586 Q 2423,5583 2420,5579 Q 2416,5575 2412,5571 Q 2408,5567 2407,5562 Q 2402,5544 2420,5522 Q 2434,5506 2456,5495 Q 2461,5493 2464,5497 Q 2468,5501 2465,5506 Q 2464,5506 2464,5507 Q 2461,5511 2457,5510 Q 2447,5516 2440,5523 L 2431,5532 Q 2421,5544 2420,5550 Q 2420,5557 2423,5562 Q 2427,5567 2433,5573 Q 2439,5578 2441,5586 Q 2446,5599 2433,5611 Q 2444,5619 2430,5649 Q 2427,5656 2423,5664 Q 2415,5683 2416,5690 Q 2432,5701 2467,5701 Q 2476,5701 2485,5702 Q 2491,5704 2491,5709 Q 2491,5714 2484,5715 Z" />
    </g>
  </g>
  <text
     xml:space="preserve"
     style="font-style:normal;font-variant:normal;font-weight:normal;font-stretch:normal;font-size:32px;line-height:0;font-family:sans-serif;-inkscape-font-specification:'sans-serif, Normal';font-variant-ligatures:normal;font-variant-caps:normal;font-variant-numeric:normal;font-feature-settings:normal;text-align:center;letter-spacing:0px;word-spacing:0px;writing-mode:lr-tb;text-anchor:middle;fill:#000000;fill-opacity:1;stroke:none"
     x="216"
     y="553.2"
     id="text30351"><tspan
       sodipodi:role="line"
       id="tspan30349"
       x="216"
       y="553.2"
       style="font-style:normal;font-variant:normal;font-weight:normal;font-stretch:normal;font-family:Karumbi;-inkscape-font-specification:Karumbi">Uncertainty</tspan></text>
</svg>
