<?xml version="1.0" encoding="UTF-8" standalone="no"?>
<!-- Created with Inkscape (http://www.inkscape.org/) -->

<svg
   xmlns:dc="http://purl.org/dc/elements/1.1/"
   xmlns:cc="http://creativecommons.org/ns#"
   xmlns:rdf="http://www.w3.org/1999/02/22-rdf-syntax-ns#"
   xmlns:svg="http://www.w3.org/2000/svg"
   xmlns="http://www.w3.org/2000/svg"
   xmlns:sodipodi="http://sodipodi.sourceforge.net/DTD/sodipodi-0.dtd"
   xmlns:inkscape="http://www.inkscape.org/namespaces/inkscape"
   width="220.8mm"
   height="145.8mm"
   viewBox="0 0 220.8 145.8"
   version="1.1"
   id="svg21007"
   sodipodi:docname="p-value-logic.svg"
   inkscape:export-filename="/home/susan/Projects/Work/2021-Extension-APL/image/p-value-logic.png"
   inkscape:export-xdpi="300"
   inkscape:export-ydpi="300"
   inkscape:version="0.92.5 (2060ec1f9f, 2020-04-08)">
  <defs
     id="defs21001">
    <marker
       inkscape:stockid="Arrow1Mend"
       orient="auto"
       refY="0"
       refX="0"
       id="Arrow1Mend"
       style="overflow:visible"
       inkscape:isstock="true">
      <path
         id="path23381"
         d="M 0,0 L 5,-5 L -12.5,0 L 5,5 Z"
         style="fill:#394f03;fill-opacity:1;fill-rule:evenodd;stroke:#394f03;stroke-width:1pt;stroke-opacity:1"
         transform="matrix(-0.4,0,0,-0.4,-4,0)"
         inkscape:connector-curvature="0" />
    </marker>
    <marker
       inkscape:stockid="Arrow2Lend"
       orient="auto"
       refY="0"
       refX="0"
       id="Arrow2Lend"
       style="overflow:visible"
       inkscape:isstock="true">
      <path
         id="path23393"
         style="fill:#000000;fill-opacity:1;fill-rule:evenodd;stroke:#000000;stroke-width:0.625;stroke-linejoin:round;stroke-opacity:1"
         d="M 8.719,4.034 L -2.207,0.016 L 8.719,-4.002 C 6.973,-1.63 6.983,1.616 8.719,4.034 Z"
         transform="matrix(-1.1,0,0,-1.1,-1.1,0)"
         inkscape:connector-curvature="0" />
    </marker>
  </defs>
  <sodipodi:namedview
     id="base"
     pagecolor="#ffffff"
     bordercolor="#666666"
     borderopacity="1.0"
     inkscape:pageopacity="0.0"
     inkscape:pageshadow="2"
     inkscape:zoom="1.4"
     inkscape:cx="368.41429"
     inkscape:cy="279.6"
     inkscape:document-units="mm"
     inkscape:current-layer="layer1"
     showgrid="false"
     showguides="true"
     inkscape:guide-bbox="true"
     fit-margin-top="10"
     fit-margin-left="10"
     fit-margin-right="10"
     fit-margin-bottom="10"
     inkscape:window-width="1920"
     inkscape:window-height="1015"
     inkscape:window-x="0"
     inkscape:window-y="0"
     inkscape:window-maximized="1">
    <sodipodi:guide
       position="-71.74,14.17"
       orientation="1,0"
       id="guide22884"
       inkscape:locked="false" />
  </sodipodi:namedview>
  <metadata
     id="metadata21004">
    <rdf:RDF>
      <cc:Work
         rdf:about="">
        <dc:format>image/svg+xml</dc:format>
        <dc:type
           rdf:resource="http://purl.org/dc/dcmitype/StillImage" />
        <dc:title />
      </cc:Work>
    </rdf:RDF>
  </metadata>
  <g
     inkscape:label="Layer 1"
     inkscape:groupmode="layer"
     id="layer1"
     transform="translate(2.527,-47.39)">
    <path
       inkscape:connector-curvature="0"
       class="cls-1"
       d="m 193.6,140.8 c -0.1,0.1 -0.5,0.1 -0.6,0.1 -0.2,0.1 -0.5,0 -0.6,0 q -8.1,0 -16.2,0 c -0.4,0 -0.9,0 -1.3,-0.1 -0.2,0 -0.6,0 -0.8,0 q -11,0 -21.9,0 c -0.4,0 -0.8,0 -1.3,-0.2 -0.3,0 -0.6,0 -0.8,0 q -11.1,0 -22.2,0 c -0.4,0 -0.8,-0.1 -1.3,-0.1 -0.2,0 -0.6,-0.1 -0.8,-0.1 q -11.1,0 -22.2,0 c -0.4,0 -0.8,-0.1 -1.3,-0.1 -0.9,0 -1.8,0 -2.77,0 -0.37,0 -0.73,0.1 -1.09,0.1 q -5.46,0 -10.92,0 c -0.43,0 -0.87,0 -1.38,0.2 -0.29,0 -0.58,0 -0.8,0 q -5.6,0 -11.27,0 c -0.44,0 -0.88,0 -1.31,0.1 -0.22,0.1 -0.51,0.1 -0.73,0.1 q -6.11,0 -12.3,0 c -0.36,0 -0.8,0.1 -1.23,0.1 -0.22,0 -0.59,0 -0.88,0 q -5.45,0 -10.91,0 c -0.44,0 -0.87,0.1 -1.31,0.2 -0.22,0 -0.51,0 -0.8,0 q -5.67,0 -11.42,0 c -0.37,0 -0.73,0 -1.17,0.1 -0.21,0 -0.58,0.1 -0.8,0.1 q -6.04,0 -12.15,0 c -0.36,0 -0.72,0.1 -1.09,0.1 -0.21,0 -0.43,0 -0.65,0 q -4.15,0 -8.368,0 c -0.363,0 -0.727,0.1 -1.018,-0.3 0.873,-0.1 1.746,-0.3 2.616,-0.5 1.53,-0.3 2.99,-0.5 4.37,-1 1.45,-0.4 2.91,-0.8 4.29,-1.3 2.25,-0.9 4.51,-1.7 6.62,-2.8 1.09,-0.5 2.18,-1 3.27,-1.5 1.82,-0.8 3.5,-1.9 5.17,-2.8 q 2.69,-1.6 5.17,-3.3 c 1.45,-1 2.91,-2 4.29,-3 1.6,-1.1 3.05,-2.3 4.65,-3.4 1.31,-1 2.62,-2 4.01,-3 1.45,-1 2.76,-2.1 4.14,-3 1.17,-0.8 2.33,-1.6 3.49,-2.4 q 3.06,-2.1 6.12,-4.1 c 1.81,-1.1 3.63,-2.3 5.52,-3.1 0.66,-0.4 1.24,-0.8 1.9,-1.1 1.81,-0.8 3.63,-1.6 5.45,-2.4 a 67.64,67.64 0 0 1 8.3,-2.65 c 1.23,-0.29 2.47,-0.51 3.78,-0.73 0.8,-0.22 1.6,-0.29 2.4,-0.51 a 2.191,2.191 0 0 1 0.22,0 c 0.94,-0.07 1.89,-0.14 2.84,-0.22 0.51,0 0.94,0 1.38,-0.07 0.22,-0.07 0.51,-0.07 0.73,-0.07 1.23,0 2.54,0 3.74,0 0.6,0 1.2,0 1.9,0.14 0.1,0 0.4,0 0.5,0 1.7,0 3.5,0.29 5.2,0.66 1.3,0.29 2.5,0.43 3.7,0.73 0.8,0.14 1.6,0.32 2.4,0.62 1.6,0.5 3.2,1 4.9,1.6 1.3,0.4 2.5,0.9 3.7,1.4 1.2,0.5 2.4,1 3.7,1.7 1.9,1 4,2 5.8,3.3 1.4,0.9 2.9,1.9 4.4,2.8 1.8,1.2 3.8,2.5 5.7,3.8 0.9,0.6 1.7,1.2 2.5,1.8 q 0.7,0.5 1.4,1 c 1,0.7 1.9,1.4 2.9,2.1 1.3,1 2.7,2 4.1,3 1.4,1 2.8,2 4.2,3.1 1.6,0.9 2.9,1.9 4.5,2.9 1.2,0.8 2.5,1.6 3.8,2.4 1.6,0.9 3.3,1.9 5,2.7 2,0.8 3.9,1.7 5.8,2.6 0.6,0.3 1.2,0.5 2,0.7 1,0.4 2.1,0.7 3.2,1.1 1.6,0.6 3.4,1 5,1.4 1.3,0.3 2.5,0.5 3.8,0.7 0.3,0.1 0.8,0.2 1.1,0.2 z"
       id="path13687"
       style="fill:#e5ffa3;fill-opacity:1;stroke-width:0.0419" />
    <g
       id="g22775"
       transform="matrix(0.077,0,0,0.077,97.99,119.7)">
      <path
         style="fill:#3d7f0e;fill-opacity:1;stroke-width:0.26460001;image-rendering:optimizeQuality"
         inkscape:connector-curvature="0"
         id="path13703"
         d="m 57.13,236.4 c -11.11,7.9 -23.81,8.4 -37.04,6.9 -5.03,-0.6 -9.79,-2.4 -14.553,-4.8 -2.117,1 -3.969,2 -6.0858,3 -4.7632,2.4 -9.7912,5.1 -14.8212,7.2 -13.49,5.6 -27.25,11.1 -41.8,14.8 -6.62,1.8 -13.23,3.3 -20.11,2.6 a 38.79,38.79 0 0 1 -4.77,-0.7 c -5.82,-1.3 -9.79,-4.6 -12.43,-9.8 -2.65,-5.4 -4.5,-11.1 -5.52,-17 -3.5,-16.6 -4.5,-33.2 -3.5,-50 0.8,-8.5 1.9,-16.8 4.26,-25 a 26.91,26.91 0 0 1 5.55,-10.7 c 2.91,-3.2 6.35,-4.9 10.59,-5.1 a 44.37,44.37 0 0 1 13.23,1.2 c 18.78,4.7 37.04,11.3 54.24,20.6 4.23,2.3 8.466,4.9 12.964,7.4 0,0 0.53,0.1 0.794,-0.1 6.88,-4 14.552,-5.8 22.492,-7 a 85.31,85.31 0 0 1 29.11,0.8 c 1.58,0.3 3.43,0.7 5.02,1.2 5.03,1.4 9.53,3.5 12.97,8 0.79,-0.4 1.32,-0.6 1.85,-1 5.56,-4.7 11.64,-8.4 18.26,-11.7 10.58,-5.2 21.17,-10.3 32.27,-14 11.1,-3.7 22.8,-5.7 34.1,-6.8 8,-0.8 12.7,3 16.4,9.3 3.5,5.8 4.8,12.2 5.1,18.7 1,17.9 0.8,35.6 -2.4,53.3 -0.3,1 -0.3,2.1 -0.5,3.1 -1.1,8.5 -4.5,15.8 -10.1,22.3 -2.1,2.5 -4.8,4.2 -7.9,5 -7.2,1.8 -14.6,3 -22,2 -7.7,-1 -15.1,-1.9 -22.5,-3.2 -11.36,-2 -22.21,-6.3 -32.53,-10.8 -6.88,-3 -13.76,-6.4 -20.64,-9.7 z m -81.23,2 c 0.53,0 1.06,0.1 1.59,0 6.35,-1.8 12.44,-4.4 18.521,-7.1 0.265,-0.1 0.53,-0.5 0.794,-1 A 12.26,12.26 0 0 0 -5.841,225 c -2.91,-0.6 -5.289,-0.2 -7.939,0.7 -3.7,1.3 -7.67,2.3 -11.38,3.5 -0.79,-0.1 -1.58,-0.1 -2.11,-0.2 -2.65,-0.4 -4.77,0.4 -6.35,2.5 -0.27,0.6 -0.8,1.1 -1.06,1.7 -2.65,-0.3 -4.77,0.8 -7.15,1.5 -2.64,0.9 -5.29,1.9 -8.2,2.6 -1.32,0.4 -3.17,0.4 -4.23,-1.2 -0.53,-1 0.26,-2.5 2.38,-3.7 0,-0.1 0.26,-0.2 0.26,-0.3 5.56,-2.9 11.12,-5.4 16.94,-7.2 6.08,-1.8 11.9,-3.2 17.73,-4.9 2.11,-0.5 4.23,-1.2 6.08,-1.7 1.325,-0.3 2.119,-0.8 2.383,-1.9 0.529,-1.4 0.529,-2.8 -0.794,-4.2 -4.759,1.4 -9.789,0.7 -15.079,0.9 a 14.59,14.59 0 0 1 -2.65,-0.1 c -0.79,-0.2 -1.32,-1.6 -0.79,-2.6 a 6.639,6.639 0 0 1 5.02,-3.5 c 3.18,-0.4 6.36,-1.7 9.79,-1.3 1.06,0.2 2.12,-0.2 2.92,-0.3 1.054,-1.6 1.319,-3.1 0.26,-4.2 -0.79,-0.8 -2.12,-1.2 -3.18,-1.7 -0.26,-0.1 -0.79,0 -1.05,-0.1 -2.65,-0.4 -5.56,-0.9 -8.21,-1.3 -6.08,-0.9 -12.17,-2.4 -18.25,-2.7 -6.88,-0.3 -13.5,-1.8 -20.38,-1.4 -2.11,0.2 -4.23,-0.8 -6.08,-1.4 -0.53,-0.2 -0.8,-1.1 -1.06,-1.7 0,-0.3 0.53,-1 1.06,-1.1 2.64,-0.7 5.29,-1.9 7.93,-1.9 8.21,0.1 16.15,-1.1 24.35,0.9 0.79,0.2 1.59,0 2.64,0 4.5,0 9,1.2 13.5,1.7 l 9.789,1.2 c 0.529,-1.8 1.058,-3.3 1.323,-4.8 0.529,-2.4 0,-3.4 -2.382,-4.4 -13.49,-5.5 -26.72,-10.6 -40.48,-14.9 -2.12,-0.7 -4.24,-1.4 -6.09,-1.9 q -5.29,-1.4 -10.85,-2.6 c -4.5,-1 -8.73,-1.9 -13.23,-2.8 -2.91,-0.5 -4.76,0.8 -6.35,3 a 11.18,11.18 0 0 0 -1.85,3.8 c -1.06,5.5 -2.38,10.9 -2.12,16.6 0,4.1 0,8.1 0,12.2 0.27,7 -0.26,14 0.8,21 1.32,7.3 2.11,14.6 3.7,21.8 0.79,3.7 2.65,7.2 4.23,10.8 0.53,1.4 1.86,2.7 3.44,2.7 4.24,0.1 8.47,0.7 12.18,-0.2 8.99,-2 17.72,-4.5 26.46,-7.3 3.17,-1 6.61,-1.9 9.52,-4.1 z m 90.76,-12.1 c 0.26,1.7 1.85,1.8 2.65,2.3 7.67,3.8 15.34,7.3 23.28,10.2 6.35,2.3 13.01,4.6 19.61,6.5 4.5,1.4 9.2,1.5 13.7,2.6 2.9,0.7 6.1,1 9,1.1 4,0.2 8,0.2 12.2,0 7.1,-0.2 13,-5.4 14,-12.5 0.6,-3.1 0.8,-6.3 1.1,-9.4 0.5,-3.1 1,-6.2 1.3,-9.4 0.8,-5 2.1,-9.9 1.9,-15.1 0,-3.8 0,-7.7 0,-11.6 0,-2.5 0,-4.9 0.7,-7.3 0.6,-2.2 0.6,-4.7 0,-6.8 -0.7,-3.2 -0.5,-6.3 -0.7,-9.5 a 19.99,19.99 0 0 0 -5.3,-11.9 c -1.1,-1.4 -2.7,-1.9 -4.8,-1.4 -4.2,1 -8.7,1.9 -13.2,2.9 -10.1,2.2 -19.6,5.3 -29.1,9.1 -9.3,3.6 -18.03,8.1 -26.76,12.4 -4.5,2.2 -8.47,5.2 -12.44,8.1 -2.64,2 -3.44,4.7 -2.11,8.1 3.97,-0.7 7.67,-1.1 11.37,-2.1 6.88,-1.8 14.03,-1.9 20.94,-1.7 0.5,0 0.8,0.3 1.8,0.8 -1.3,0.8 -2.1,1.4 -3.2,1.8 -2.3,0.9 -4.72,1.7 -7.36,2.5 q -11.12,3.8 -22.49,7.6 c -0.53,0.2 -1.33,0.4 -1.86,0.9 -0.26,0.5 -0.53,1.3 -0.53,1.9 0.27,0.5 0.8,1.1 1.33,1.2 1.58,0.2 2.91,0.1 4.23,0.2 a 7.607,7.607 0 0 1 2.65,0.8 c 0.79,0.4 0.79,2.1 0,2.6 -0.8,0.4 -1.59,0.6 -2.38,0.8 -1.86,0.5 -3.97,0.9 -5.56,1.5 -1.06,0.4 -1.32,1.2 -0.8,2.4 0.8,0.1 1.86,0.4 2.92,0.3 5.02,-0.5 9.79,1 14.81,1.2 a 23.49,23.49 0 0 1 5.56,1.1 c 1.32,0.4 2.38,1.3 3.7,2 0.53,0.4 0.53,1.9 -0.26,2.3 -0.53,0.3 -1.32,0.8 -1.85,0.8 -6.62,0 -12.97,1.7 -19.58,1.1 -2.91,-0.2 -5.56,0.5 -8.47,1.6 z M 1.303,207.2 a 44.9,44.9 0 0 0 1.059,11.6 c 1.058,5.2 3.704,9.1 8.198,11.6 2.39,1.2 4.77,2.1 7.15,3.1 4.23,1.8 8.73,2 12.7,3.3 4.76,1.5 9.26,0.3 13.23,-2.1 7.67,-4.6 7.67,-4.7 12.44,-12.4 a 29.98,29.98 0 0 0 2.64,-5.2 c 1.85,-4.9 3.18,-10 4.24,-15.2 1.32,-4.5 0.52,-9.1 0.79,-13.6 0,-0.5 -0.27,-1 -0.53,-1.5 -1.85,-4.9 -5.03,-8.6 -10.06,-10.1 -5.55,-1.7 -11.11,-2.4 -16.66,-1.3 -1.06,0.2 -2.12,0.5 -3.18,0.6 a 88.75,88.75 0 0 0 -18.26,4.4 c -3.7,1.4 -8.994,6.8 -10.846,10.5 a 31.09,31.09 0 0 0 -2.911,16.3 z"
         class="cls-8" />
      <path
         style="fill:#52a418;fill-opacity:1;stroke-width:0.26460001;image-rendering:optimizeQuality"
         inkscape:connector-curvature="0"
         id="path15685"
         d="m 66.66,226.3 c 2.91,-1.1 5.56,-1.8 8.47,-1.6 6.61,0.6 12.96,-1.1 19.58,-1.1 0.53,0 1.32,-0.4 1.85,-0.8 0.79,-0.4 0.79,-1.9 0.26,-2.3 -1.05,-0.7 -2.38,-1.5 -3.7,-1.9 a 23.49,23.49 0 0 0 -5.56,-1.1 c -5.02,-0.3 -9.79,-1.7 -14.81,-1.3 -1.06,0.1 -2.12,-0.2 -2.92,-0.3 -0.52,-1.2 -0.26,-2 0.8,-2.3 1.85,-0.7 3.7,-1.1 5.56,-1.6 0.79,-0.2 1.58,-0.4 2.38,-0.8 1.05,-0.4 0.79,-2.1 0,-2.6 a 7.607,7.607 0 0 0 -2.65,-0.8 c -1.32,-0.1 -2.65,0 -3.97,-0.2 -0.79,0 -1.32,-0.7 -1.59,-1.2 0,-0.5 0.27,-1.4 0.8,-1.8 0.26,-0.5 1.06,-0.8 1.59,-1 q 11.37,-3.8 22.49,-7.6 c 2.64,-0.8 5.06,-1.6 7.66,-2.5 0.8,-0.3 1.6,-1 2.9,-1.8 -1,-0.4 -1.3,-0.8 -1.8,-0.8 -6.91,-0.2 -14.06,0 -20.94,1.8 -3.7,0.9 -7.4,1.3 -11.11,2 -1.59,-3.4 -0.79,-6.1 1.85,-8 3.97,-2.9 7.94,-6 12.44,-8.2 8.73,-4.3 17.76,-8.7 26.76,-12.4 9.5,-3.8 19.3,-6.9 29.1,-9.1 4.5,-1 9,-1.9 13.5,-2.9 1.8,-0.5 3.4,0 4.7,1.5 a 19.99,19.99 0 0 1 5.1,11.9 c 0.2,3.1 0.2,6.2 0.7,9.4 0.6,2.1 0.6,4.6 0,6.8 -0.7,2.4 -0.7,4.9 -0.7,7.3 0,3.9 0,7.8 0,11.7 0.2,5.1 -1.1,10 -1.6,15.1 -0.6,3.1 -1.1,6.2 -1.6,9.3 -0.3,3.1 -0.5,6.3 -1.1,9.4 -1,7.2 -6.9,12.4 -14,12.6 -4,0.1 -8.2,0.1 -12.2,-0.1 -2.9,-0.1 -6.1,-0.4 -9,-1.1 -4.5,-1.1 -9.2,-1.2 -13.7,-2.6 -6.6,-1.9 -13.26,-4.1 -19.61,-6.5 -7.94,-2.9 -15.61,-6.3 -23.02,-10.2 -1.06,-0.5 -2.65,-0.6 -2.91,-2.3 z M 123,193 c 6.9,0.7 11.7,-3.7 12.2,-11.6 0.5,-5.3 -5.3,-10.6 -10.9,-10.7 -6.3,0 -11.9,5.3 -11.9,11.7 0,3.3 1.9,5.5 4,7.7 1.9,2.1 4,3.4 6.6,2.9 z m -1,18.1 c 0,-6 -4.3,-10.6 -10.1,-10.7 -5.8,-0.1 -10.8,5.2 -11.1,10.9 -0.5,4.9 4.8,10.5 10.8,10.4 5.3,0 11.2,-5.1 10.4,-10.6 z m 35.9,-6.6 c 0,-4.9 -4.2,-9.3 -9.2,-9.4 -5.3,-0.1 -9.8,4.3 -9.8,9.5 0,6.4 3.4,9.6 9.8,9.6 6.1,-0.1 9.2,-3.4 9.2,-9.7 z m -4.7,-43.6 c -1.6,0.4 -3.7,0.4 -5,1.3 -2.2,1.3 -3.7,3.2 -4.5,5.6 -0.3,0.7 -0.6,1.4 -0.6,2.1 1.4,7.4 6.4,11.5 14.1,8.5 3.9,-1.5 5.8,-5.2 4.7,-10.6 -0.5,-4.1 -4,-6.6 -8.7,-6.9 z m -16.7,81.8 c 4,0 9,-4.8 8.7,-9.5 -0.2,-4.8 -4.7,-9.5 -9.5,-9.5 -4.7,0.1 -9.5,5.2 -9.5,9.7 0.3,5.2 4.8,9.5 10.3,9.3 z"
         class="cls-25" />
      <path
         style="fill:#52a418;fill-opacity:1;stroke-width:0.26460001;image-rendering:optimizeQuality"
         inkscape:connector-curvature="0"
         id="path15687"
         d="m -30.45,240.5 c -2.91,2.2 -6.35,3.1 -9.52,4.1 -8.74,2.8 -17.47,5.3 -26.46,7.3 -3.71,0.9 -7.94,0.3 -12.18,0.2 -1.58,0 -2.91,-1.3 -3.44,-2.7 -1.58,-3.6 -3.44,-7.1 -4.23,-10.8 -1.59,-7.2 -2.38,-14.5 -3.7,-21.8 -1.06,-7 -0.53,-14 -0.8,-21 0,-4.1 0,-8.1 0,-12.2 -0.26,-5.7 1.06,-11.1 2.12,-16.6 a 11.18,11.18 0 0 1 1.85,-3.8 c 1.59,-2.2 3.44,-3.5 6.35,-3 4.5,0.8 8.73,1.8 13.23,2.8 q 5.56,1.2 10.85,2.6 c 1.85,0.5 3.97,1.2 6.09,1.9 13.76,4.3 26.99,9.4 40.48,14.9 2.382,1 2.911,2 2.382,4.4 -0.265,1.5 -0.794,3 -1.323,4.8 l -9.789,-1.2 c -4.5,-0.6 -9,-1.7 -13.5,-1.7 -1.05,0 -1.85,0.1 -2.64,0 -8.2,-2 -16.14,-0.8 -24.35,-0.9 -2.64,0 -5.29,1.2 -7.93,1.9 -0.53,0.1 -1.06,0.8 -1.06,1.1 0,0.6 0.53,1.5 1.06,1.7 1.85,0.6 3.97,1.5 6.08,1.4 6.88,-0.4 13.5,1.1 20.38,1.4 6.08,0.2 12.17,1.7 18.25,2.7 2.65,0.4 5.56,0.9 8.21,1.3 0.26,0.1 0.79,0 1.05,0.1 1.06,0.5 2.39,0.9 3.18,1.7 1.059,1.1 0.794,2.6 -0.26,4.2 -0.8,0.1 -1.86,0.4 -2.92,0.3 -3.43,-0.4 -6.61,0.9 -9.79,1.3 a 6.639,6.639 0 0 0 -5.02,3.5 c -0.53,0.9 0,2.4 0.79,2.5 a 14.59,14.59 0 0 0 2.65,0.2 c 5.02,-0.2 10.32,0.5 15.079,-0.9 1.323,1.4 1.059,2.8 0.794,4.2 -0.264,1.1 -1.058,1.6 -2.383,1.9 -1.85,0.5 -3.97,1.2 -6.08,1.7 -5.83,1.6 -11.65,3.1 -17.73,4.9 -5.82,1.8 -11.38,4.3 -16.94,7.2 0,0.1 -0.26,0.2 -0.53,0.3 -1.85,1.2 -2.64,2.7 -2.11,3.7 1.06,1.6 2.91,1.6 4.23,1.2 2.91,-0.7 5.56,-1.7 8.2,-2.6 2.38,-0.7 4.5,-1.8 7.15,-1.6 -0.27,3.4 1.59,5.6 4.23,7.4 z m -42.86,-43.3 c -1.59,0.6 -3.44,1 -5.03,1.8 -3.97,1.9 -6.09,4.9 -6.09,9.5 -0.26,4.1 1.59,6.9 4.5,9.6 3.18,3.1 9,2.9 11.64,1.2 3.71,-2.3 6.62,-8.3 5.82,-12.1 -1.32,-4.8 -3.7,-8.4 -8.73,-9.3 -0.79,-0.1 -1.32,-0.4 -2.11,-0.7 z m 13.23,40 c 0.79,-2.8 -1.06,-5 -3.44,-6.8 -4.24,-3.1 -7.68,-3.3 -11.38,0 -0.53,0.6 -1.06,1.3 -1.85,1.9 -4.24,4.8 -2.38,9 0.79,12.7 1.85,1.9 4.5,3.3 7.14,2.9 5.56,-0.8 8.74,-4.6 8.74,-10.7 z m 16.14,-16.7 c 5.82,0.1 10.32,-4.3 10.32,-9.7 -0.27,-5 -4.5,-9.3 -9.53,-9.4 -5.03,0 -9.53,4.3 -9.53,9.1 0,6.3 2.92,9.9 8.74,10 z m -32.02,-38.1 c 0.26,0 1.59,0 2.91,-0.6 4.76,-2.5 5.82,-8.4 2.38,-12.6 a 12.63,12.63 0 0 0 -2.64,-2.4 c -3.18,-2 -7.68,-1.3 -10.06,1.5 -2.64,3 -2.91,6.4 -1.59,9.9 1.33,3.5 4.24,4.3 9,4.2 z m 24.34,-4 c 0,3.3 2.65,6.1 5.82,6.1 3.97,0 6.88,-3 6.88,-7 0,-3.3 -3.17,-5.9 -6.88,-5.7 -3.44,0.1 -5.82,2.9 -5.82,6.6 z"
         class="cls-25" />
      <path
         style="fill:#52a418;fill-opacity:1;stroke-width:0.26460001;image-rendering:optimizeQuality"
         inkscape:connector-curvature="0"
         id="path15689"
         d="m 1.303,207.2 a 31.09,31.09 0 0 1 2.911,-16.4 c 1.852,-3.6 7.146,-9 10.846,-10.4 A 88.75,88.75 0 0 1 33.32,176 c 1.06,-0.1 2.12,-0.4 3.18,-0.6 5.55,-1.1 11.11,-0.4 16.66,1.3 5.03,1.5 8.21,5.2 10.06,10.1 0.26,0.5 0.53,1 0.53,1.5 -0.27,4.5 0.53,9.1 -0.79,13.6 -1.06,5.2 -2.39,10.3 -4.24,15.2 a 29.98,29.98 0 0 1 -2.64,5.2 c -4.77,7.7 -4.77,7.8 -12.44,12.4 -3.97,2.4 -8.47,3.5 -13.23,2.1 -3.97,-1.4 -8.47,-1.5 -12.7,-3.3 -2.38,-1 -4.76,-1.9 -7.15,-3.2 C 6.066,227.9 3.42,224 2.362,218.7 A 44.9,44.9 0 0 1 1.303,207.2 Z M 44.7,219.5 c 0,-7 -4.77,-10.3 -10.59,-10.6 -5.29,-0.2 -10.58,5.5 -10.58,10.7 0.26,5.2 5.56,10.6 10.85,10.4 6.08,-0.3 10.05,-4.5 10.32,-10.5 z m -7.41,-27.9 c -0.53,5 4.5,10.6 10.05,9.5 6.62,-1.2 10.06,-4.7 8.74,-12.1 -0.53,-4 -5.03,-7.7 -8.74,-7.6 a 10.1,10.1 0 0 0 -10.05,10.2 z m -26.46,3.5 c -0.53,5.8 4.23,9.9 9.26,9.6 5.29,-0.3 9.79,-4.5 9.79,-9.7 -0.26,-4.9 -4.76,-9.5 -9.53,-9.4 -4.76,0.2 -10.31,3.1 -9.52,9.5 z"
         class="cls-25" />
      <path
         style="fill:#8aca5d;fill-opacity:1;stroke-width:0.26460001;image-rendering:optimizeQuality"
         inkscape:connector-curvature="0"
         id="path15691"
         d="m -25.42,229.2 c 3.97,-1.2 7.94,-2.2 11.64,-3.5 2.65,-0.9 5.029,-1.3 7.939,-0.7 a 12.26,12.26 0 0 1 2.646,5.3 c -0.264,0.5 -0.529,0.9 -0.794,1 -6.081,2.7 -12.171,5.3 -18.521,7.1 -0.53,0.1 -1.06,0 -1.59,0 0,-0.3 0,-0.7 0.27,-1 1.05,-2.4 1.05,-4.7 -1.06,-6.8 -0.27,-0.3 -0.27,-1 -0.53,-1.4 z"
         class="cls-25" />
      <path
         style="fill:#8aca5d;fill-opacity:1;stroke-width:0.26460001;image-rendering:optimizeQuality"
         inkscape:connector-curvature="0"
         id="path15693"
         d="m -25.42,229.2 c 0.26,0.4 0.26,1.1 0.53,1.4 2.11,2.1 2.11,4.4 1.06,6.8 -0.27,0.3 -0.27,0.7 -0.27,1 l -6.35,2.1 c -2.64,-1.8 -4.5,-4 -4.23,-7.3 0.26,-0.6 0.79,-1.1 1.06,-1.7 1.58,-2.1 3.7,-2.9 6.35,-2.5 0.53,0.1 1.32,0.1 1.85,0.2 z"
         class="cls-26" />
      <path
         style="fill:#8aca5d;fill-opacity:1;stroke-width:0.26460001;image-rendering:optimizeQuality"
         inkscape:connector-curvature="0"
         id="path15929"
         d="m 123,193 c -2.6,0.5 -4.7,-0.8 -6.6,-2.9 -2.1,-2.2 -4,-4.4 -4,-7.7 0,-6.4 5.6,-11.7 11.9,-11.7 5.6,0.1 11.4,5.4 10.9,10.7 -0.5,7.9 -5.3,12.3 -12.2,11.6 z"
         class="cls-26" />
      <path
         style="fill:#8aca5d;fill-opacity:1;stroke-width:0.26460001;image-rendering:optimizeQuality"
         inkscape:connector-curvature="0"
         id="path15931"
         d="m 122,211.1 c 0.8,5.5 -5.1,10.6 -10.4,10.6 -6,0.1 -11.3,-5.5 -10.8,-10.4 0.3,-5.7 5.3,-11 11.1,-10.9 5.8,0.1 10.1,4.7 10.1,10.7 z"
         class="cls-26" />
      <path
         style="fill:#8aca5d;fill-opacity:1;stroke-width:0.26460001;image-rendering:optimizeQuality"
         inkscape:connector-curvature="0"
         id="path15933"
         d="m 157.9,204.5 c 0,6.3 -3.1,9.6 -9.2,9.7 -6.4,0 -9.8,-3.2 -9.8,-9.6 0,-5.2 4.5,-9.6 9.8,-9.5 5,0.1 9.2,4.5 9.2,9.4 z"
         class="cls-26" />
      <path
         style="fill:#8aca5d;fill-opacity:1;stroke-width:0.26460001;image-rendering:optimizeQuality"
         inkscape:connector-curvature="0"
         id="path15935"
         d="m 153.2,160.9 c 4.7,0.3 8.2,2.8 8.7,6.9 1.1,5.3 -0.8,9.1 -4.7,10.6 -7.7,2.9 -12.7,-1.1 -14.1,-8.5 0,-0.7 0.3,-1.4 0.6,-2.1 0.8,-2.4 2.3,-4.3 4.5,-5.6 1.3,-0.9 3.4,-0.9 5,-1.3 z"
         class="cls-26" />
      <path
         style="fill:#8aca5d;fill-opacity:1;stroke-width:0.26460001;image-rendering:optimizeQuality"
         inkscape:connector-curvature="0"
         id="path15937"
         d="m 136.5,242.7 c -5.5,0.2 -10,-4.1 -10.3,-9.3 0,-4.5 4.8,-9.6 9.5,-9.7 4.8,0 9.3,4.7 9.5,9.5 0.3,4.7 -4.7,9.5 -8.7,9.5 z"
         class="cls-26" />
      <path
         style="fill:#8aca5d;fill-opacity:1;stroke-width:0.26460001;image-rendering:optimizeQuality"
         inkscape:connector-curvature="0"
         id="path15939"
         d="m -73.31,197.2 c 0.79,0.3 1.32,0.6 2.11,0.7 5.03,0.9 7.41,4.5 8.73,9.3 0.8,3.8 -2.11,9.8 -5.82,12.1 -2.64,1.7 -8.46,1.9 -11.9,-1.2 -2.65,-2.7 -4.5,-5.5 -4.24,-9.6 0,-4.6 2.12,-7.6 6.09,-9.5 1.59,-0.8 3.44,-1.2 5.03,-1.8 z"
         class="cls-26" />
      <path
         style="fill:#8aca5d;fill-opacity:1;stroke-width:0.26460001;image-rendering:optimizeQuality"
         inkscape:connector-curvature="0"
         id="path15941"
         d="m -60.08,237.2 c 0,6.1 -3.18,9.9 -8.74,10.7 -2.91,0.4 -5.55,-1 -7.14,-2.9 -3.17,-3.7 -5.03,-7.9 -0.79,-12.7 0.53,-0.6 1.32,-1.2 1.85,-1.9 3.7,-3.3 7.14,-3.1 11.38,0 2.38,1.8 3.97,4 3.44,6.8 z"
         class="cls-26" />
      <path
         style="fill:#8aca5d;fill-opacity:1;stroke-width:0.26460001;image-rendering:optimizeQuality"
         inkscape:connector-curvature="0"
         id="path15943"
         d="m -43.94,220.5 c -5.82,-0.1 -8.74,-3.7 -8.74,-10 0,-4.8 4.5,-9.1 9.53,-9.1 5.03,0.1 9.26,4.4 9.53,9.4 0,5.4 -4.5,9.8 -10.32,9.7 z"
         class="cls-26" />
      <path
         style="fill:#8aca5d;fill-opacity:1;stroke-width:0.26460001;image-rendering:optimizeQuality"
         inkscape:connector-curvature="0"
         id="path15945"
         d="m -75.96,182.4 c -4.76,0.1 -7.67,-0.7 -9,-4.2 -1.32,-3.5 -1.05,-6.9 1.59,-9.9 2.38,-2.8 6.88,-3.5 10.06,-1.5 a 12.63,12.63 0 0 1 2.64,2.4 c 3.44,4.2 2.38,10.1 -2.38,12.6 -1.32,0.6 -2.65,0.6 -2.91,0.6 z"
         class="cls-26" />
      <path
         style="fill:#8aca5d;fill-opacity:1;stroke-width:0.26460001;image-rendering:optimizeQuality"
         inkscape:connector-curvature="0"
         id="path15947"
         d="m -51.62,178.4 c 0,-3.7 2.38,-6.5 5.82,-6.6 3.71,-0.2 6.88,2.4 6.88,5.7 0,4 -2.91,7 -6.88,7 -3.17,0 -5.82,-2.8 -5.82,-6.1 z"
         class="cls-26" />
      <path
         style="fill:#8aca5d;fill-opacity:1;stroke-width:0.26460001;image-rendering:optimizeQuality"
         inkscape:connector-curvature="0"
         id="path15949"
         d="m 44.7,219.5 c -0.27,6 -4.24,10.2 -10.32,10.5 -5.29,0.2 -10.59,-5.2 -10.85,-10.4 0,-5.2 5.29,-10.9 10.58,-10.7 5.82,0.3 10.59,3.6 10.59,10.6 z"
         class="cls-26" />
      <path
         style="fill:#8aca5d;fill-opacity:1;stroke-width:0.26460001;image-rendering:optimizeQuality"
         inkscape:connector-curvature="0"
         id="path15951"
         d="m 37.29,191.6 a 10.1,10.1 0 0 1 10.05,-10.2 c 3.71,-0.1 8.21,3.6 8.74,7.6 1.32,7.4 -2.12,10.9 -8.74,12.1 -5.55,1.1 -10.58,-4.5 -10.05,-9.5 z"
         class="cls-26" />
      <path
         style="fill:#8aca5d;fill-opacity:1;stroke-width:0.26460001;image-rendering:optimizeQuality"
         inkscape:connector-curvature="0"
         id="path15953"
         d="m 10.83,195.1 c -0.79,-6.4 4.76,-9.3 9.52,-9.5 4.77,-0.1 9.27,4.5 9.53,9.4 0,5.2 -4.5,9.4 -9.79,9.7 -5.03,0.3 -9.79,-3.8 -9.26,-9.6 z"
         class="cls-26" />
    </g>
    <g
       id="g22904"
       transform="matrix(0.0998,0,0,0.0998,91.77,86.37)">
      <path
         style="fill:#3d7f0e;fill-opacity:1;stroke-width:0.26460001"
         id="path13709"
         d="m 92.73,233.3 c -5.1,-1.1 -10.1,-0.7 -15.4,-0.2 -0.3,1.2 -0.5,2.1 -0.8,3.1 -0.5,4.2 -2.1,8.1 -4,12 -13.5,29.3 -44.41,41.5 -70.63,37.3 Q -28,280.7 -46,256.5 c -9.8,-12.9 -15.6,-27.5 -17.7,-43.6 -0.8,-6.1 -1.1,-12.3 0.8,-18.3 a 36.01,36.01 0 0 1 3.4,-8.3 c 2.4,-4.3 6.7,-6.3 11.7,-5.7 4.2,0.5 8.7,1.2 13,2.1 q 34.6,7.7 69.54,15.6 c 9.49,2.1 18.49,5.6 27.29,9.7 4.2,2 7.9,4.7 10.5,8.5 0.6,0.7 1.1,1.3 1.9,2.2 6.9,-2.2 13.8,-2.7 20.6,0.1 0.6,-0.6 1.1,-0.9 1.4,-1.3 3.1,-5.1 7.87,-8.3 13.17,-10.7 8.5,-3.9 16.9,-7.2 25.9,-9.3 q 24.9,-6 49.8,-11.8 c 9,-2.1 17.6,-4 26.4,-5.9 a 50.48,50.48 0 0 1 6.3,-0.9 c 4.8,-0.4 8.5,1.7 11.1,5.7 2.4,4.1 3.7,8.7 4.3,13.5 1,8.3 0,16.5 -2.2,24.6 -3.9,16 -11.3,30.3 -23.2,41.9 -16.4,15.8 -36,23 -58.5,20.2 -26.4,-3.3 -44.7,-17.9 -54.47,-42.7 -1,-2.8 -1.6,-5.8 -2.3,-8.8 z M 15.2,273.5 c 2.07,0 3.4,0 4.98,0 7.15,0.3 13.76,-2.3 20.15,-5.7 8.7,-4.9 15.3,-12 20.6,-20.7 a 34.34,34.34 0 0 0 4,-10.2 c 2.1,-9.2 -0.3,-15.1 -8.2,-20.5 0,-0.1 -0.3,-0.2 -0.3,-0.3 -4.5,-3.4 -9.8,-5.2 -14.8,-6.7 -11.66,-3.4 -23.3,-6.7 -35.43,-8.6 -4.5,-0.8 -9,-1 -13.5,-1.4 -5.8,-0.6 -11.7,0.4 -17.5,1.1 -9,1.2 -15.9,5.8 -19.6,14.7 -2.6,6.4 -3.4,13 -0.8,19.5 5.3,12.6 13.8,22.3 26,28.9 2.1,1.1 4.5,2.3 6.6,3.3 9,4.1 18.2,7.5 27.8,6.6 z M 182.1,200 c -5.6,0.6 -11.7,0.7 -17.5,1.8 -13.5,2.4 -26.7,6.2 -39.7,10.6 -5.3,1.7 -10,4.6 -14.3,7.9 -2.9,2 -4.7,5 -5.2,8.4 -0.6,4.9 -0.3,9.7 1.8,14.5 4.2,10.6 11.9,18.8 21.4,24.8 11.1,7.1 23.8,9 37.1,6 7.4,-1.7 14.5,-4.5 21.7,-8.1 10.3,-5.2 18.4,-12.7 24.3,-22.6 1.8,-2.8 3.4,-5.9 4.2,-9.1 0.8,-3.2 2.1,-6.4 1.3,-9.8 -1,-3.9 -2.1,-7.8 -4,-11.4 -3.4,-6.8 -9.2,-10 -16,-11.4 -5.1,-1 -9.8,-1.1 -15.1,-1.6 z m 43.3,6.6 c 1.3,0 2.7,-1.3 2.7,-2.8 0,-1.6 -1.1,-2.9 -2.4,-3.1 -1.6,-0.2 -2.9,1.2 -2.9,3.1 0,1.5 1.3,2.8 2.6,2.8 z m -256,-18.7 c -1.1,0 -2.4,1 -2.4,2.2 -0.3,1.6 1.3,3.4 2.9,3.5 1.1,0.1 2.1,-1.1 2.1,-2.4 0,-1.8 -1,-3.2 -2.6,-3.3 z m 248.1,4.5 c -1.1,-0.1 -2.7,1.4 -2.7,2.6 -0.2,1 1.4,2.7 2.4,3 1.3,0.2 3.2,-1.6 3.2,-2.9 -0.3,-1.2 -1.6,-2.7 -2.9,-2.7 z m -14.8,-0.9 c 0,-1.5 -0.6,-2.5 -1.9,-2.6 -1.5,-0.2 -3.1,0.9 -3.1,2.4 -0.3,1.4 1,2.5 2.6,2.7 1.3,0.1 2.4,-0.8 2.4,-2.5 z M -55,200.6 c -1.6,0 -2.6,1.2 -2.6,2.8 0,1.4 0.8,2.3 2.1,2.3 1.6,-0.1 2.9,-1 2.9,-2.4 0.3,-1.3 -1,-2.7 -2.4,-2.7 z m 6.7,-15.7 c 0,-1.4 -1.6,-2.5 -3,-2.2 -1.3,0.3 -2.1,1.5 -2.1,3.1 0.3,1.3 1.3,2.1 2.7,1.9 1.6,-0.2 2.6,-1.4 2.4,-2.8 z m 0.2,12.3 c 1.6,0.1 2.9,-0.8 2.9,-2.2 a 2.566,2.566 0 0 0 -2.1,-2.8 c -1.6,-0.1 -2.6,0.9 -2.9,2.5 0,1.4 0.8,2.4 2.1,2.5 z m 6.9,-7.6 c 1.3,0.1 2.4,-1 2.6,-2.6 0,-1.3 -0.8,-2.3 -2.1,-2.4 -1.6,0 -2.6,0.8 -2.9,2.2 a 2.564,2.564 0 0 0 2.4,2.8 z m -13.5,4.9 c 0,-1.6 -1.6,-2.7 -3.2,-2.4 -1,0.1 -1.8,1 -1.8,2.2 0,1.5 1,2.7 2.4,2.8 1.5,0 2.6,-1.3 2.6,-2.6 z m 265.8,-4.7 c 1.4,0 2.1,-0.9 2.1,-2.3 0,-1.6 -1,-2.7 -2.3,-2.7 a 2.627,2.627 0 0 0 -2.7,2.1 c -0.2,1.6 1.1,2.8 2.9,2.9 z m -262.6,28.1 c 0,-1.3 -1.1,-2.5 -2.7,-2.6 -1.3,-0.2 -2.4,0.7 -2.4,2 0,1.6 0.8,2.8 2.4,3 a 2.574,2.574 0 0 0 2.7,-2.4 z m 278.5,0 a 2.582,2.582 0 0 0 -2.9,-2.5 2.619,2.619 0 0 0 -2.1,2.5 2.577,2.577 0 0 0 2.6,2.5 2.588,2.588 0 0 0 2.4,-2.5 z m 0.5,-20.8 a 2.572,2.572 0 0 0 2.4,-2.7 2.63,2.63 0 0 0 -2.4,-2.3 2.556,2.556 0 0 0 -2.3,2.8 2.58,2.58 0 0 0 2.3,2.2 z m -6.8,-13.6 c -1.4,0.1 -2.2,1 -2.2,2.4 0,1.4 1.1,2.6 2.2,2.5 1.5,0 2.9,-1.8 2.9,-3.1 -0.3,-1 -1.6,-1.8 -2.9,-1.8 z"
         class="cls-8"
         inkscape:connector-curvature="0" />
      <path
         style="stroke-width:0.26460001"
         id="path15701"
         d="m 15.2,273.5 c -9.6,0.9 -18.8,-2.5 -27.8,-6.6 -2.1,-1 -4.5,-2.2 -6.6,-3.3 -12.2,-6.6 -20.7,-16.3 -26,-28.9 -2.6,-6.5 -1.8,-13.1 0.8,-19.5 3.7,-8.8 10.6,-13.5 19.6,-14.7 5.8,-0.6 11.7,-1.6 17.5,-1.1 4.5,0.4 9,0.6 13.5,1.4 11.87,2 23.77,5.2 35.43,8.6 5,1.5 10.3,3.3 14.8,6.7 0,0.1 0.3,0.2 0.3,0.3 7.9,5.4 10.3,11.3 8.2,20.5 a 34.34,34.34 0 0 1 -4,10.2 c -5.3,8.7 -11.9,15.8 -20.9,20.7 -6.09,3.4 -12.7,6 -19.85,5.8 -1.58,-0.1 -2.91,-0.1 -4.98,-0.1 z m -1.4,-67.2 c -1.5,-0.2 -2.9,0.5 -3.1,1.9 -0.6,1.4 0.5,2.9 2.1,3.6 0.8,0.3 1.8,0.3 2.6,0.6 6.37,1.6 12.72,3.2 18.81,4.9 6.92,1.9 13.22,5.1 18.82,9.2 0.8,0.5 1.3,1.1 2.1,1.5 a 2.646,2.646 0 0 0 3.2,-0.4 c 0.7,-0.7 1,-2.5 0.2,-3.4 -1,-1.3 -2.4,-2.6 -3.7,-3.5 -4.7,-3.2 -9.8,-6.2 -15.6,-7.8 q -10.84,-3 -21.69,-6 c -1.04,-0.3 -2.34,-0.4 -3.74,-0.6 z"
         class="cls-29"
         inkscape:connector-curvature="0" />
      <path
         style="stroke-width:0.26460001"
         id="path15703"
         d="m 182.1,200 c 5.3,0.5 10,0.6 15.1,1.6 6.8,1.4 12.6,4.6 16,11.3 1.9,3.7 3,7.6 4,11.5 0.8,3.4 -0.5,6.7 -1.3,9.8 -0.8,3.2 -2.4,6.3 -4.2,9.1 -5.9,9.9 -14,17.4 -24.3,22.6 -7.2,3.6 -14.3,6.4 -21.7,8.1 -13.3,3 -25.7,1.1 -37.1,-6 -9.5,-6 -17.2,-14.2 -21.4,-24.8 -2.1,-4.8 -2.4,-9.6 -1.8,-14.5 0.5,-3.4 2.3,-6.4 5.2,-8.4 4.3,-3.2 9,-6.2 14.3,-7.9 13,-4.4 26.2,-8.2 39.7,-10.6 5.8,-1.1 11.9,-1.2 17.5,-1.8 z m 20.3,11.4 c -0.5,-0.5 -1.1,-1.8 -2.1,-2.2 -2.3,-1 -4.7,-2.1 -7.4,-2.4 -14.3,-2.2 -28,-0.5 -41.8,3.5 a 7.623,7.623 0 0 0 -1.3,0.6 c -1.3,0.7 -1.9,2 -1.6,3.1 a 2.955,2.955 0 0 0 3.2,2.1 17.68,17.68 0 0 0 2.6,-0.7 c 10.9,-3.2 21.7,-3.9 32.8,-3.5 3.5,0.1 6.9,0.6 9.8,1.9 a 12.44,12.44 0 0 0 3.2,0.9 c 1.3,0.2 2.6,-1.4 2.6,-3.3 z"
         class="cls-29"
         inkscape:connector-curvature="0" />
      <path
         style="fill:#65ce1b;fill-opacity:1;stroke-width:0.26460001"
         id="path15705"
         d="m 225.4,206.6 c -1.3,0 -2.4,-1.3 -2.6,-2.8 0,-1.9 1.3,-3.3 2.9,-3.1 1.3,0.2 2.4,1.5 2.4,3.1 -0.3,1.5 -1.4,2.8 -2.7,2.8 z"
         class="cls-26"
         inkscape:connector-curvature="0" />
      <path
         style="fill:#65ce1b;fill-opacity:1;stroke-width:0.26460001"
         id="path15707"
         d="m -30.6,187.9 c 1.6,0.1 2.6,1.5 2.6,3.3 0,1.3 -1,2.5 -2.1,2.4 -1.6,-0.1 -3.2,-1.9 -2.9,-3.5 0,-1.2 1.3,-2.2 2.4,-2.2 z"
         class="cls-26"
         inkscape:connector-curvature="0" />
      <path
         style="fill:#65ce1b;fill-opacity:1;stroke-width:0.26460001"
         id="path15709"
         d="m 217.5,192.4 c 1.3,0 2.6,1.5 2.9,2.7 0,1.3 -1.9,3.1 -3.2,2.9 -1.3,-0.3 -2.6,-2 -2.4,-3 0,-1.2 1.6,-2.7 2.7,-2.6 z"
         class="cls-26"
         inkscape:connector-curvature="0" />
      <path
         style="fill:#65ce1b;fill-opacity:1;stroke-width:0.26460001"
         id="path15711"
         d="m 202.7,191.5 c 0,1.7 -1.1,2.7 -2.4,2.5 -1.6,-0.2 -2.9,-1.3 -2.6,-2.7 0,-1.5 1.6,-2.6 3.1,-2.4 1.3,0.1 1.9,1.1 1.9,2.6 z"
         class="cls-26"
         inkscape:connector-curvature="0" />
      <path
         style="fill:#65ce1b;fill-opacity:1;stroke-width:0.26460001"
         id="path15713"
         d="m -55,200.6 c 1.4,0 2.7,1.4 2.4,2.7 0,1.4 -1.3,2.3 -2.9,2.4 -1.3,0 -2.1,-0.9 -2.1,-2.3 0,-1.6 1,-2.8 2.6,-2.8 z"
         class="cls-26"
         inkscape:connector-curvature="0" />
      <path
         style="fill:#65ce1b;fill-opacity:1;stroke-width:0.26460001"
         id="path15715"
         d="m -48.3,184.9 c 0.2,1.4 -0.8,2.6 -2.4,2.8 -1.4,0.2 -2.4,-0.6 -2.7,-1.8 0,-1.7 0.8,-2.9 2.1,-3.2 1.4,-0.3 3,0.8 3,2.2 z"
         class="cls-26"
         inkscape:connector-curvature="0" />
      <path
         style="fill:#65ce1b;fill-opacity:1;stroke-width:0.26460001"
         id="path15717"
         d="m -48.1,197.2 c -1.3,-0.1 -2.1,-1.1 -2.1,-2.5 0.3,-1.6 1.3,-2.6 2.9,-2.5 a 2.566,2.566 0 0 1 2.1,2.8 c -0.2,1.4 -1.3,2.3 -2.9,2.2 z"
         class="cls-26"
         inkscape:connector-curvature="0" />
      <path
         style="fill:#65ce1b;fill-opacity:1;stroke-width:0.26460001"
         id="path15719"
         d="m -41.2,189.6 a 2.564,2.564 0 0 1 -2.4,-2.8 c 0,-1.4 1.3,-2.2 2.9,-2.2 1.3,0.1 2.1,1.1 2.1,2.4 -0.2,1.6 -1.3,2.7 -2.6,2.6 z"
         class="cls-26"
         inkscape:connector-curvature="0" />
      <path
         style="fill:#65ce1b;fill-opacity:1;stroke-width:0.26460001"
         id="path15721"
         d="m -54.7,194.5 c 0,1.3 -1.1,2.6 -2.6,2.6 -1.4,-0.1 -2.4,-1.3 -2.4,-2.8 0,-1.2 0.8,-2.1 1.8,-2.2 1.6,-0.3 3.2,0.8 3.2,2.4 z"
         class="cls-26"
         inkscape:connector-curvature="0" />
      <path
         style="fill:#65ce1b;fill-opacity:1;stroke-width:0.26460001"
         id="path15723"
         d="m 211.1,189.8 c -1.8,-0.1 -3.1,-1.3 -2.9,-2.9 a 2.627,2.627 0 0 1 2.7,-2.1 c 1.3,0 2.3,1.1 2.3,2.7 0,1.4 -0.7,2.3 -2.1,2.3 z"
         class="cls-26"
         inkscape:connector-curvature="0" />
      <path
         style="fill:#65ce1b;fill-opacity:1;stroke-width:0.26460001"
         id="path15725"
         d="m -51.5,217.9 a 2.574,2.574 0 0 1 -2.7,2.4 c -1.6,-0.2 -2.4,-1.4 -2.4,-3 0,-1.3 1.1,-2.2 2.4,-2 1.6,0.1 2.7,1.3 2.7,2.6 z"
         class="cls-26"
         inkscape:connector-curvature="0" />
      <path
         style="fill:#65ce1b;fill-opacity:1;stroke-width:0.26460001"
         id="path15727"
         d="m 227,217.9 a 2.588,2.588 0 0 1 -2.4,2.5 2.577,2.577 0 0 1 -2.6,-2.5 2.619,2.619 0 0 1 2.1,-2.5 2.582,2.582 0 0 1 2.9,2.5 z"
         class="cls-26"
         inkscape:connector-curvature="0" />
      <path
         style="fill:#65ce1b;fill-opacity:1;stroke-width:0.26460001"
         id="path15729"
         d="m 227.5,197.1 a 2.58,2.58 0 0 1 -2.3,-2.2 2.556,2.556 0 0 1 2.3,-2.8 2.63,2.63 0 0 1 2.4,2.3 2.572,2.572 0 0 1 -2.4,2.7 z"
         class="cls-26"
         inkscape:connector-curvature="0" />
      <path
         style="fill:#65ce1b;fill-opacity:1;stroke-width:0.26460001"
         id="path15731"
         d="m 220.7,183.5 c 1.3,0 2.6,0.8 2.6,1.8 0.3,1.3 -1.1,3.1 -2.6,3.1 -1.1,0.1 -2.2,-1.1 -2.2,-2.5 0,-1.4 0.8,-2.3 2.2,-2.4 z"
         class="cls-26"
         inkscape:connector-curvature="0" />
      <path
         style="fill:#dcdcdc;fill-opacity:1;stroke-width:0.26460001"
         id="path15955"
         d="m 13.8,206.3 c 1.4,0.2 2.7,0.3 3.74,0.6 q 10.85,3 21.69,6 c 5.8,1.6 10.9,4.6 15.6,7.8 1.3,0.9 2.7,2.2 3.7,3.5 0.8,0.9 0.5,2.7 -0.2,3.4 a 2.646,2.646 0 0 1 -3.2,0.4 c -0.8,-0.4 -1.3,-1 -2.1,-1.5 -5.6,-4.1 -11.9,-7.3 -18.82,-9.1 -6.09,-1.8 -12.44,-3.4 -18.81,-5 -0.8,-0.3 -1.8,-0.3 -2.6,-0.6 -1.6,-0.6 -2.7,-2.2 -2.1,-3.6 0.2,-1.4 1.6,-2.1 3.1,-1.9 z"
         class="cls-22"
         inkscape:connector-curvature="0" />
    </g>
    <path
       inkscape:connector-curvature="0"
       class="cls-12"
       d="m 164.2,101 c 0.1,-0.1 0.3,-0.1 0.4,-0.1 0.5,0.1 0.7,0.5 0.5,1 a 2.867,2.867 0 0 1 -0.4,0.5 2.916,2.916 0 0 1 -0.4,0.5 c -1.6,1.2 -3.1,2.3 -5,2.8 -0.2,0 -0.4,0.1 -0.6,0.2 -0.5,0.1 -0.9,0.3 -1.4,0 -0.1,0.1 -0.1,0.1 -0.1,0.2 -1.3,2.1 -2.4,4.1 -3.7,6.1 -2.3,3.8 -4.7,7.6 -7,11.3 -0.3,0.6 -0.6,1.1 -1,1.6 a 2.778,2.778 0 0 1 -0.5,0.6 1.469,1.469 0 0 1 -2.3,-1.6 2.408,2.408 0 0 1 0.3,-0.6 c 0.2,-0.4 0.4,-0.7 0.7,-1.1 q 5.1,-7 10.3,-14.1 c 0.7,-1 1.5,-2 2.3,-3 0.1,-0.1 0.2,-0.2 0.2,-0.3 0,0 -0.1,-0.1 -0.1,-0.1 -0.5,-0.3 -0.7,-0.8 -0.6,-1.3 0,-0.4 0.1,-0.9 0.2,-1.4 0.2,-1.6 0.2,-3.18 0.1,-4.68 0,-0.3 0,-0.5 0,-0.7 0,-0.2 0.1,-0.4 0.3,-0.5 0.2,-0.1 0.5,0 0.6,0.2 a 3.773,3.773 0 0 1 0.4,0.8 c 0.3,0.7 0.4,1.4 0.5,2.1 0,0.2 0,0.4 0.2,0.58 0,-0.08 0.1,-0.18 0.2,-0.18 0.5,-1.4 1.1,-2.8 1.4,-4.2 a 1.361,1.361 0 0 1 0,-0.3 c 0.2,-0.3 0.4,-0.4 0.6,-0.4 0.2,0 0.5,0.2 0.6,0.5 a 2.947,2.947 0 0 1 0,0.8 15.34,15.34 0 0 1 -0.3,1.7 c -0.2,0.6 -0.4,1.2 -0.6,1.9 -0.1,0.18 -0.1,0.28 -0.1,0.58 0.2,-0.2 0.3,-0.2 0.4,-0.3 0.5,-0.78 0.9,-1.58 1.2,-2.48 0.2,-0.4 0.4,-0.8 0.5,-1.2 a 2.943,2.943 0 0 1 0.4,-0.6 c 0.2,-0.2 0.4,-0.3 0.7,-0.2 0.2,0.1 0.3,0.3 0.3,0.6 a 2.284,2.284 0 0 1 0,0.4 c -0.2,1 -0.4,2 -0.9,3 -0.1,0.1 -0.2,0.2 -0.1,0.38 0.2,0.1 0.2,0 0.3,-0.08 q 0.5,-0.6 1.1,-1.3 c 0.1,-0.1 0.3,-0.4 0.4,-0.6 a 1.605,1.605 0 0 1 0.4,-0.2 c 0.4,-0.2 0.8,0 0.8,0.4 a 1.079,1.079 0 0 1 -0.1,0.4 q -0.4,0.8 -0.8,1.48 c -0.1,0.3 -0.3,0.5 -0.4,0.7 -0.1,0.1 -0.1,0.1 -0.1,0.2 0.1,0.1 0.2,0 0.2,0 z m -4.3,-0.6 a 0.4525,0.4525 0 0 0 -0.1,0.1 c 0,0 0.1,0.1 0.1,0.1 a 0.4525,0.4525 0 0 0 0,-0.1 c 0,0 0,-0.1 0,-0.1 z m 2.4,-0.3 c 0,0 0,0.1 0,0.1 a 0.4576,0.4576 0 0 0 0,0.1 c 0,0 0.1,-0.1 0.1,-0.1 a 0.4437,0.4437 0 0 0 -0.1,-0.1 z"
       id="path13719"
       style="fill:#a5c94c;fill-opacity:1;stroke-width:0.0365" />
    <path
       inkscape:connector-curvature="0"
       class="cls-12"
       d="m 37.81,105.3 c -0.29,-0.6 -0.59,-1.2 -0.85,-1.8 -0.23,-0.4 -0.4,-0.9 -0.58,-1.4 a 1.8,1.8 0 0 1 -0.1,-0.5 c 0,-0.2 0.14,-0.4 0.33,-0.5 0.18,0 0.36,0 0.48,0.1 0.15,0.2 0.28,0.3 0.4,0.5 0.47,0.7 0.94,1.4 1.41,2 0.08,0.1 0.19,0.2 0.4,0.4 -0.06,-0.3 -0.08,-0.5 -0.14,-0.6 -0.19,-0.7 -0.41,-1.4 -0.58,-2 -0.07,-0.3 -0.08,-0.6 -0.08,-0.9 0,-0.3 0.17,-0.5 0.39,-0.5 0.2,0 0.37,0.1 0.47,0.3 0.06,0.1 0.11,0.3 0.16,0.4 0.48,1.3 1.12,2.5 1.77,3.6 0.04,0.1 0.11,0.2 0.19,0.3 0.12,-0.2 0.07,-0.3 0.07,-0.4 -0.03,-0.5 -0.1,-1 -0.1,-1.6 0,-0.3 0.07,-0.6 0.13,-1 a 1.378,1.378 0 0 1 0.19,-0.5 c 0.12,-0.1 0.33,-0.2 0.56,-0.2 0.21,0.1 0.35,0.2 0.39,0.4 a 4.08,4.08 0 0 1 0.1,0.5 c 0.23,1.8 0.7,3.5 1.24,5.2 0.11,0.3 0.23,0.7 0.33,1 0.07,0.3 0.08,0.6 0.11,0.9 0.03,0.2 0.05,0.5 0.07,0.7 0.01,0.3 0.18,0.6 0.38,0.9 2.05,2.8 4.1,5.6 6.13,8.4 1.35,1.9 2.66,3.9 3.98,5.8 a 8.21,8.21 0 0 1 0.54,0.9 1.308,1.308 0 0 1 0.06,1.1 1.324,1.324 0 0 1 -1.92,0.6 c -0.28,-0.1 -0.48,-0.4 -0.65,-0.6 q -0.41,-0.7 -0.81,-1.3 c -2.59,-4.2 -5.16,-8.4 -7.6,-12.7 -0.33,-0.6 -0.66,-1.2 -1.01,-1.8 -0.18,0 -0.34,0 -0.51,0 -0.76,0.1 -1.5,0 -2.26,-0.1 a 5.846,5.846 0 0 1 -1.85,-0.6 c -0.8,-0.4 -1.57,-0.9 -2.22,-1.5 -0.37,-0.4 -0.67,-0.8 -0.99,-1.2 -0.08,-0.1 -0.13,-0.2 -0.18,-0.3 -0.07,-0.2 -0.11,-0.4 0,-0.6 0.14,-0.2 0.36,-0.2 0.58,-0.2 l 0.22,0.1 c 0.01,0.2 0.14,0.3 0.27,0.3 l 0.1,0.1 -0.03,-0.2 -0.27,-0.4 a 0.2164,0.2164 0 0 0 -0.1,0 c -0.26,-0.5 -0.52,-1 -0.76,-1.5 a 3.838,3.838 0 0 1 -0.29,-0.8 c -0.02,-0.2 0.03,-0.4 0.09,-0.5 0.06,-0.2 0.31,-0.2 0.44,-0.1 a 2.524,2.524 0 0 1 0.31,0.4 c 0.42,0.6 0.86,1.1 1.4,1.5 0.08,0.2 0.2,0.3 0.47,0.4 -0.06,-0.2 -0.07,-0.3 -0.11,-0.4 -0.05,0 -0.11,-0.1 -0.17,-0.1 z m 1.55,-1.2 c -0.02,0 -0.03,0 -0.05,0 a 0.4222,0.4222 0 0 0 -0.04,0.1 c 0,0 0.03,0 0.04,0 z"
       id="path13723"
       style="fill:#a5c94c;fill-opacity:1;stroke-width:0.0365" />
    <path
       inkscape:connector-curvature="0"
       class="cls-1"
       d="m 60.11,171.8 c 0.06,0 0.12,0.1 0.17,0.1 0.04,0.1 0.05,0.2 0.11,0.4 -0.27,-0.1 -0.39,-0.2 -0.47,-0.4 z"
       id="path15457"
       style="stroke-width:0.0365" />
    <path
       inkscape:connector-curvature="0"
       class="cls-24"
       d="m 59.03,173.4 c -0.13,0 -0.26,-0.1 -0.27,-0.3 l 0.07,-0.2 0.27,0.4 c -0.02,0 -0.04,0.1 -0.07,0.1 z"
       id="path15751"
       style="stroke-width:0.0365" />
    <path
       inkscape:connector-curvature="0"
       class="cls-24"
       d="m 59.1,173.3 0.03,0.2 -0.1,-0.1 c 0.03,0 0.05,-0.1 0.07,-0.1 z"
       id="path15753"
       style="stroke-width:0.0365" />
    <path
       inkscape:connector-curvature="0"
       class="cls-4"
       d="m 115.8,123 q 0,6.7 0,13.5 0,9.2 0,18.2 c 0,0.2 0,0.2 0,0.3 0,0.1 0.4,0.3 0.6,0.3 0.4,0 0.6,-0.2 0.6,-0.3 a 2.45,0.9257 0 0 0 0,-0.1 c 0,-0.1 0,-0.1 0,-0.2 q 0,-22.6 0,-45.2 0,-9.1 0,-18.26 c 0,-0.08 0,-0.15 0,-0.22 0,-0.14 -0.4,-0.24 -0.6,-0.24 -0.4,0 -0.6,0.1 -0.6,0.24 0,0.08 0,0.16 0,0.24 q 0,7.82 0,15.64 0,8 0,16.1 z"
       id="path13693"
       style="fill:#688e07;fill-opacity:1;stroke-width:0.0172" />
    <path
       style="opacity:1;vector-effect:none;fill:#688e07;fill-opacity:0.4;fill-rule:evenodd;stroke:#a3a3a3;stroke-width:1.00010002;stroke-linecap:butt;stroke-linejoin:miter;stroke-miterlimit:4;stroke-dasharray:none;stroke-dashoffset:0;stroke-opacity:1"
       d="m 440.7,377.7 v 152.6 h 40.1 c 0.7,0 2.2,0.3 3,0.3 1.9,0 3.4,0.4 4.9,0.4 h 83.9 3 c 1.9,0.8 3.4,0.8 4.9,0.8 h 82.8 3 c 1.5,0.4 3.4,0.4 4.9,0.4 h 61.3 c 0.4,0 1.5,0.3 2.2,0 0.4,0 1.9,0 2.3,-0.4 V 531 c -1.1,0 -3,-0.4 -4.2,-0.7 -4.9,-0.8 -9.4,-1.5 -14.3,-2.7 -6.1,-1.5 -12.9,-3 -18.9,-5.3 -4.2,-1.5 -8.3,-2.6 -12.1,-4.1 -3,-0.8 -5.3,-1.5 -7.6,-2.7 -7.1,-3.4 -14.3,-6.8 -21.9,-9.8 -6.4,-3 -12.8,-6.8 -18.9,-10.2 -4.9,-3 -9.8,-6.1 -14.3,-9.1 -6.1,-3.8 -11,-7.5 -17.1,-10.9 -5.2,-4.2 -10.5,-8 -15.8,-11.8 -5.3,-3.7 -10.6,-7.5 -15.5,-11.3 -3.8,-2.6 -7.2,-5.3 -11,-7.9 l -5.3,-3.8 c -3,-2.3 -6,-4.5 -9.4,-6.8 -7.2,-4.9 -14.8,-9.8 -21.6,-14.4 -5.6,-3.4 -11.3,-7.2 -16.6,-10.6 -6.8,-4.9 -14.7,-8.6 -21.9,-12.4 -4.9,-2.7 -9.5,-4.6 -14,-6.5 -4.5,-1.8 -9.1,-3.7 -14,-5.2 -6.4,-2.3 -12.5,-4.2 -18.5,-6.1 -1.1,-0.4 -2.3,-0.7 -3.4,-1 z"
       transform="scale(0.2646)"
       id="rect22948"
       inkscape:connector-curvature="0" />
    <text
       xml:space="preserve"
       style="font-style:normal;font-variant:normal;font-weight:normal;font-stretch:normal;font-size:8.4666996px;line-height:1em;font-family:sans-serif;-inkscape-font-specification:'sans-serif, Normal';font-variant-ligatures:normal;font-variant-caps:normal;font-variant-numeric:normal;font-feature-settings:normal;text-align:center;letter-spacing:0px;word-spacing:0px;writing-mode:lr-tb;baseline-shift:baseline;text-anchor:middle;fill:#000000;fill-opacity:1;stroke:none;stroke-width:0.26460001"
       x="101.3"
       y="163"
       id="text10086-5"
       inkscape:export-xdpi="300"
       inkscape:export-ydpi="300"><tspan
         sodipodi:role="line"
         x="101.3"
         y="163"
         style="font-style:normal;font-variant:normal;font-weight:normal;font-stretch:normal;line-height:0em;font-family:Karumbi;-inkscape-font-specification:Karumbi;baseline-shift:baseline;stroke-width:0.26460001"
         id="tspan1352">When the standardized score results in a p-value &gt; 0.05,</tspan><tspan
         sodipodi:role="line"
         x="101.3"
         y="171.46671"
         style="font-style:normal;font-variant:normal;font-weight:normal;font-stretch:normal;line-height:0em;font-family:Karumbi;-inkscape-font-specification:Karumbi;baseline-shift:baseline;stroke-width:0.26460001"
         id="tspan23279">we cannot reject the null hypothesis</tspan><tspan
         sodipodi:role="line"
         x="101.3"
         y="179.9334"
         style="font-style:normal;font-variant:normal;font-weight:normal;font-stretch:normal;line-height:0em;font-family:Karumbi;-inkscape-font-specification:Karumbi;baseline-shift:baseline;stroke-width:0.26460001"
         id="tspan23281">Our evidence might have arisen by chance alone</tspan></text>
    <text
       xml:space="preserve"
       style="font-style:normal;font-variant:normal;font-weight:normal;font-stretch:normal;font-size:8.4666996px;line-height:1em;font-family:sans-serif;-inkscape-font-specification:'sans-serif, Normal';font-variant-ligatures:normal;font-variant-caps:normal;font-variant-numeric:normal;font-feature-settings:normal;text-align:center;letter-spacing:0px;word-spacing:0px;writing-mode:lr-tb;baseline-shift:baseline;text-anchor:middle;fill:#000000;fill-opacity:1;stroke:none;stroke-width:0.26460001"
       x="18.290001"
       y="61.799999"
       id="text10086-5-5"
       inkscape:export-xdpi="300"
       inkscape:export-ydpi="300"><tspan
         sodipodi:role="line"
         x="18.290001"
         y="61.799999"
         style="font-style:normal;font-variant:normal;font-weight:normal;font-stretch:normal;line-height:0em;font-family:Karumbi;-inkscape-font-specification:Karumbi;baseline-shift:baseline;stroke-width:0.26460001"
         id="tspan23281-3">H<tspan
   style="font-size:64.99999762%;baseline-shift:sub"
   id="tspan23368">0</tspan>: x = a</tspan><tspan
         sodipodi:role="line"
         x="18.290001"
         y="70.266701"
         style="font-style:normal;font-variant:normal;font-weight:normal;font-stretch:normal;line-height:0em;font-family:Karumbi;-inkscape-font-specification:Karumbi;baseline-shift:baseline;stroke-width:0.26460001"
         id="tspan23350">H<tspan
   style="font-size:64.99999762%;baseline-shift:sub"
   id="tspan23366">A</tspan>: x &gt; a</tspan></text>
    <text
       xml:space="preserve"
       style="font-style:normal;font-variant:normal;font-weight:normal;font-stretch:normal;font-size:12.69999981px;line-height:0;font-family:sans-serif;-inkscape-font-specification:'sans-serif, Normal';font-variant-ligatures:normal;font-variant-caps:normal;font-variant-numeric:normal;font-feature-settings:normal;text-align:center;letter-spacing:0px;word-spacing:0px;writing-mode:lr-tb;text-anchor:middle;fill:#000000;fill-opacity:1;stroke:none;stroke-width:0.26460001"
       x="117.7"
       y="87.900002"
       id="text23354"><tspan
         sodipodi:role="line"
         id="tspan23352"
         x="117.7"
         y="87.900002"
         style="font-style:normal;font-variant:normal;font-weight:normal;font-stretch:normal;font-family:Karumbi;-inkscape-font-specification:Karumbi;stroke-width:0.26460001">x = a</tspan></text>
    <text
       xml:space="preserve"
       style="font-style:normal;font-variant:normal;font-weight:normal;font-stretch:normal;font-size:8.46720028px;line-height:1;font-family:sans-serif;-inkscape-font-specification:'sans-serif, Normal';font-variant-ligatures:normal;font-variant-caps:normal;font-variant-numeric:normal;font-feature-settings:normal;text-align:end;letter-spacing:0px;word-spacing:0px;writing-mode:lr-tb;text-anchor:end;fill:#000000;fill-opacity:1;stroke:none;stroke-width:0.26460001"
       x="207.8"
       y="61.720001"
       id="text23358"
       inkscape:export-xdpi="300"
       inkscape:export-ydpi="300"><tspan
         sodipodi:role="line"
         id="tspan23356"
         x="207.8"
         y="61.720001"
         style="font-style:normal;font-variant:normal;font-weight:normal;font-stretch:normal;font-family:Karumbi;-inkscape-font-specification:Karumbi;text-align:end;text-anchor:end;stroke-width:0.26460001">We look for values as (or more) extreme than a</tspan><tspan
         sodipodi:role="line"
         x="207.8"
         y="71.689285"
         style="font-style:normal;font-variant:normal;font-weight:normal;font-stretch:normal;font-family:Karumbi;-inkscape-font-specification:Karumbi;text-align:end;text-anchor:end;stroke-width:0.26460001"
         id="tspan23360">when computing our p-value,</tspan><tspan
         sodipodi:role="line"
         x="207.8"
         y="81.658562"
         style="font-style:normal;font-variant:normal;font-weight:normal;font-stretch:normal;font-family:Karumbi;-inkscape-font-specification:Karumbi;text-align:end;text-anchor:end;stroke-width:0.26460001"
         id="tspan23362">in the direction of H<tspan
   style="font-size:64.99999762%;baseline-shift:sub"
   id="tspan23364">A</tspan></tspan></text>
    <path
       style="fill:none;stroke:#394f03;stroke-width:0.86500001;stroke-linecap:butt;stroke-linejoin:miter;stroke-miterlimit:4;stroke-dasharray:none;stroke-opacity:1;marker-end:url(#Arrow1Mend)"
       d="m 137.1,86.84 h 53.1"
       id="path23370"
       inkscape:connector-curvature="0" />
    <path
       inkscape:connector-curvature="0"
       class="cls-9"
       d="m 106.4,121 c 0,0.1 0,0.1 0,0.2 -0.3,0.8 -0.9,1.5 -1.7,2.1 -0.8,0.5 -1.6,0.9 -2.5,1.1 -1.6,0.3 -3.04,0.2 -4.51,-0.3 A 5.587,5.587 0 0 1 95.95,123 c -0.47,-0.4 -0.84,-0.9 -1.1,-1.4 -0.16,-0.4 -0.26,-0.7 -0.27,-1.1 0,-0.1 -0.02,-0.1 -0.03,-0.2 -0.09,0 -0.15,0.1 -0.2,0.1 -0.07,0.1 -0.13,0 -0.19,0 -0.07,-0.1 -0.1,-0.1 -0.08,-0.2 0.09,-0.3 0.56,-0.5 0.84,-0.3 0.07,0 0.11,0.1 0.06,0.2 -0.05,0.1 -0.02,0.1 -0.01,0.2 0.13,1 0.63,1.7 1.38,2.2 0.62,0.5 1.31,0.8 2.05,1 1.7,0.4 3.4,0.3 5,-0.4 a 5.115,5.115 0 0 0 1.6,-1.2 3.435,3.435 0 0 0 0.7,-0.9 c 0,0 0,-0.1 0,-0.1 0,-0.1 -0.1,-0.1 -0.1,-0.1 -0.1,0 -0.1,0 -0.1,-0.1 0,-0.1 0,-0.1 0.1,-0.1 0.3,-0.2 0.8,-0.2 1,0 0.1,0.1 0.1,0.3 0,0.4 -0.1,0 -0.1,0 -0.2,0 z"
       id="path6303"
       style="fill:#74a200;fill-opacity:1;stroke:#000000;stroke-width:0.0984;stroke-miterlimit:4;stroke-dasharray:none;stroke-opacity:1" />
  </g>
</svg>
