<?xml version="1.0" encoding="UTF-8" standalone="no"?>
<!-- Created with Inkscape (http://www.inkscape.org/) -->

<svg
   xmlns:dc="http://purl.org/dc/elements/1.1/"
   xmlns:cc="http://creativecommons.org/ns#"
   xmlns:rdf="http://www.w3.org/1999/02/22-rdf-syntax-ns#"
   xmlns:svg="http://www.w3.org/2000/svg"
   xmlns="http://www.w3.org/2000/svg"
   xmlns:sodipodi="http://sodipodi.sourceforge.net/DTD/sodipodi-0.dtd"
   xmlns:inkscape="http://www.inkscape.org/namespaces/inkscape"
   width="220.8mm"
   height="145.8mm"
   viewBox="0 0 220.8 145.8"
   version="1.1"
   id="svg21007"
   sodipodi:docname="p-value-logic.svg"
   inkscape:export-filename="/home/susan/Projects/Work/2021-Extension-APL/image/p-value-logic.png"
   inkscape:export-xdpi="300"
   inkscape:export-ydpi="300"
   inkscape:version="0.92.5 (2060ec1f9f, 2020-04-08)">
  <defs
     id="defs21001">
    <marker
       inkscape:stockid="Arrow1Mend"
       orient="auto"
       refY="0"
       refX="0"
       id="Arrow1Mend"
       style="overflow:visible"
       inkscape:isstock="true">
      <path
         id="path23381"
         d="M 0,0 L 5,-5 L -12.5,0 L 5,5 Z"
         style="fill:#394f03;fill-opacity:1;fill-rule:evenodd;stroke:#394f03;stroke-width:1pt;stroke-opacity:1"
         transform="matrix(-0.4,0,0,-0.4,-4,0)"
         inkscape:connector-curvature="0" />
    </marker>
    <marker
       inkscape:stockid="Arrow2Lend"
       orient="auto"
       refY="0"
       refX="0"
       id="Arrow2Lend"
       style="overflow:visible"
       inkscape:isstock="true">
      <path
         id="path23393"
         style="fill:#000000;fill-opacity:1;fill-rule:evenodd;stroke:#000000;stroke-width:0.625;stroke-linejoin:round;stroke-opacity:1"
         d="M 8.719,4.034 L -2.207,0.016 L 8.719,-4.002 C 6.973,-1.63 6.983,1.616 8.719,4.034 Z"
         transform="matrix(-1.1,0,0,-1.1,-1.1,0)"
         inkscape:connector-curvature="0" />
    </marker>
  </defs>
  <sodipodi:namedview
     id="base"
     pagecolor="#ffffff"
     bordercolor="#666666"
     borderopacity="1.0"
     inkscape:pageopacity="0.0"
     inkscape:pageshadow="2"
     inkscape:zoom="1.4"
     inkscape:cx="482.7"
     inkscape:cy="279.6"
     inkscape:document-units="mm"
     inkscape:current-layer="layer1"
     showgrid="false"
     showguides="true"
     inkscape:guide-bbox="true"
     fit-margin-top="10"
     fit-margin-left="10"
     fit-margin-right="10"
     fit-margin-bottom="10">
    <sodipodi:guide
       position="-71.74,14.17"
       orientation="1,0"
       id="guide22884"
       inkscape:locked="false" />
  </sodipodi:namedview>
  <metadata
     id="metadata21004">
    <rdf:RDF>
      <cc:Work
         rdf:about="">
        <dc:format>image/svg+xml</dc:format>
        <dc:type
           rdf:resource="http://purl.org/dc/dcmitype/StillImage" />
        <dc:title></dc:title>
      </cc:Work>
    </rdf:RDF>
  </metadata>
  <g
     inkscape:label="Layer 1"
     inkscape:groupmode="layer"
     id="layer1"
     transform="translate(2.527,-47.39)">
    <path
       inkscape:connector-curvature="0"
       class="cls-1"
       d="M 193.6,140.8 C 193.5,140.9 193.1,140.9 193,140.9 C 192.8,141 192.5,140.9 192.4,140.9 Q 184.3,140.9 176.2,140.9 C 175.8,140.9 175.3,140.9 174.9,140.8 C 174.7,140.8 174.3,140.8 174.1,140.8 Q 163.1,140.8 152.2,140.8 C 151.8,140.8 151.4,140.8 150.9,140.6 C 150.6,140.6 150.3,140.6 150.1,140.6 Q 139,140.6 127.9,140.6 C 127.5,140.6 127.1,140.5 126.6,140.5 C 126.4,140.5 126,140.4 125.8,140.4 Q 114.7,140.4 103.6,140.4 C 103.2,140.4 102.8,140.3 102.3,140.3 C 101.4,140.3 100.5,140.3 99.53,140.3 C 99.16,140.3 98.8,140.4 98.44,140.4 Q 92.98,140.4 87.52,140.4 C 87.09,140.4 86.65,140.4 86.14,140.6 C 85.85,140.6 85.56,140.6 85.34,140.6 Q 79.74,140.6 74.07,140.6 C 73.63,140.6 73.19,140.6 72.76,140.7 C 72.54,140.8 72.25,140.8 72.03,140.8 Q 65.92,140.8 59.73,140.8 C 59.37,140.8 58.93,140.9 58.5,140.9 C 58.28,140.9 57.91,140.9 57.62,140.9 Q 52.17,140.9 46.71,140.9 C 46.27,140.9 45.84,141 45.4,141.1 C 45.18,141.1 44.89,141.1 44.6,141.1 Q 38.93,141.1 33.18,141.1 C 32.81,141.1 32.45,141.1 32.01,141.2 C 31.8,141.2 31.43,141.3 31.21,141.3 Q 25.17,141.3 19.06,141.3 C 18.7,141.3 18.34,141.4 17.97,141.4 C 17.76,141.4 17.54,141.4 17.32,141.4 Q 13.17,141.4 8.952,141.4 C 8.589,141.4 8.225,141.5 7.934,141.1 C 8.807,141 9.68,140.8 10.55,140.6 C 12.08,140.3 13.54,140.1 14.92,139.6 C 16.37,139.2 17.83,138.8 19.21,138.3 C 21.46,137.4 23.72,136.6 25.83,135.5 C 26.92,135 28.01,134.5 29.1,134 C 30.92,133.2 32.6,132.1 34.27,131.2 Q 36.96,129.6 39.44,127.9 C 40.89,126.9 42.35,125.9 43.73,124.9 C 45.33,123.8 46.78,122.6 48.38,121.5 C 49.69,120.5 51,119.5 52.39,118.5 C 53.84,117.5 55.15,116.4 56.53,115.5 C 57.7,114.7 58.86,113.9 60.02,113.1 Q 63.08,111 66.14,109 C 67.95,107.9 69.77,106.7 71.66,105.9 C 72.32,105.5 72.9,105.1 73.56,104.8 C 75.37,104 77.19,103.2 79.01,102.4 A 67.64,67.64 0 0 1 87.31,99.75 C 88.54,99.46 89.78,99.24 91.09,99.02 C 91.89,98.8 92.69,98.73 93.49,98.51 A 2.191,2.191 0 0 1 93.71,98.51 C 94.65,98.44 95.6,98.37 96.55,98.29 C 97.06,98.29 97.49,98.29 97.93,98.22 C 98.15,98.15 98.44,98.15 98.66,98.15 C 99.89,98.15 101.2,98.15 102.4,98.15 C 103,98.15 103.6,98.15 104.3,98.29 C 104.4,98.29 104.7,98.29 104.8,98.29 C 106.5,98.29 108.3,98.58 110,98.95 C 111.3,99.24 112.5,99.38 113.7,99.68 C 114.5,99.82 115.3,100 116.1,100.3 C 117.7,100.8 119.3,101.3 121,101.9 C 122.3,102.3 123.5,102.8 124.7,103.3 C 125.9,103.8 127.1,104.3 128.4,105 C 130.3,106 132.4,107 134.2,108.3 C 135.6,109.2 137.1,110.2 138.6,111.1 C 140.4,112.3 142.4,113.6 144.3,114.9 C 145.2,115.5 146,116.1 146.8,116.7 Q 147.5,117.2 148.2,117.7 C 149.2,118.4 150.1,119.1 151.1,119.8 C 152.4,120.8 153.8,121.8 155.2,122.8 C 156.6,123.8 158,124.8 159.4,125.9 C 161,126.8 162.3,127.8 163.9,128.8 C 165.1,129.6 166.4,130.4 167.7,131.2 C 169.3,132.1 171,133.1 172.7,133.9 C 174.7,134.7 176.6,135.6 178.5,136.5 C 179.1,136.8 179.7,137 180.5,137.2 C 181.5,137.6 182.6,137.9 183.7,138.3 C 185.3,138.9 187.1,139.3 188.7,139.7 C 190,140 191.2,140.2 192.5,140.4 C 192.8,140.5 193.3,140.6 193.6,140.6 Z"
       id="path13687"
       style="fill:#e5ffa3;fill-opacity:1;stroke-width:0.0419" />
    <g
       id="g22775"
       transform="matrix(0.077,0,0,0.077,97.99,119.7)">
      <path
         style="fill:#3d7f0e;fill-opacity:1;stroke-width:0.2646;image-rendering:optimizeQuality"
         inkscape:connector-curvature="0"
         id="path13703"
         d="M 57.13,236.4 C 46.02,244.3 33.32,244.8 20.09,243.3 C 15.06,242.7 10.3,240.9 5.537,238.5 C 3.42,239.5 1.568,240.5 -0.5488,241.5 C -5.312,243.9 -10.34,246.6 -15.37,248.7 C -28.86,254.3 -42.62,259.8 -57.17,263.5 C -63.79,265.3 -70.4,266.8 -77.28,266.1 A 38.79,38.79 0 0 1 -82.05,265.4 C -87.87,264.1 -91.84,260.8 -94.48,255.6 C -97.13,250.2 -98.98,244.5 -100,238.6 C -103.5,222 -104.5,205.4 -103.5,188.6 C -102.7,180.1 -101.6,171.8 -99.24,163.6 A 26.91,26.91 0 0 1 -93.69,152.9 C -90.78,149.7 -87.34,148 -83.1,147.8 A 44.37,44.37 0 0 1 -69.87,149 C -51.09,153.7 -32.83,160.3 -15.63,169.6 C -11.4,171.9 -7.164,174.5 -2.666,177 C -2.666,177 -2.136,177.1 -1.872,176.9 C 5.008,172.9 12.68,171.1 20.62,169.9 A 85.31,85.31 0 0 1 49.73,170.7 C 51.31,171 53.16,171.4 54.75,171.9 C 59.78,173.3 64.28,175.4 67.72,179.9 C 68.51,179.5 69.04,179.3 69.57,178.9 C 75.13,174.2 81.21,170.5 87.83,167.2 C 98.41,162 109,156.9 120.1,153.2 C 131.2,149.5 142.9,147.5 154.2,146.4 C 162.2,145.6 166.9,149.4 170.6,155.7 C 174.1,161.5 175.4,167.9 175.7,174.4 C 176.7,192.3 176.5,210 173.3,227.7 C 173,228.7 173,229.8 172.8,230.8 C 171.7,239.3 168.3,246.6 162.7,253.1 C 160.6,255.6 157.9,257.3 154.8,258.1 C 147.6,259.9 140.2,261.1 132.8,260.1 C 125.1,259.1 117.7,258.2 110.3,256.9 C 98.94,254.9 88.09,250.6 77.77,246.1 C 70.89,243.1 64.01,239.7 57.13,236.4 Z M -24.1,238.4 C -23.57,238.4 -23.04,238.5 -22.51,238.4 C -16.16,236.6 -10.07,234 -3.989,231.3 C -3.724,231.2 -3.459,230.8 -3.195,230.3 A 12.26,12.26 0 0 0 -5.841,225 C -8.751,224.4 -11.13,224.8 -13.78,225.7 C -17.48,227 -21.45,228 -25.16,229.2 C -25.95,229.1 -26.74,229.1 -27.27,229 C -29.92,228.6 -32.04,229.4 -33.62,231.5 C -33.89,232.1 -34.42,232.6 -34.68,233.2 C -37.33,232.9 -39.45,234 -41.83,234.7 C -44.47,235.6 -47.12,236.6 -50.03,237.3 C -51.35,237.7 -53.2,237.7 -54.26,236.1 C -54.79,235.1 -54,233.6 -51.88,232.4 C -51.88,232.3 -51.62,232.2 -51.62,232.1 C -46.06,229.2 -40.5,226.7 -34.68,224.9 C -28.6,223.1 -22.78,221.7 -16.95,220 C -14.84,219.5 -12.72,218.8 -10.87,218.3 C -9.545,218 -8.751,217.5 -8.487,216.4 C -7.958,215 -7.958,213.6 -9.281,212.2 C -14.04,213.6 -19.07,212.9 -24.36,213.1 A 14.59,14.59 0 0 1 -27.01,213 C -27.8,212.8 -28.33,211.4 -27.8,210.4 A 6.639,6.639 0 0 1 -22.78,206.9 C -19.6,206.5 -16.42,205.2 -12.99,205.6 C -11.93,205.8 -10.87,205.4 -10.07,205.3 C -9.016,203.7 -8.751,202.2 -9.81,201.1 C -10.6,200.3 -11.93,199.9 -12.99,199.4 C -13.25,199.3 -13.78,199.4 -14.04,199.3 C -16.69,198.9 -19.6,198.4 -22.25,198 C -28.33,197.1 -34.42,195.6 -40.5,195.3 C -47.38,195 -54,193.5 -60.88,193.9 C -62.99,194.1 -65.11,193.1 -66.96,192.5 C -67.49,192.3 -67.76,191.4 -68.02,190.8 C -68.02,190.5 -67.49,189.8 -66.96,189.7 C -64.32,189 -61.67,187.8 -59.03,187.8 C -50.82,187.9 -42.88,186.7 -34.68,188.7 C -33.89,188.9 -33.09,188.7 -32.04,188.7 C -27.54,188.7 -23.04,189.9 -18.54,190.4 L -8.751,191.6 C -8.222,189.8 -7.693,188.3 -7.428,186.8 C -6.899,184.4 -7.428,183.4 -9.81,182.4 C -23.3,176.9 -36.53,171.8 -50.29,167.5 C -52.41,166.8 -54.53,166.1 -56.38,165.6 Q -61.67,164.2 -67.23,163 C -71.73,162 -75.96,161.1 -80.46,160.2 C -83.37,159.7 -85.22,161 -86.81,163.2 A 11.18,11.18 0 0 0 -88.66,167 C -89.72,172.5 -91.04,177.9 -90.78,183.6 C -90.78,187.7 -90.78,191.7 -90.78,195.8 C -90.51,202.8 -91.04,209.8 -89.98,216.8 C -88.66,224.1 -87.87,231.4 -86.28,238.6 C -85.49,242.3 -83.63,245.8 -82.05,249.4 C -81.52,250.8 -80.19,252.1 -78.61,252.1 C -74.37,252.2 -70.14,252.8 -66.43,251.9 C -57.44,249.9 -48.71,247.4 -39.97,244.6 C -36.8,243.6 -33.36,242.7 -30.45,240.5 Z M 66.66,226.3 C 66.92,228 68.51,228.1 69.31,228.6 C 76.98,232.4 84.65,235.9 92.59,238.8 C 98.94,241.1 105.6,243.4 112.2,245.3 C 116.7,246.7 121.4,246.8 125.9,247.9 C 128.8,248.6 132,248.9 134.9,249 C 138.9,249.2 142.9,249.2 147.1,249 C 154.2,248.8 160.1,243.6 161.1,236.5 C 161.7,233.4 161.9,230.2 162.2,227.1 C 162.7,224 163.2,220.9 163.5,217.7 C 164.3,212.7 165.6,207.8 165.4,202.6 C 165.4,198.8 165.4,194.9 165.4,191 C 165.4,188.5 165.4,186.1 166.1,183.7 C 166.7,181.5 166.7,179 166.1,176.9 C 165.4,173.7 165.6,170.6 165.4,167.4 A 19.99,19.99 0 0 0 160.1,155.5 C 159,154.1 157.4,153.6 155.3,154.1 C 151.1,155.1 146.6,156 142.1,157 C 132,159.2 122.5,162.3 113,166.1 C 103.7,169.7 94.97,174.2 86.24,178.5 C 81.74,180.7 77.77,183.7 73.8,186.6 C 71.16,188.6 70.36,191.3 71.69,194.7 C 75.66,194 79.36,193.6 83.06,192.6 C 89.94,190.8 97.09,190.7 104,190.9 C 104.5,190.9 104.8,191.2 105.8,191.7 C 104.5,192.5 103.7,193.1 102.6,193.5 C 100.3,194.4 97.88,195.2 95.24,196 Q 84.12,199.8 72.75,203.6 C 72.22,203.8 71.42,204 70.89,204.5 C 70.63,205 70.36,205.8 70.36,206.4 C 70.63,206.9 71.16,207.5 71.69,207.6 C 73.27,207.8 74.6,207.7 75.92,207.8 A 7.607,7.607 0 0 1 78.57,208.6 C 79.36,209 79.36,210.7 78.57,211.2 C 77.77,211.6 76.98,211.8 76.19,212 C 74.33,212.5 72.22,212.9 70.63,213.5 C 69.57,213.9 69.31,214.7 69.83,215.9 C 70.63,216 71.69,216.3 72.75,216.2 C 77.77,215.7 82.54,217.2 87.56,217.4 A 23.49,23.49 0 0 1 93.12,218.5 C 94.44,218.9 95.5,219.8 96.82,220.5 C 97.35,220.9 97.35,222.4 96.56,222.8 C 96.03,223.1 95.24,223.6 94.71,223.6 C 88.09,223.6 81.74,225.3 75.13,224.7 C 72.22,224.5 69.57,225.2 66.66,226.3 Z M 1.303,207.2 A 44.9,44.9 0 0 0 2.362,218.8 C 3.42,224 6.066,227.9 10.56,230.4 C 12.95,231.6 15.33,232.5 17.71,233.5 C 21.94,235.3 26.44,235.5 30.41,236.8 C 35.17,238.3 39.67,237.1 43.64,234.7 C 51.31,230.1 51.31,230 56.08,222.3 A 29.98,29.98 0 0 0 58.72,217.1 C 60.57,212.2 61.9,207.1 62.96,201.9 C 64.28,197.4 63.48,192.8 63.75,188.3 C 63.75,187.8 63.48,187.3 63.22,186.8 C 61.37,181.9 58.19,178.2 53.16,176.7 C 47.61,175 42.05,174.3 36.5,175.4 C 35.44,175.6 34.38,175.9 33.32,176 A 88.75,88.75 0 0 0 15.06,180.4 C 11.36,181.8 6.066,187.2 4.214,190.9 A 31.09,31.09 0 0 0 1.303,207.2 Z"
         class="cls-8" />
      <path
         style="fill:#52a418;fill-opacity:1;stroke-width:0.2646;image-rendering:optimizeQuality"
         inkscape:connector-curvature="0"
         id="path15685"
         d="M 66.66,226.3 C 69.57,225.2 72.22,224.5 75.13,224.7 C 81.74,225.3 88.09,223.6 94.71,223.6 C 95.24,223.6 96.03,223.2 96.56,222.8 C 97.35,222.4 97.35,220.9 96.82,220.5 C 95.77,219.8 94.44,219 93.12,218.6 A 23.49,23.49 0 0 0 87.56,217.5 C 82.54,217.2 77.77,215.8 72.75,216.2 C 71.69,216.3 70.63,216 69.83,215.9 C 69.31,214.7 69.57,213.9 70.63,213.6 C 72.48,212.9 74.33,212.5 76.19,212 C 76.98,211.8 77.77,211.6 78.57,211.2 C 79.62,210.8 79.36,209.1 78.57,208.6 A 7.607,7.607 0 0 0 75.92,207.8 C 74.6,207.7 73.27,207.8 71.95,207.6 C 71.16,207.6 70.63,206.9 70.36,206.4 C 70.36,205.9 70.63,205 71.16,204.6 C 71.42,204.1 72.22,203.8 72.75,203.6 Q 84.12,199.8 95.24,196 C 97.88,195.2 100.3,194.4 102.9,193.5 C 103.7,193.2 104.5,192.5 105.8,191.7 C 104.8,191.3 104.5,190.9 104,190.9 C 97.09,190.7 89.94,190.9 83.06,192.7 C 79.36,193.6 75.66,194 71.95,194.7 C 70.36,191.3 71.16,188.6 73.8,186.7 C 77.77,183.8 81.74,180.7 86.24,178.5 C 94.97,174.2 104,169.8 113,166.1 C 122.5,162.3 132.3,159.2 142.1,157 C 146.6,156 151.1,155.1 155.6,154.1 C 157.4,153.6 159,154.1 160.3,155.6 A 19.99,19.99 0 0 1 165.4,167.5 C 165.6,170.6 165.6,173.7 166.1,176.9 C 166.7,179 166.7,181.5 166.1,183.7 C 165.4,186.1 165.4,188.6 165.4,191 C 165.4,194.9 165.4,198.8 165.4,202.7 C 165.6,207.8 164.3,212.7 163.8,217.8 C 163.2,220.9 162.7,224 162.2,227.1 C 161.9,230.2 161.7,233.4 161.1,236.5 C 160.1,243.7 154.2,248.9 147.1,249.1 C 143.1,249.2 138.9,249.2 134.9,249 C 132,248.9 128.8,248.6 125.9,247.9 C 121.4,246.8 116.7,246.7 112.2,245.3 C 105.6,243.4 98.94,241.2 92.59,238.8 C 84.65,235.9 76.98,232.5 69.57,228.6 C 68.51,228.1 66.92,228 66.66,226.3 Z M 123,193 C 129.9,193.7 134.7,189.3 135.2,181.4 C 135.7,176.1 129.9,170.8 124.3,170.7 C 118,170.7 112.4,176 112.4,182.4 C 112.4,185.7 114.3,187.9 116.4,190.1 C 118.3,192.2 120.4,193.5 123,193 Z M 122,211.1 C 122,205.1 117.7,200.5 111.9,200.4 C 106.1,200.3 101.1,205.6 100.8,211.3 C 100.3,216.2 105.6,221.8 111.6,221.7 C 116.9,221.7 122.8,216.6 122,211.1 Z M 157.9,204.5 C 157.9,199.6 153.7,195.2 148.7,195.1 C 143.4,195 138.9,199.4 138.9,204.6 C 138.9,211 142.3,214.2 148.7,214.2 C 154.8,214.1 157.9,210.8 157.9,204.5 Z M 153.2,160.9 C 151.6,161.3 149.5,161.3 148.2,162.2 C 146,163.5 144.5,165.4 143.7,167.8 C 143.4,168.5 143.1,169.2 143.1,169.9 C 144.5,177.3 149.5,181.4 157.2,178.4 C 161.1,176.9 163,173.2 161.9,167.8 C 161.4,163.7 157.9,161.2 153.2,160.9 Z M 136.5,242.7 C 140.5,242.7 145.5,237.9 145.2,233.2 C 145,228.4 140.5,223.7 135.7,223.7 C 131,223.8 126.2,228.9 126.2,233.4 C 126.5,238.6 131,242.9 136.5,242.7 Z"
         class="cls-25" />
      <path
         style="fill:#52a418;fill-opacity:1;stroke-width:0.2646;image-rendering:optimizeQuality"
         inkscape:connector-curvature="0"
         id="path15687"
         d="M -30.45,240.5 C -33.36,242.7 -36.8,243.6 -39.97,244.6 C -48.71,247.4 -57.44,249.9 -66.43,251.9 C -70.14,252.8 -74.37,252.2 -78.61,252.1 C -80.19,252.1 -81.52,250.8 -82.05,249.4 C -83.63,245.8 -85.49,242.3 -86.28,238.6 C -87.87,231.4 -88.66,224.1 -89.98,216.8 C -91.04,209.8 -90.51,202.8 -90.78,195.8 C -90.78,191.7 -90.78,187.7 -90.78,183.6 C -91.04,177.9 -89.72,172.5 -88.66,167 A 11.18,11.18 0 0 1 -86.81,163.2 C -85.22,161 -83.37,159.7 -80.46,160.2 C -75.96,161 -71.73,162 -67.23,163 Q -61.67,164.2 -56.38,165.6 C -54.53,166.1 -52.41,166.8 -50.29,167.5 C -36.53,171.8 -23.3,176.9 -9.81,182.4 C -7.428,183.4 -6.899,184.4 -7.428,186.8 C -7.693,188.3 -8.222,189.8 -8.751,191.6 L -18.54,190.4 C -23.04,189.8 -27.54,188.7 -32.04,188.7 C -33.09,188.7 -33.89,188.8 -34.68,188.7 C -42.88,186.7 -50.82,187.9 -59.03,187.8 C -61.67,187.8 -64.32,189 -66.96,189.7 C -67.49,189.8 -68.02,190.5 -68.02,190.8 C -68.02,191.4 -67.49,192.3 -66.96,192.5 C -65.11,193.1 -62.99,194 -60.88,193.9 C -54,193.5 -47.38,195 -40.5,195.3 C -34.42,195.5 -28.33,197 -22.25,198 C -19.6,198.4 -16.69,198.9 -14.04,199.3 C -13.78,199.4 -13.25,199.3 -12.99,199.4 C -11.93,199.9 -10.6,200.3 -9.81,201.1 C -8.751,202.2 -9.016,203.7 -10.07,205.3 C -10.87,205.4 -11.93,205.7 -12.99,205.6 C -16.42,205.2 -19.6,206.5 -22.78,206.9 A 6.639,6.639 0 0 0 -27.8,210.4 C -28.33,211.3 -27.8,212.8 -27.01,212.9 A 14.59,14.59 0 0 0 -24.36,213.1 C -19.34,212.9 -14.04,213.6 -9.281,212.2 C -7.958,213.6 -8.222,215 -8.487,216.4 C -8.751,217.5 -9.545,218 -10.87,218.3 C -12.72,218.8 -14.84,219.5 -16.95,220 C -22.78,221.6 -28.6,223.1 -34.68,224.9 C -40.5,226.7 -46.06,229.2 -51.62,232.1 C -51.62,232.2 -51.88,232.3 -52.15,232.4 C -54,233.6 -54.79,235.1 -54.26,236.1 C -53.2,237.7 -51.35,237.7 -50.03,237.3 C -47.12,236.6 -44.47,235.6 -41.83,234.7 C -39.45,234 -37.33,232.9 -34.68,233.1 C -34.95,236.5 -33.09,238.7 -30.45,240.5 Z M -73.31,197.2 C -74.9,197.8 -76.75,198.2 -78.34,199 C -82.31,200.9 -84.43,203.9 -84.43,208.5 C -84.69,212.6 -82.84,215.4 -79.93,218.1 C -76.75,221.2 -70.93,221 -68.29,219.3 C -64.58,217 -61.67,211 -62.47,207.2 C -63.79,202.4 -66.17,198.8 -71.2,197.9 C -71.99,197.8 -72.52,197.5 -73.31,197.2 Z M -60.08,237.2 C -59.29,234.4 -61.14,232.2 -63.52,230.4 C -67.76,227.3 -71.2,227.1 -74.9,230.4 C -75.43,231 -75.96,231.7 -76.75,232.3 C -80.99,237.1 -79.13,241.3 -75.96,245 C -74.11,246.9 -71.46,248.3 -68.82,247.9 C -63.26,247.1 -60.08,243.3 -60.08,237.2 Z M -43.94,220.5 C -38.12,220.6 -33.62,216.2 -33.62,210.8 C -33.89,205.8 -38.12,201.5 -43.15,201.4 C -48.18,201.4 -52.68,205.7 -52.68,210.5 C -52.68,216.8 -49.76,220.4 -43.94,220.5 Z M -75.96,182.4 C -75.7,182.4 -74.37,182.4 -73.05,181.8 C -68.29,179.3 -67.23,173.4 -70.67,169.2 A 12.63,12.63 0 0 0 -73.31,166.8 C -76.49,164.8 -80.99,165.5 -83.37,168.3 C -86.01,171.3 -86.28,174.7 -84.96,178.2 C -83.63,181.7 -80.72,182.5 -75.96,182.4 Z M -51.62,178.4 C -51.62,181.7 -48.97,184.5 -45.8,184.5 C -41.83,184.5 -38.92,181.5 -38.92,177.5 C -38.92,174.2 -42.09,171.6 -45.8,171.8 C -49.24,171.9 -51.62,174.7 -51.62,178.4 Z"
         class="cls-25" />
      <path
         style="fill:#52a418;fill-opacity:1;stroke-width:0.2646;image-rendering:optimizeQuality"
         inkscape:connector-curvature="0"
         id="path15689"
         d="M 1.303,207.2 A 31.09,31.09 0 0 1 4.214,190.8 C 6.066,187.2 11.36,181.8 15.06,180.4 A 88.75,88.75 0 0 1 33.32,176 C 34.38,175.9 35.44,175.6 36.5,175.4 C 42.05,174.3 47.61,175 53.16,176.7 C 58.19,178.2 61.37,181.9 63.22,186.8 C 63.48,187.3 63.75,187.8 63.75,188.3 C 63.48,192.8 64.28,197.4 62.96,201.9 C 61.9,207.1 60.57,212.2 58.72,217.1 A 29.98,29.98 0 0 1 56.08,222.3 C 51.31,230 51.31,230.1 43.64,234.7 C 39.67,237.1 35.17,238.2 30.41,236.8 C 26.44,235.4 21.94,235.3 17.71,233.5 C 15.33,232.5 12.95,231.6 10.56,230.3 C 6.066,227.9 3.42,224 2.362,218.7 A 44.9,44.9 0 0 1 1.303,207.2 Z M 44.7,219.5 C 44.7,212.5 39.93,209.2 34.11,208.9 C 28.82,208.7 23.53,214.4 23.53,219.6 C 23.79,224.8 29.09,230.2 34.38,230 C 40.46,229.7 44.43,225.5 44.7,219.5 Z M 37.29,191.6 C 36.76,196.6 41.79,202.2 47.34,201.1 C 53.96,199.9 57.4,196.4 56.08,189 C 55.55,185 51.05,181.3 47.34,181.4 A 10.1,10.1 0 0 0 37.29,191.6 Z M 10.83,195.1 C 10.3,200.9 15.06,205 20.09,204.7 C 25.38,204.4 29.88,200.2 29.88,195 C 29.62,190.1 25.12,185.5 20.35,185.6 C 15.59,185.8 10.04,188.7 10.83,195.1 Z"
         class="cls-25" />
      <path
         style="fill:#8aca5d;fill-opacity:1;stroke-width:0.2646;image-rendering:optimizeQuality"
         inkscape:connector-curvature="0"
         id="path15691"
         d="M -25.42,229.2 C -21.45,228 -17.48,227 -13.78,225.7 C -11.13,224.8 -8.751,224.4 -5.841,225 A 12.26,12.26 0 0 1 -3.195,230.3 C -3.459,230.8 -3.724,231.2 -3.989,231.3 C -10.07,234 -16.16,236.6 -22.51,238.4 C -23.04,238.5 -23.57,238.4 -24.1,238.4 C -24.1,238.1 -24.1,237.7 -23.83,237.4 C -22.78,235 -22.78,232.7 -24.89,230.6 C -25.16,230.3 -25.16,229.6 -25.42,229.2 Z"
         class="cls-25" />
      <path
         style="fill:#8aca5d;fill-opacity:1;stroke-width:0.2646;image-rendering:optimizeQuality"
         inkscape:connector-curvature="0"
         id="path15693"
         d="M -25.42,229.2 C -25.16,229.6 -25.16,230.3 -24.89,230.6 C -22.78,232.7 -22.78,235 -23.83,237.4 C -24.1,237.7 -24.1,238.1 -24.1,238.4 L -30.45,240.5 C -33.09,238.7 -34.95,236.5 -34.68,233.2 C -34.42,232.6 -33.89,232.1 -33.62,231.5 C -32.04,229.4 -29.92,228.6 -27.27,229 C -26.74,229.1 -25.95,229.1 -25.42,229.2 Z"
         class="cls-26" />
      <path
         style="fill:#8aca5d;fill-opacity:1;stroke-width:0.2646;image-rendering:optimizeQuality"
         inkscape:connector-curvature="0"
         id="path15929"
         d="M 123,193 C 120.4,193.5 118.3,192.2 116.4,190.1 C 114.3,187.9 112.4,185.7 112.4,182.4 C 112.4,176 118,170.7 124.3,170.7 C 129.9,170.8 135.7,176.1 135.2,181.4 C 134.7,189.3 129.9,193.7 123,193 Z"
         class="cls-26" />
      <path
         style="fill:#8aca5d;fill-opacity:1;stroke-width:0.2646;image-rendering:optimizeQuality"
         inkscape:connector-curvature="0"
         id="path15931"
         d="M 122,211.1 C 122.8,216.6 116.9,221.7 111.6,221.7 C 105.6,221.8 100.3,216.2 100.8,211.3 C 101.1,205.6 106.1,200.3 111.9,200.4 C 117.7,200.5 122,205.1 122,211.1 Z"
         class="cls-26" />
      <path
         style="fill:#8aca5d;fill-opacity:1;stroke-width:0.2646;image-rendering:optimizeQuality"
         inkscape:connector-curvature="0"
         id="path15933"
         d="M 157.9,204.5 C 157.9,210.8 154.8,214.1 148.7,214.2 C 142.3,214.2 138.9,211 138.9,204.6 C 138.9,199.4 143.4,195 148.7,195.1 C 153.7,195.2 157.9,199.6 157.9,204.5 Z"
         class="cls-26" />
      <path
         style="fill:#8aca5d;fill-opacity:1;stroke-width:0.2646;image-rendering:optimizeQuality"
         inkscape:connector-curvature="0"
         id="path15935"
         d="M 153.2,160.9 C 157.9,161.2 161.4,163.7 161.9,167.8 C 163,173.1 161.1,176.9 157.2,178.4 C 149.5,181.3 144.5,177.3 143.1,169.9 C 143.1,169.2 143.4,168.5 143.7,167.8 C 144.5,165.4 146,163.5 148.2,162.2 C 149.5,161.3 151.6,161.3 153.2,160.9 Z"
         class="cls-26" />
      <path
         style="fill:#8aca5d;fill-opacity:1;stroke-width:0.2646;image-rendering:optimizeQuality"
         inkscape:connector-curvature="0"
         id="path15937"
         d="M 136.5,242.7 C 131,242.9 126.5,238.6 126.2,233.4 C 126.2,228.9 131,223.8 135.7,223.7 C 140.5,223.7 145,228.4 145.2,233.2 C 145.5,237.9 140.5,242.7 136.5,242.7 Z"
         class="cls-26" />
      <path
         style="fill:#8aca5d;fill-opacity:1;stroke-width:0.2646;image-rendering:optimizeQuality"
         inkscape:connector-curvature="0"
         id="path15939"
         d="M -73.31,197.2 C -72.52,197.5 -71.99,197.8 -71.2,197.9 C -66.17,198.8 -63.79,202.4 -62.47,207.2 C -61.67,211 -64.58,217 -68.29,219.3 C -70.93,221 -76.75,221.2 -80.19,218.1 C -82.84,215.4 -84.69,212.6 -84.43,208.5 C -84.43,203.9 -82.31,200.9 -78.34,199 C -76.75,198.2 -74.9,197.8 -73.31,197.2 Z"
         class="cls-26" />
      <path
         style="fill:#8aca5d;fill-opacity:1;stroke-width:0.2646;image-rendering:optimizeQuality"
         inkscape:connector-curvature="0"
         id="path15941"
         d="M -60.08,237.2 C -60.08,243.3 -63.26,247.1 -68.82,247.9 C -71.73,248.3 -74.37,246.9 -75.96,245 C -79.13,241.3 -80.99,237.1 -76.75,232.3 C -76.22,231.7 -75.43,231.1 -74.9,230.4 C -71.2,227.1 -67.76,227.3 -63.52,230.4 C -61.14,232.2 -59.55,234.4 -60.08,237.2 Z"
         class="cls-26" />
      <path
         style="fill:#8aca5d;fill-opacity:1;stroke-width:0.2646;image-rendering:optimizeQuality"
         inkscape:connector-curvature="0"
         id="path15943"
         d="M -43.94,220.5 C -49.76,220.4 -52.68,216.8 -52.68,210.5 C -52.68,205.7 -48.18,201.4 -43.15,201.4 C -38.12,201.5 -33.89,205.8 -33.62,210.8 C -33.62,216.2 -38.12,220.6 -43.94,220.5 Z"
         class="cls-26" />
      <path
         style="fill:#8aca5d;fill-opacity:1;stroke-width:0.2646;image-rendering:optimizeQuality"
         inkscape:connector-curvature="0"
         id="path15945"
         d="M -75.96,182.4 C -80.72,182.5 -83.63,181.7 -84.96,178.2 C -86.28,174.7 -86.01,171.3 -83.37,168.3 C -80.99,165.5 -76.49,164.8 -73.31,166.8 A 12.63,12.63 0 0 1 -70.67,169.2 C -67.23,173.4 -68.29,179.3 -73.05,181.8 C -74.37,182.4 -75.7,182.4 -75.96,182.4 Z"
         class="cls-26" />
      <path
         style="fill:#8aca5d;fill-opacity:1;stroke-width:0.2646;image-rendering:optimizeQuality"
         inkscape:connector-curvature="0"
         id="path15947"
         d="M -51.62,178.4 C -51.62,174.7 -49.24,171.9 -45.8,171.8 C -42.09,171.6 -38.92,174.2 -38.92,177.5 C -38.92,181.5 -41.83,184.5 -45.8,184.5 C -48.97,184.5 -51.62,181.7 -51.62,178.4 Z"
         class="cls-26" />
      <path
         style="fill:#8aca5d;fill-opacity:1;stroke-width:0.2646;image-rendering:optimizeQuality"
         inkscape:connector-curvature="0"
         id="path15949"
         d="M 44.7,219.5 C 44.43,225.5 40.46,229.7 34.38,230 C 29.09,230.2 23.79,224.8 23.53,219.6 C 23.53,214.4 28.82,208.7 34.11,208.9 C 39.93,209.2 44.7,212.5 44.7,219.5 Z"
         class="cls-26" />
      <path
         style="fill:#8aca5d;fill-opacity:1;stroke-width:0.2646;image-rendering:optimizeQuality"
         inkscape:connector-curvature="0"
         id="path15951"
         d="M 37.29,191.6 A 10.1,10.1 0 0 1 47.34,181.4 C 51.05,181.3 55.55,185 56.08,189 C 57.4,196.4 53.96,199.9 47.34,201.1 C 41.79,202.2 36.76,196.6 37.29,191.6 Z"
         class="cls-26" />
      <path
         style="fill:#8aca5d;fill-opacity:1;stroke-width:0.2646;image-rendering:optimizeQuality"
         inkscape:connector-curvature="0"
         id="path15953"
         d="M 10.83,195.1 C 10.04,188.7 15.59,185.8 20.35,185.6 C 25.12,185.5 29.62,190.1 29.88,195 C 29.88,200.2 25.38,204.4 20.09,204.7 C 15.06,205 10.3,200.9 10.83,195.1 Z"
         class="cls-26" />
    </g>
    <g
       id="g22904"
       transform="matrix(0.0998,0,0,0.0998,91.77,86.37)">
      <path
         style="fill:#3d7f0e;fill-opacity:1;stroke-width:0.2646"
         id="path13709"
         d="M 92.73,233.3 C 87.63,232.2 82.63,232.6 77.33,233.1 C 77.03,234.3 76.83,235.2 76.53,236.2 C 76.03,240.4 74.43,244.3 72.53,248.2 C 59.03,277.5 28.12,289.7 1.9,285.5 Q -28,280.7 -46,256.5 C -55.8,243.6 -61.6,229 -63.7,212.9 C -64.5,206.8 -64.8,200.6 -62.9,194.6 A 36.01,36.01 0 0 1 -59.5,186.3 C -57.1,182 -52.8,180 -47.8,180.6 C -43.6,181.1 -39.1,181.8 -34.8,182.7 Q -0.2,190.4 34.74,198.3 C 44.23,200.4 53.23,203.9 62.03,208 C 66.23,210 69.93,212.7 72.53,216.5 C 73.13,217.2 73.63,217.8 74.43,218.7 C 81.33,216.5 88.23,216 95.03,218.8 C 95.63,218.2 96.13,217.9 96.43,217.5 C 99.53,212.4 104.3,209.2 109.6,206.8 C 118.1,202.9 126.5,199.6 135.5,197.5 Q 160.4,191.5 185.3,185.7 C 194.3,183.6 202.9,181.7 211.7,179.8 A 50.48,50.48 0 0 1 218,178.9 C 222.8,178.5 226.5,180.6 229.1,184.6 C 231.5,188.7 232.8,193.3 233.4,198.1 C 234.4,206.4 233.4,214.6 231.2,222.7 C 227.3,238.7 219.9,253 208,264.6 C 191.6,280.4 172,287.6 149.5,284.8 C 123.1,281.5 104.8,266.9 95.03,242.1 C 94.03,239.3 93.43,236.3 92.73,233.3 Z M 15.2,273.5 C 17.27,273.5 18.6,273.5 20.18,273.5 C 27.33,273.8 33.94,271.2 40.33,267.8 C 49.03,262.9 55.63,255.8 60.93,247.1 A 34.34,34.34 0 0 0 64.93,236.9 C 67.03,227.7 64.63,221.8 56.73,216.4 C 56.73,216.3 56.43,216.2 56.43,216.1 C 51.93,212.7 46.63,210.9 41.63,209.4 C 29.97,206 18.33,202.7 6.2,200.8 C 1.7,200 -2.8,199.8 -7.3,199.4 C -13.1,198.8 -19,199.8 -24.8,200.5 C -33.8,201.7 -40.7,206.3 -44.4,215.2 C -47,221.6 -47.8,228.2 -45.2,234.7 C -39.9,247.3 -31.4,257 -19.2,263.6 C -17.1,264.7 -14.7,265.9 -12.6,266.9 C -3.6,271 5.6,274.4 15.2,273.5 Z M 182.1,200 C 176.5,200.6 170.4,200.7 164.6,201.8 C 151.1,204.2 137.9,208 124.9,212.4 C 119.6,214.1 114.9,217 110.6,220.3 C 107.7,222.3 105.9,225.3 105.4,228.7 C 104.8,233.6 105.1,238.4 107.2,243.2 C 111.4,253.8 119.1,262 128.6,268 C 139.7,275.1 152.4,277 165.7,274 C 173.1,272.3 180.2,269.5 187.4,265.9 C 197.7,260.7 205.8,253.2 211.7,243.3 C 213.5,240.5 215.1,237.4 215.9,234.2 C 216.7,231 218,227.8 217.2,224.4 C 216.2,220.5 215.1,216.6 213.2,213 C 209.8,206.2 204,203 197.2,201.6 C 192.1,200.6 187.4,200.5 182.1,200 Z M 225.4,206.6 C 226.7,206.6 228.1,205.3 228.1,203.8 C 228.1,202.2 227,200.9 225.7,200.7 C 224.1,200.5 222.8,201.9 222.8,203.8 C 222.8,205.3 224.1,206.6 225.4,206.6 Z M -30.6,187.9 C -31.7,187.9 -33,188.9 -33,190.1 C -33.3,191.7 -31.7,193.5 -30.1,193.6 C -29,193.7 -28,192.5 -28,191.2 C -28,189.4 -29,188 -30.6,187.9 Z M 217.5,192.4 C 216.4,192.3 214.8,193.8 214.8,195 C 214.6,196 216.2,197.7 217.2,198 C 218.5,198.2 220.4,196.4 220.4,195.1 C 220.1,193.9 218.8,192.4 217.5,192.4 Z M 202.7,191.5 C 202.7,190 202.1,189 200.8,188.9 C 199.3,188.7 197.7,189.8 197.7,191.3 C 197.4,192.7 198.7,193.8 200.3,194 C 201.6,194.1 202.7,193.2 202.7,191.5 Z M -55,200.6 C -56.6,200.6 -57.6,201.8 -57.6,203.4 C -57.6,204.8 -56.8,205.7 -55.5,205.7 C -53.9,205.6 -52.6,204.7 -52.6,203.3 C -52.3,202 -53.6,200.6 -55,200.6 Z M -48.3,184.9 C -48.3,183.5 -49.9,182.4 -51.3,182.7 C -52.6,183 -53.4,184.2 -53.4,185.8 C -53.1,187.1 -52.1,187.9 -50.7,187.7 C -49.1,187.5 -48.1,186.3 -48.3,184.9 Z M -48.1,197.2 C -46.5,197.3 -45.2,196.4 -45.2,195 A 2.566,2.566 0 0 0 -47.3,192.2 C -48.9,192.1 -49.9,193.1 -50.2,194.7 C -50.2,196.1 -49.4,197.1 -48.1,197.2 Z M -41.2,189.6 C -39.9,189.7 -38.8,188.6 -38.6,187 C -38.6,185.7 -39.4,184.7 -40.7,184.6 C -42.3,184.6 -43.3,185.4 -43.6,186.8 A 2.564,2.564 0 0 0 -41.2,189.6 Z M -54.7,194.5 C -54.7,192.9 -56.3,191.8 -57.9,192.1 C -58.9,192.2 -59.7,193.1 -59.7,194.3 C -59.7,195.8 -58.7,197 -57.3,197.1 C -55.8,197.1 -54.7,195.8 -54.7,194.5 Z M 211.1,189.8 C 212.5,189.8 213.2,188.9 213.2,187.5 C 213.2,185.9 212.2,184.8 210.9,184.8 A 2.627,2.627 0 0 0 208.2,186.9 C 208,188.5 209.3,189.7 211.1,189.8 Z M -51.5,217.9 C -51.5,216.6 -52.6,215.4 -54.2,215.3 C -55.5,215.1 -56.6,216 -56.6,217.3 C -56.6,218.9 -55.8,220.1 -54.2,220.3 A 2.574,2.574 0 0 0 -51.5,217.9 Z M 227,217.9 A 2.582,2.582 0 0 0 224.1,215.4 A 2.619,2.619 0 0 0 222,217.9 A 2.577,2.577 0 0 0 224.6,220.4 A 2.588,2.588 0 0 0 227,217.9 Z M 227.5,197.1 A 2.572,2.572 0 0 0 229.9,194.4 A 2.63,2.63 0 0 0 227.5,192.1 A 2.556,2.556 0 0 0 225.2,194.9 A 2.58,2.58 0 0 0 227.5,197.1 Z M 220.7,183.5 C 219.3,183.6 218.5,184.5 218.5,185.9 C 218.5,187.3 219.6,188.5 220.7,188.4 C 222.2,188.4 223.6,186.6 223.6,185.3 C 223.3,184.3 222,183.5 220.7,183.5 Z"
         class="cls-8"
         inkscape:connector-curvature="0" />
      <path
         style="stroke-width:0.2646"
         id="path15701"
         d="M 15.2,273.5 C 5.6,274.4 -3.6,271 -12.6,266.9 C -14.7,265.9 -17.1,264.7 -19.2,263.6 C -31.4,257 -39.9,247.3 -45.2,234.7 C -47.8,228.2 -47,221.6 -44.4,215.2 C -40.7,206.4 -33.8,201.7 -24.8,200.5 C -19,199.9 -13.1,198.9 -7.3,199.4 C -2.8,199.8 1.7,200 6.2,200.8 C 18.07,202.8 29.97,206 41.63,209.4 C 46.63,210.9 51.93,212.7 56.43,216.1 C 56.43,216.2 56.73,216.3 56.73,216.4 C 64.63,221.8 67.03,227.7 64.93,236.9 A 34.34,34.34 0 0 1 60.93,247.1 C 55.63,255.8 49.03,262.9 40.03,267.8 C 33.94,271.2 27.33,273.8 20.18,273.6 C 18.6,273.5 17.27,273.5 15.2,273.5 Z M 13.8,206.3 C 12.3,206.1 10.9,206.8 10.7,208.2 C 10.1,209.6 11.2,211.1 12.8,211.8 C 13.6,212.1 14.6,212.1 15.4,212.4 C 21.77,214 28.12,215.6 34.21,217.3 C 41.13,219.2 47.43,222.4 53.03,226.5 C 53.83,227 54.33,227.6 55.13,228 A 2.646,2.646 0 0 0 58.33,227.6 C 59.03,226.9 59.33,225.1 58.53,224.2 C 57.53,222.9 56.13,221.6 54.83,220.7 C 50.13,217.5 45.03,214.5 39.23,212.9 Q 28.39,209.9 17.54,206.9 C 16.5,206.6 15.2,206.5 13.8,206.3 Z"
         class="cls-29"
         inkscape:connector-curvature="0" />
      <path
         style="stroke-width:0.2646"
         id="path15703"
         d="M 182.1,200 C 187.4,200.5 192.1,200.6 197.2,201.6 C 204,203 209.8,206.2 213.2,212.9 C 215.1,216.6 216.2,220.5 217.2,224.4 C 218,227.8 216.7,231.1 215.9,234.2 C 215.1,237.4 213.5,240.5 211.7,243.3 C 205.8,253.2 197.7,260.7 187.4,265.9 C 180.2,269.5 173.1,272.3 165.7,274 C 152.4,277 140,275.1 128.6,268 C 119.1,262 111.4,253.8 107.2,243.2 C 105.1,238.4 104.8,233.6 105.4,228.7 C 105.9,225.3 107.7,222.3 110.6,220.3 C 114.9,217.1 119.6,214.1 124.9,212.4 C 137.9,208 151.1,204.2 164.6,201.8 C 170.4,200.7 176.5,200.6 182.1,200 Z M 202.4,211.4 C 201.9,210.9 201.3,209.6 200.3,209.2 C 198,208.2 195.6,207.1 192.9,206.8 C 178.6,204.6 164.9,206.3 151.1,210.3 A 7.623,7.623 0 0 0 149.8,210.9 C 148.5,211.6 147.9,212.9 148.2,214 A 2.955,2.955 0 0 0 151.4,216.1 A 17.68,17.68 0 0 0 154,215.4 C 164.9,212.2 175.7,211.5 186.8,211.9 C 190.3,212 193.7,212.5 196.6,213.8 A 12.44,12.44 0 0 0 199.8,214.7 C 201.1,214.9 202.4,213.3 202.4,211.4 Z"
         class="cls-29"
         inkscape:connector-curvature="0" />
      <path
         style="fill:#65ce1b;fill-opacity:1;stroke-width:0.2646"
         id="path15705"
         d="M 225.4,206.6 C 224.1,206.6 223,205.3 222.8,203.8 C 222.8,201.9 224.1,200.5 225.7,200.7 C 227,200.9 228.1,202.2 228.1,203.8 C 227.8,205.3 226.7,206.6 225.4,206.6 Z"
         class="cls-26"
         inkscape:connector-curvature="0" />
      <path
         style="fill:#65ce1b;fill-opacity:1;stroke-width:0.2646"
         id="path15707"
         d="M -30.6,187.9 C -29,188 -28,189.4 -28,191.2 C -28,192.5 -29,193.7 -30.1,193.6 C -31.7,193.5 -33.3,191.7 -33,190.1 C -33,188.9 -31.7,187.9 -30.6,187.9 Z"
         class="cls-26"
         inkscape:connector-curvature="0" />
      <path
         style="fill:#65ce1b;fill-opacity:1;stroke-width:0.2646"
         id="path15709"
         d="M 217.5,192.4 C 218.8,192.4 220.1,193.9 220.4,195.1 C 220.4,196.4 218.5,198.2 217.2,198 C 215.9,197.7 214.6,196 214.8,195 C 214.8,193.8 216.4,192.3 217.5,192.4 Z"
         class="cls-26"
         inkscape:connector-curvature="0" />
      <path
         style="fill:#65ce1b;fill-opacity:1;stroke-width:0.2646"
         id="path15711"
         d="M 202.7,191.5 C 202.7,193.2 201.6,194.2 200.3,194 C 198.7,193.8 197.4,192.7 197.7,191.3 C 197.7,189.8 199.3,188.7 200.8,188.9 C 202.1,189 202.7,190 202.7,191.5 Z"
         class="cls-26"
         inkscape:connector-curvature="0" />
      <path
         style="fill:#65ce1b;fill-opacity:1;stroke-width:0.2646"
         id="path15713"
         d="M -55,200.6 C -53.6,200.6 -52.3,202 -52.6,203.3 C -52.6,204.7 -53.9,205.6 -55.5,205.7 C -56.8,205.7 -57.6,204.8 -57.6,203.4 C -57.6,201.8 -56.6,200.6 -55,200.6 Z"
         class="cls-26"
         inkscape:connector-curvature="0" />
      <path
         style="fill:#65ce1b;fill-opacity:1;stroke-width:0.2646"
         id="path15715"
         d="M -48.3,184.9 C -48.1,186.3 -49.1,187.5 -50.7,187.7 C -52.1,187.9 -53.1,187.1 -53.4,185.9 C -53.4,184.2 -52.6,183 -51.3,182.7 C -49.9,182.4 -48.3,183.5 -48.3,184.9 Z"
         class="cls-26"
         inkscape:connector-curvature="0" />
      <path
         style="fill:#65ce1b;fill-opacity:1;stroke-width:0.2646"
         id="path15717"
         d="M -48.1,197.2 C -49.4,197.1 -50.2,196.1 -50.2,194.7 C -49.9,193.1 -48.9,192.1 -47.3,192.2 A 2.566,2.566 0 0 1 -45.2,195 C -45.4,196.4 -46.5,197.3 -48.1,197.2 Z"
         class="cls-26"
         inkscape:connector-curvature="0" />
      <path
         style="fill:#65ce1b;fill-opacity:1;stroke-width:0.2646"
         id="path15719"
         d="M -41.2,189.6 A 2.564,2.564 0 0 1 -43.6,186.8 C -43.6,185.4 -42.3,184.6 -40.7,184.6 C -39.4,184.7 -38.6,185.7 -38.6,187 C -38.8,188.6 -39.9,189.7 -41.2,189.6 Z"
         class="cls-26"
         inkscape:connector-curvature="0" />
      <path
         style="fill:#65ce1b;fill-opacity:1;stroke-width:0.2646"
         id="path15721"
         d="M -54.7,194.5 C -54.7,195.8 -55.8,197.1 -57.3,197.1 C -58.7,197 -59.7,195.8 -59.7,194.3 C -59.7,193.1 -58.9,192.2 -57.9,192.1 C -56.3,191.8 -54.7,192.9 -54.7,194.5 Z"
         class="cls-26"
         inkscape:connector-curvature="0" />
      <path
         style="fill:#65ce1b;fill-opacity:1;stroke-width:0.2646"
         id="path15723"
         d="M 211.1,189.8 C 209.3,189.7 208,188.5 208.2,186.9 A 2.627,2.627 0 0 1 210.9,184.8 C 212.2,184.8 213.2,185.9 213.2,187.5 C 213.2,188.9 212.5,189.8 211.1,189.8 Z"
         class="cls-26"
         inkscape:connector-curvature="0" />
      <path
         style="fill:#65ce1b;fill-opacity:1;stroke-width:0.2646"
         id="path15725"
         d="M -51.5,217.9 A 2.574,2.574 0 0 1 -54.2,220.3 C -55.8,220.1 -56.6,218.9 -56.6,217.3 C -56.6,216 -55.5,215.1 -54.2,215.3 C -52.6,215.4 -51.5,216.6 -51.5,217.9 Z"
         class="cls-26"
         inkscape:connector-curvature="0" />
      <path
         style="fill:#65ce1b;fill-opacity:1;stroke-width:0.2646"
         id="path15727"
         d="M 227,217.9 A 2.588,2.588 0 0 1 224.6,220.4 A 2.577,2.577 0 0 1 222,217.9 A 2.619,2.619 0 0 1 224.1,215.4 A 2.582,2.582 0 0 1 227,217.9 Z"
         class="cls-26"
         inkscape:connector-curvature="0" />
      <path
         style="fill:#65ce1b;fill-opacity:1;stroke-width:0.2646"
         id="path15729"
         d="M 227.5,197.1 A 2.58,2.58 0 0 1 225.2,194.9 A 2.556,2.556 0 0 1 227.5,192.1 A 2.63,2.63 0 0 1 229.9,194.4 A 2.572,2.572 0 0 1 227.5,197.1 Z"
         class="cls-26"
         inkscape:connector-curvature="0" />
      <path
         style="fill:#65ce1b;fill-opacity:1;stroke-width:0.2646"
         id="path15731"
         d="M 220.7,183.5 C 222,183.5 223.3,184.3 223.3,185.3 C 223.6,186.6 222.2,188.4 220.7,188.4 C 219.6,188.5 218.5,187.3 218.5,185.9 C 218.5,184.5 219.3,183.6 220.7,183.5 Z"
         class="cls-26"
         inkscape:connector-curvature="0" />
      <path
         style="fill:#dcdcdc;fill-opacity:1;stroke-width:0.2646"
         id="path15955"
         d="M 13.8,206.3 C 15.2,206.5 16.5,206.6 17.54,206.9 Q 28.39,209.9 39.23,212.9 C 45.03,214.5 50.13,217.5 54.83,220.7 C 56.13,221.6 57.53,222.9 58.53,224.2 C 59.33,225.1 59.03,226.9 58.33,227.6 A 2.646,2.646 0 0 1 55.13,228 C 54.33,227.6 53.83,227 53.03,226.5 C 47.43,222.4 41.13,219.2 34.21,217.4 C 28.12,215.6 21.77,214 15.4,212.4 C 14.6,212.1 13.6,212.1 12.8,211.8 C 11.2,211.2 10.1,209.6 10.7,208.2 C 10.9,206.8 12.3,206.1 13.8,206.3 Z"
         class="cls-22"
         inkscape:connector-curvature="0" />
    </g>
    <path
       inkscape:connector-curvature="0"
       class="cls-12"
       d="M 164.2,101 C 164.3,100.9 164.5,100.9 164.6,100.9 C 165.1,101 165.3,101.4 165.1,101.9 A 2.867,2.867 0 0 1 164.7,102.4 A 2.916,2.916 0 0 1 164.3,102.9 C 162.7,104.1 161.2,105.2 159.3,105.7 C 159.1,105.7 158.9,105.8 158.7,105.9 C 158.2,106 157.8,106.2 157.3,105.9 C 157.2,106 157.2,106 157.2,106.1 C 155.9,108.2 154.8,110.2 153.5,112.2 C 151.2,116 148.8,119.8 146.5,123.5 C 146.2,124.1 145.9,124.6 145.5,125.1 A 2.778,2.778 0 0 1 145,125.7 A 1.469,1.469 0 0 1 142.7,124.1 A 2.408,2.408 0 0 1 143,123.5 C 143.2,123.1 143.4,122.8 143.7,122.4 Q 148.8,115.4 154,108.3 C 154.7,107.3 155.5,106.3 156.3,105.3 C 156.4,105.2 156.5,105.1 156.5,105 C 156.5,105 156.4,104.9 156.4,104.9 C 155.9,104.6 155.7,104.1 155.8,103.6 C 155.8,103.2 155.9,102.7 156,102.2 C 156.2,100.6 156.2,99.02 156.1,97.52 C 156.1,97.22 156.1,97.02 156.1,96.82 C 156.1,96.62 156.2,96.42 156.4,96.32 C 156.6,96.22 156.9,96.32 157,96.52 A 3.773,3.773 0 0 1 157.4,97.32 C 157.7,98.02 157.8,98.72 157.9,99.42 C 157.9,99.62 157.9,99.82 158.1,100 C 158.1,99.92 158.2,99.82 158.3,99.82 C 158.8,98.42 159.4,97.02 159.7,95.62 A 1.361,1.361 0 0 1 159.7,95.32 C 159.9,95.02 160.1,94.92 160.3,94.92 C 160.5,94.92 160.8,95.12 160.9,95.42 A 2.947,2.947 0 0 1 160.9,96.22 A 15.34,15.34 0 0 1 160.6,97.92 C 160.4,98.52 160.2,99.12 160,99.82 C 159.9,100 159.9,100.1 159.9,100.4 C 160.1,100.2 160.2,100.2 160.3,100.1 C 160.8,99.32 161.2,98.52 161.5,97.62 C 161.7,97.22 161.9,96.82 162,96.42 A 2.943,2.943 0 0 1 162.4,95.82 C 162.6,95.62 162.8,95.52 163.1,95.62 C 163.3,95.72 163.4,95.92 163.4,96.22 A 2.284,2.284 0 0 1 163.4,96.62 C 163.2,97.62 163,98.62 162.5,99.62 C 162.4,99.72 162.3,99.82 162.4,100 C 162.6,100.1 162.6,100 162.7,99.92 Q 163.2,99.32 163.8,98.62 C 163.9,98.52 164.1,98.22 164.2,98.02 A 1.605,1.605 0 0 1 164.6,97.82 C 165,97.62 165.4,97.82 165.4,98.22 A 1.079,1.079 0 0 1 165.3,98.62 Q 164.9,99.42 164.5,100.1 C 164.4,100.4 164.2,100.6 164.1,100.8 C 164,100.9 164,100.9 164,101 C 164.1,101.1 164.2,101 164.2,101 Z M 159.9,100.4 A 0.4525,0.4525 0 0 0 159.8,100.5 C 159.8,100.5 159.9,100.6 159.9,100.6 A 0.4525,0.4525 0 0 0 159.9,100.5 C 159.9,100.5 159.9,100.4 159.9,100.4 Z M 162.3,100.1 C 162.3,100.1 162.3,100.2 162.3,100.2 A 0.4576,0.4576 0 0 0 162.3,100.3 C 162.3,100.3 162.4,100.2 162.4,100.2 A 0.4437,0.4437 0 0 0 162.3,100.1 Z"
       id="path13719"
       style="fill:#a5c94c;fill-opacity:1;stroke-width:0.0365" />
    <path
       inkscape:connector-curvature="0"
       class="cls-12"
       d="M 37.81,105.3 C 37.52,104.7 37.22,104.1 36.96,103.5 C 36.73,103.1 36.56,102.6 36.38,102.1 A 1.8,1.8 0 0 1 36.28,101.6 C 36.28,101.4 36.42,101.2 36.61,101.1 C 36.79,101.1 36.97,101.1 37.09,101.2 C 37.24,101.4 37.37,101.5 37.49,101.7 C 37.96,102.4 38.43,103.1 38.9,103.7 C 38.98,103.8 39.09,103.9 39.3,104.1 C 39.24,103.8 39.22,103.6 39.16,103.5 C 38.97,102.8 38.75,102.1 38.58,101.5 C 38.51,101.2 38.5,100.9 38.5,100.6 C 38.5,100.3 38.67,100.1 38.89,100.1 C 39.09,100.1 39.26,100.2 39.36,100.4 C 39.42,100.5 39.47,100.7 39.52,100.8 C 40,102.1 40.64,103.3 41.29,104.4 C 41.33,104.5 41.4,104.6 41.48,104.7 C 41.6,104.5 41.55,104.4 41.55,104.3 C 41.52,103.8 41.45,103.3 41.45,102.7 C 41.45,102.4 41.52,102.1 41.58,101.7 A 1.378,1.378 0 0 1 41.77,101.2 C 41.89,101.1 42.1,101 42.33,101 C 42.54,101.1 42.68,101.2 42.72,101.4 A 4.08,4.08 0 0 1 42.82,101.9 C 43.05,103.7 43.52,105.4 44.06,107.1 C 44.17,107.4 44.29,107.8 44.39,108.1 C 44.46,108.4 44.47,108.7 44.5,109 C 44.53,109.2 44.55,109.5 44.57,109.7 C 44.58,110 44.75,110.3 44.95,110.6 C 47,113.4 49.05,116.2 51.08,119 C 52.43,120.9 53.74,122.9 55.06,124.8 A 8.21,8.21 0 0 1 55.6,125.7 A 1.308,1.308 0 0 1 55.66,126.8 A 1.324,1.324 0 0 1 53.74,127.4 C 53.46,127.3 53.26,127 53.09,126.8 Q 52.68,126.1 52.28,125.5 C 49.69,121.3 47.12,117.1 44.68,112.8 C 44.35,112.2 44.02,111.6 43.67,111 C 43.49,111 43.33,111 43.16,111 C 42.4,111.1 41.66,111 40.9,110.9 A 5.846,5.846 0 0 1 39.05,110.3 C 38.25,109.9 37.48,109.4 36.83,108.8 C 36.46,108.4 36.16,108 35.84,107.6 C 35.76,107.5 35.71,107.4 35.66,107.3 C 35.59,107.1 35.55,106.9 35.66,106.7 C 35.8,106.5 36.02,106.5 36.24,106.5 L 36.46,106.6 C 36.47,106.8 36.6,106.9 36.73,106.9 L 36.83,107 L 36.8,106.8 L 36.53,106.4 A 0.2164,0.2164 0 0 0 36.43,106.4 C 36.17,105.9 35.91,105.4 35.67,104.9 A 3.838,3.838 0 0 1 35.38,104.1 C 35.36,103.9 35.41,103.7 35.47,103.6 C 35.53,103.4 35.78,103.4 35.91,103.5 A 2.524,2.524 0 0 1 36.22,103.9 C 36.64,104.5 37.08,105 37.62,105.4 C 37.7,105.6 37.82,105.7 38.09,105.8 C 38.03,105.6 38.02,105.5 37.98,105.4 C 37.93,105.4 37.87,105.3 37.81,105.3 Z M 39.36,104.1 C 39.34,104.1 39.33,104.1 39.31,104.1 A 0.4222,0.4222 0 0 0 39.27,104.2 C 39.27,104.2 39.3,104.2 39.31,104.2 Z"
       id="path13723"
       style="fill:#a5c94c;fill-opacity:1;stroke-width:0.0365" />
    <path
       inkscape:connector-curvature="0"
       class="cls-1"
       d="M 60.11,171.8 C 60.17,171.8 60.23,171.9 60.28,171.9 C 60.32,172 60.33,172.1 60.39,172.3 C 60.12,172.2 60,172.1 59.92,171.9 Z"
       id="path15457"
       style="stroke-width:0.0365" />
    <path
       inkscape:connector-curvature="0"
       class="cls-24"
       d="M 59.03,173.4 C 58.9,173.4 58.77,173.3 58.76,173.1 L 58.83,172.9 L 59.1,173.3 C 59.08,173.3 59.06,173.4 59.03,173.4 Z"
       id="path15751"
       style="stroke-width:0.0365" />
    <path
       inkscape:connector-curvature="0"
       class="cls-24"
       d="M 59.1,173.3 L 59.13,173.5 L 59.03,173.4 C 59.06,173.4 59.08,173.3 59.1,173.3 Z"
       id="path15753"
       style="stroke-width:0.0365" />
    <path
       inkscape:connector-curvature="0"
       class="cls-4"
       d="M 115.8,123 Q 115.8,129.7 115.8,136.5 Q 115.8,145.7 115.8,154.7 C 115.8,154.9 115.8,154.9 115.8,155 C 115.8,155.1 116.2,155.3 116.4,155.3 C 116.8,155.3 117,155.1 117,155 A 2.45,0.9257 0 0 0 117,154.9 C 117,154.8 117,154.8 117,154.7 Q 117,132.1 117,109.5 Q 117,100.4 117,91.24 C 117,91.16 117,91.09 117,91.02 C 117,90.88 116.6,90.78 116.4,90.78 C 116,90.78 115.8,90.88 115.8,91.02 C 115.8,91.1 115.8,91.18 115.8,91.26 Q 115.8,99.08 115.8,106.9 Q 115.8,114.9 115.8,123 Z"
       id="path13693"
       style="fill:#688e07;fill-opacity:1;stroke-width:0.0172" />
    <path
       style="opacity:1;vector-effect:none;fill:#688e07;fill-opacity:0.4;fill-rule:evenodd;stroke:#a3a3a3;stroke-width:1.0001;stroke-linecap:butt;stroke-linejoin:miter;stroke-miterlimit:4;stroke-dasharray:none;stroke-dashoffset:0;stroke-opacity:1"
       d="M 440.7,377.7 V 530.3 H 480.8 C 481.5,530.3 483,530.6 483.8,530.6 C 485.7,530.6 487.2,531 488.7,531 H 572.6 H 575.6 C 577.5,531.8 579,531.8 580.5,531.8 H 663.3 H 666.3 C 667.8,532.2 669.7,532.2 671.2,532.2 H 732.5 C 732.9,532.2 734,532.5 734.7,532.2 C 735.1,532.2 736.6,532.2 737,531.8 V 531 C 735.9,531 734,530.6 732.8,530.3 C 727.9,529.5 723.4,528.8 718.5,527.6 C 712.4,526.1 705.6,524.6 699.6,522.3 C 695.4,520.8 691.3,519.7 687.5,518.2 C 684.5,517.4 682.2,516.7 679.9,515.5 C 672.8,512.1 665.6,508.7 658,505.7 C 651.6,502.7 645.2,498.9 639.1,495.5 C 634.2,492.5 629.3,489.4 624.8,486.4 C 618.7,482.6 613.8,478.9 607.7,475.5 C 602.5,471.3 597.2,467.5 591.9,463.7 C 586.6,460 581.3,456.2 576.4,452.4 C 572.6,449.8 569.2,447.1 565.4,444.5 L 560.1,440.7 C 557.1,438.4 554.1,436.2 550.7,433.9 C 543.5,429 535.9,424.1 529.1,419.5 C 523.5,416.1 517.8,412.3 512.5,408.9 C 505.7,404 497.8,400.3 490.6,396.5 C 485.7,393.8 481.1,391.9 476.6,390 C 472.1,388.2 467.5,386.3 462.6,384.8 C 456.2,382.5 450.1,380.6 444.1,378.7 C 443,378.3 441.8,378 440.7,377.7 Z"
       transform="scale(0.2646)"
       id="rect22948"
       inkscape:connector-curvature="0" />
    <text
       xml:space="preserve"
       style="font-style:normal;font-variant:normal;font-weight:normal;font-stretch:normal;font-size:8.4667px;line-height:1em;font-family:sans-serif;-inkscape-font-specification:'sans-serif, Normal';font-variant-ligatures:normal;font-variant-caps:normal;font-variant-numeric:normal;font-feature-settings:normal;text-align:center;letter-spacing:0px;word-spacing:0px;writing-mode:lr-tb;baseline-shift:baseline;text-anchor:middle;fill:#000000;fill-opacity:1;stroke:none;stroke-width:0.2646"
       x="101.3"
       y="163"
       id="text10086-5"
       inkscape:export-xdpi="300"
       inkscape:export-ydpi="300"><tspan
         sodipodi:role="line"
         x="101.3"
         y="163"
         style="font-style:normal;font-variant:normal;font-weight:normal;font-stretch:normal;line-height:0em;font-family:Karumbi;-inkscape-font-specification:Karumbi;baseline-shift:baseline;stroke-width:0.2646"
         id="tspan1352">When the standardized score results in a p-value &gt; 0.05,</tspan><tspan
         sodipodi:role="line"
         x="101.3"
         y="171.5"
         style="font-style:normal;font-variant:normal;font-weight:normal;font-stretch:normal;line-height:0em;font-family:Karumbi;-inkscape-font-specification:Karumbi;baseline-shift:baseline;stroke-width:0.2646"
         id="tspan23279">we cannot reject the null hypothesis</tspan><tspan
         sodipodi:role="line"
         x="101.3"
         y="179.9"
         style="font-style:normal;font-variant:normal;font-weight:normal;font-stretch:normal;line-height:0em;font-family:Karumbi;-inkscape-font-specification:Karumbi;baseline-shift:baseline;stroke-width:0.2646"
         id="tspan23281">Our evidence might have arisen by chance alone</tspan></text>
    <text
       xml:space="preserve"
       style="font-style:normal;font-variant:normal;font-weight:normal;font-stretch:normal;font-size:8.4667px;line-height:1em;font-family:sans-serif;-inkscape-font-specification:'sans-serif, Normal';font-variant-ligatures:normal;font-variant-caps:normal;font-variant-numeric:normal;font-feature-settings:normal;text-align:center;letter-spacing:0px;word-spacing:0px;writing-mode:lr-tb;baseline-shift:baseline;text-anchor:middle;fill:#000000;fill-opacity:1;stroke:none;stroke-width:0.2646"
       x="18.29"
       y="61.8"
       id="text10086-5-5"
       inkscape:export-xdpi="300"
       inkscape:export-ydpi="300"><tspan
         sodipodi:role="line"
         x="18.29"
         y="61.8"
         style="font-style:normal;font-variant:normal;font-weight:normal;font-stretch:normal;line-height:0em;font-family:Karumbi;-inkscape-font-specification:Karumbi;baseline-shift:baseline;stroke-width:0.2646"
         id="tspan23281-3">H<tspan
   style="font-size:65%;baseline-shift:sub"
   id="tspan23368">0</tspan>: x = a</tspan><tspan
         sodipodi:role="line"
         x="18.29"
         y="70.27"
         style="font-style:normal;font-variant:normal;font-weight:normal;font-stretch:normal;line-height:0em;font-family:Karumbi;-inkscape-font-specification:Karumbi;baseline-shift:baseline;stroke-width:0.2646"
         id="tspan23350">H<tspan
   style="font-size:65%;baseline-shift:sub"
   id="tspan23366">A</tspan>: x &lt; a</tspan></text>
    <text
       xml:space="preserve"
       style="font-style:normal;font-variant:normal;font-weight:normal;font-stretch:normal;font-size:12.7px;line-height:0;font-family:sans-serif;-inkscape-font-specification:'sans-serif, Normal';font-variant-ligatures:normal;font-variant-caps:normal;font-variant-numeric:normal;font-feature-settings:normal;text-align:center;letter-spacing:0px;word-spacing:0px;writing-mode:lr-tb;text-anchor:middle;fill:#000000;fill-opacity:1;stroke:none;stroke-width:0.2646"
       x="117.7"
       y="87.9"
       id="text23354"><tspan
         sodipodi:role="line"
         id="tspan23352"
         x="117.7"
         y="87.9"
         style="font-style:normal;font-variant:normal;font-weight:normal;font-stretch:normal;font-family:Karumbi;-inkscape-font-specification:Karumbi;stroke-width:0.2646">x = a</tspan></text>
    <text
       xml:space="preserve"
       style="font-style:normal;font-variant:normal;font-weight:normal;font-stretch:normal;font-size:8.4672px;line-height:1;font-family:sans-serif;-inkscape-font-specification:'sans-serif, Normal';font-variant-ligatures:normal;font-variant-caps:normal;font-variant-numeric:normal;font-feature-settings:normal;text-align:end;letter-spacing:0px;word-spacing:0px;writing-mode:lr-tb;text-anchor:end;fill:#000000;fill-opacity:1;stroke:none;stroke-width:0.2646"
       x="207.8"
       y="61.72"
       id="text23358"><tspan
         sodipodi:role="line"
         id="tspan23356"
         x="207.8"
         y="61.72"
         style="font-style:normal;font-variant:normal;font-weight:normal;font-stretch:normal;font-family:Karumbi;-inkscape-font-specification:Karumbi;text-align:end;text-anchor:end;stroke-width:0.2646">We look for values as (or more) extreme than a</tspan><tspan
         sodipodi:role="line"
         x="207.8"
         y="71.77"
         style="font-style:normal;font-variant:normal;font-weight:normal;font-stretch:normal;font-family:Karumbi;-inkscape-font-specification:Karumbi;text-align:end;text-anchor:end;stroke-width:0.2646"
         id="tspan23360">when computing our p-value,</tspan><tspan
         sodipodi:role="line"
         x="207.8"
         y="81.81"
         style="font-style:normal;font-variant:normal;font-weight:normal;font-stretch:normal;font-family:Karumbi;-inkscape-font-specification:Karumbi;text-align:end;text-anchor:end;stroke-width:0.2646"
         id="tspan23362">in the direction opposite H<tspan
   style="font-size:65%;baseline-shift:sub"
   id="tspan23364">A</tspan></tspan></text>
    <path
       style="fill:none;stroke:#394f03;stroke-width:0.865;stroke-linecap:butt;stroke-linejoin:miter;stroke-miterlimit:4;stroke-dasharray:none;stroke-opacity:1;marker-end:url(#Arrow1Mend)"
       d="M 137.1,86.84 H 190.2"
       id="path23370"
       inkscape:connector-curvature="0" />
    <path
       inkscape:connector-curvature="0"
       class="cls-9"
       d="M 106.4,121 C 106.4,121.1 106.4,121.1 106.4,121.2 C 106.1,122 105.5,122.7 104.7,123.3 C 103.9,123.8 103.1,124.2 102.2,124.4 C 100.6,124.7 99.16,124.6 97.69,124.1 A 5.587,5.587 0 0 1 95.95,123 C 95.48,122.6 95.11,122.1 94.85,121.6 C 94.69,121.2 94.59,120.9 94.58,120.5 C 94.58,120.4 94.56,120.4 94.55,120.3 C 94.46,120.3 94.4,120.4 94.35,120.4 C 94.28,120.5 94.22,120.4 94.16,120.4 C 94.09,120.3 94.06,120.3 94.08,120.2 C 94.17,119.9 94.64,119.7 94.92,119.9 C 94.99,119.9 95.03,120 94.98,120.1 C 94.93,120.2 94.96,120.2 94.97,120.3 C 95.1,121.3 95.6,122 96.35,122.5 C 96.97,123 97.66,123.3 98.4,123.5 C 100.1,123.9 101.8,123.8 103.4,123.1 A 5.115,5.115 0 0 0 105,121.9 A 3.435,3.435 0 0 0 105.7,121 C 105.7,121 105.7,120.9 105.7,120.9 C 105.7,120.8 105.6,120.8 105.6,120.8 C 105.5,120.8 105.5,120.8 105.5,120.7 C 105.5,120.6 105.5,120.6 105.6,120.6 C 105.9,120.4 106.4,120.4 106.6,120.6 C 106.7,120.7 106.7,120.9 106.6,121 C 106.5,121 106.5,121 106.4,121 Z"
       id="path6303"
       style="fill:#74a200;fill-opacity:1;stroke:#000000;stroke-width:0.0984;stroke-miterlimit:4;stroke-dasharray:none;stroke-opacity:1" />
  </g>
</svg>
